%TF.GenerationSoftware,KiCad,Pcbnew,9.0.3-1.fc42*%
%TF.CreationDate,2025-08-02T14:35:42+08:00*%
%TF.ProjectId,art-coffee-coaster,6172742d-636f-4666-9665-652d636f6173,rev?*%
%TF.SameCoordinates,Original*%
%TF.FileFunction,Copper,L2,Bot*%
%TF.FilePolarity,Positive*%
%FSLAX46Y46*%
G04 Gerber Fmt 4.6, Leading zero omitted, Abs format (unit mm)*
G04 Created by KiCad (PCBNEW 9.0.3-1.fc42) date 2025-08-02 14:35:42*
%MOMM*%
%LPD*%
G01*
G04 APERTURE LIST*
G04 Aperture macros list*
%AMRoundRect*
0 Rectangle with rounded corners*
0 $1 Rounding radius*
0 $2 $3 $4 $5 $6 $7 $8 $9 X,Y pos of 4 corners*
0 Add a 4 corners polygon primitive as box body*
4,1,4,$2,$3,$4,$5,$6,$7,$8,$9,$2,$3,0*
0 Add four circle primitives for the rounded corners*
1,1,$1+$1,$2,$3*
1,1,$1+$1,$4,$5*
1,1,$1+$1,$6,$7*
1,1,$1+$1,$8,$9*
0 Add four rect primitives between the rounded corners*
20,1,$1+$1,$2,$3,$4,$5,0*
20,1,$1+$1,$4,$5,$6,$7,0*
20,1,$1+$1,$6,$7,$8,$9,0*
20,1,$1+$1,$8,$9,$2,$3,0*%
G04 Aperture macros list end*
%TA.AperFunction,ComponentPad*%
%ADD10RoundRect,0.250000X-0.550000X-0.550000X0.550000X-0.550000X0.550000X0.550000X-0.550000X0.550000X0*%
%TD*%
%TA.AperFunction,ComponentPad*%
%ADD11C,1.600000*%
%TD*%
%TA.AperFunction,ComponentPad*%
%ADD12R,1.800000X1.800000*%
%TD*%
%TA.AperFunction,ComponentPad*%
%ADD13C,1.800000*%
%TD*%
%TA.AperFunction,ComponentPad*%
%ADD14R,1.050000X1.500000*%
%TD*%
%TA.AperFunction,ComponentPad*%
%ADD15O,1.050000X1.500000*%
%TD*%
%TA.AperFunction,ComponentPad*%
%ADD16R,1.600000X1.600000*%
%TD*%
%TA.AperFunction,ComponentPad*%
%ADD17RoundRect,0.250000X0.550000X0.550000X-0.550000X0.550000X-0.550000X-0.550000X0.550000X-0.550000X0*%
%TD*%
%TA.AperFunction,ViaPad*%
%ADD18C,0.600000*%
%TD*%
%TA.AperFunction,Conductor*%
%ADD19C,0.200000*%
%TD*%
G04 APERTURE END LIST*
D10*
X124460000Y-73660000D03*
D11*
X124460000Y-76200000D03*
X124460000Y-78740000D03*
X124460000Y-81280000D03*
X124460000Y-83820000D03*
X124460000Y-86360000D03*
X124460000Y-88900000D03*
X124460000Y-91440000D03*
X124460000Y-93980000D03*
X124460000Y-96520000D03*
X124460000Y-99060000D03*
X124460000Y-101600000D03*
X124460000Y-104140000D03*
X124460000Y-106680000D03*
X124460000Y-109220000D03*
X124460000Y-111760000D03*
X139700000Y-111760000D03*
X139700000Y-109220000D03*
X139700000Y-106680000D03*
X139700000Y-104140000D03*
X139700000Y-101600000D03*
X139700000Y-99060000D03*
X139700000Y-96520000D03*
X139700000Y-93980000D03*
X139700000Y-91440000D03*
X139700000Y-88900000D03*
X139700000Y-86360000D03*
X139700000Y-83820000D03*
X139700000Y-81280000D03*
X139700000Y-78740000D03*
X139700000Y-76200000D03*
X139700000Y-73660000D03*
D10*
X149860000Y-93980000D03*
D11*
X157480000Y-93980000D03*
X95310000Y-91440000D03*
X102810000Y-91440000D03*
D12*
X147320000Y-58420000D03*
D13*
X149860000Y-58420000D03*
D14*
X167640000Y-86360000D03*
D15*
X168910000Y-86360000D03*
X170180000Y-86360000D03*
D14*
X167640000Y-71120000D03*
D15*
X168910000Y-71120000D03*
X170180000Y-71120000D03*
D11*
X95250000Y-127000000D03*
X95250000Y-119380000D03*
D12*
X167640000Y-58420000D03*
D13*
X170180000Y-58420000D03*
D10*
X149860000Y-85859000D03*
D11*
X157480000Y-85859000D03*
X95310000Y-63500000D03*
X102810000Y-63500000D03*
X95190700Y-101600000D03*
X102690700Y-101600000D03*
D10*
X149860000Y-78740000D03*
D11*
X157480000Y-78740000D03*
D16*
X148786700Y-127416800D03*
D11*
X146016700Y-127416800D03*
X143246700Y-127416800D03*
X140476700Y-127416800D03*
X137706700Y-127416800D03*
X134936700Y-127416800D03*
X132166700Y-127416800D03*
X129396700Y-127416800D03*
X126626700Y-127416800D03*
X123856700Y-127416800D03*
X121086700Y-127416800D03*
X118316700Y-127416800D03*
X115546700Y-127416800D03*
X147401700Y-130256800D03*
X144631700Y-130256800D03*
X141861700Y-130256800D03*
X139091700Y-130256800D03*
X136321700Y-130256800D03*
X133551700Y-130256800D03*
X130781700Y-130256800D03*
X128011700Y-130256800D03*
X125241700Y-130256800D03*
X122471700Y-130256800D03*
X119701700Y-130256800D03*
X116931700Y-130256800D03*
X104140000Y-127000000D03*
X104140000Y-119380000D03*
D12*
X157480000Y-58420000D03*
D13*
X160020000Y-58420000D03*
D17*
X101970000Y-76200000D03*
D11*
X94350000Y-76200000D03*
D18*
X162996200Y-129480000D03*
X152448300Y-131436000D03*
X160591600Y-106981100D03*
X131302800Y-59459200D03*
X132241000Y-105046300D03*
X141381000Y-106669900D03*
X129170700Y-125389300D03*
X103614500Y-105248700D03*
X168630800Y-102339000D03*
X101163700Y-85970900D03*
X105891500Y-90700200D03*
X134989000Y-58694600D03*
X150514100Y-130127700D03*
X146628900Y-113977800D03*
X160829000Y-125965000D03*
X126487900Y-111527600D03*
X132166700Y-108158400D03*
X165221900Y-93609900D03*
X137899800Y-58693500D03*
X135005900Y-123873100D03*
X149008700Y-111034000D03*
X140318400Y-122706900D03*
X141873300Y-111514400D03*
X141382200Y-86183700D03*
X164476900Y-111239000D03*
X161177400Y-67422600D03*
X128804500Y-59396700D03*
X119294200Y-99454700D03*
X117531900Y-113977800D03*
X140715400Y-95630500D03*
X146628900Y-70977700D03*
D19*
X171030400Y-121445800D02*
X171030400Y-59270400D01*
X171030400Y-59270400D02*
X170180000Y-58420000D01*
X162996200Y-129480000D02*
X171030400Y-121445800D01*
X104140000Y-119380000D02*
X102690700Y-117930700D01*
X160591600Y-121169500D02*
X151386700Y-130374400D01*
X146180200Y-127416800D02*
X149492800Y-130729400D01*
X149860000Y-85859000D02*
X149860000Y-78740000D01*
X151031700Y-130729400D02*
X151386700Y-130374400D01*
X160591600Y-106981100D02*
X160591600Y-121169500D01*
X160591600Y-106981100D02*
X160591600Y-81851600D01*
X149492800Y-130729400D02*
X151031700Y-130729400D01*
X160591600Y-81851600D02*
X157480000Y-78740000D01*
X146016700Y-127416800D02*
X146180200Y-127416800D01*
X102690700Y-117930700D02*
X102690700Y-101600000D01*
X152448300Y-131436000D02*
X151386700Y-130374400D01*
X141381000Y-106669900D02*
X141271600Y-106779300D01*
X123343700Y-105256300D02*
X124460000Y-104140000D01*
X124460000Y-111760000D02*
X123343700Y-110643700D01*
X141271600Y-126621900D02*
X140476700Y-127416800D01*
X132241000Y-105046300D02*
X132241000Y-60397400D01*
X141271600Y-106779300D02*
X141271600Y-126621900D01*
X123343700Y-110643700D02*
X123343700Y-105256300D01*
X132241000Y-60397400D02*
X131302800Y-59459200D01*
X102810000Y-84660000D02*
X94350000Y-76200000D01*
X102810000Y-91440000D02*
X102810000Y-84660000D01*
X129170700Y-111390700D02*
X124460000Y-106680000D01*
X106493300Y-102369900D02*
X103614500Y-105248700D01*
X102810000Y-63500000D02*
X106493300Y-67183300D01*
X106493300Y-67183300D02*
X106493300Y-102369900D01*
X129170700Y-125389300D02*
X129170700Y-111390700D01*
X125567500Y-94475600D02*
X124624800Y-95418300D01*
X123985100Y-95418300D02*
X122471700Y-96931700D01*
X168910000Y-83533500D02*
X168910000Y-71120000D01*
X168630800Y-102339000D02*
X167640000Y-101348200D01*
X167640000Y-84803500D02*
X168910000Y-83533500D01*
X124624800Y-95418300D02*
X123985100Y-95418300D01*
X167640000Y-86360000D02*
X167640000Y-84803500D01*
X124460000Y-88900000D02*
X125567500Y-90007500D01*
X122471700Y-96931700D02*
X122471700Y-130256800D01*
X125567500Y-90007500D02*
X125567500Y-94475600D01*
X167640000Y-101348200D02*
X167640000Y-86360000D01*
X110659800Y-120480200D02*
X104140000Y-127000000D01*
X124460000Y-91440000D02*
X110659800Y-105240200D01*
X110659800Y-105240200D02*
X110659800Y-120480200D01*
X95250000Y-119380000D02*
X101163700Y-113466300D01*
X101163700Y-113466300D02*
X101163700Y-85970900D01*
X105891500Y-80121500D02*
X105891500Y-90700200D01*
X101970000Y-76200000D02*
X105891500Y-80121500D01*
X134989000Y-58694600D02*
X134989000Y-79109000D01*
X133551700Y-89968300D02*
X133551700Y-130256800D01*
X139700000Y-83820000D02*
X133551700Y-89968300D01*
X134989000Y-79109000D02*
X139700000Y-83820000D01*
X150514100Y-113390200D02*
X150514100Y-130127700D01*
X139700000Y-102576100D02*
X150514100Y-113390200D01*
X139700000Y-101600000D02*
X139700000Y-102576100D01*
X168910000Y-86360000D02*
X168910000Y-87411700D01*
X124460000Y-109220000D02*
X126487900Y-111247900D01*
X126487900Y-111247900D02*
X126487900Y-111527600D01*
X148786700Y-116135600D02*
X148786700Y-127416800D01*
X169232500Y-117561500D02*
X169232500Y-87734200D01*
X146628900Y-113977800D02*
X148786700Y-116135600D01*
X169232500Y-87734200D02*
X168910000Y-87411700D01*
X160829000Y-125965000D02*
X169232500Y-117561500D01*
X124460000Y-99060000D02*
X132166700Y-106766700D01*
X132166700Y-106766700D02*
X132166700Y-108158400D01*
X132166700Y-108158400D02*
X132166700Y-127416800D01*
X167640000Y-71120000D02*
X166813300Y-71120000D01*
X119895900Y-98544100D02*
X124460000Y-93980000D01*
X119895900Y-130062600D02*
X119895900Y-98544100D01*
X165221900Y-72711400D02*
X166813300Y-71120000D01*
X165221900Y-93609900D02*
X165221900Y-72711400D01*
X119701700Y-130256800D02*
X119895900Y-130062600D01*
X139207500Y-85258300D02*
X138556200Y-85909600D01*
X138556200Y-85909600D02*
X138556200Y-87756200D01*
X139700000Y-76200000D02*
X140807300Y-77307300D01*
X139825800Y-85258300D02*
X139207500Y-85258300D01*
X137899800Y-58693500D02*
X137899800Y-74399800D01*
X137899800Y-74399800D02*
X139700000Y-76200000D01*
X140807300Y-77307300D02*
X140807300Y-84276800D01*
X135005900Y-123873100D02*
X135005900Y-93594100D01*
X140807300Y-84276800D02*
X139825800Y-85258300D01*
X138556200Y-87756200D02*
X139700000Y-88900000D01*
X135005900Y-93594100D02*
X139700000Y-88900000D01*
X146386200Y-90313700D02*
X146386200Y-108411500D01*
X146386200Y-108411500D02*
X149008700Y-111034000D01*
X139700000Y-86360000D02*
X140492700Y-85567300D01*
X141639800Y-85567300D02*
X146386200Y-90313700D01*
X140492700Y-85567300D02*
X141639800Y-85567300D01*
X139700000Y-106680000D02*
X140819500Y-107799500D01*
X140819500Y-107799500D02*
X140819500Y-122205800D01*
X140819500Y-122205800D02*
X140318400Y-122706900D01*
X139802700Y-104140000D02*
X142065500Y-106402800D01*
X142065500Y-106402800D02*
X142065500Y-111322200D01*
X139700000Y-104140000D02*
X139802700Y-104140000D01*
X142065500Y-111322200D02*
X141873300Y-111514400D01*
X138583600Y-101112100D02*
X139365700Y-100330000D01*
X137706700Y-110096900D02*
X138583600Y-109220000D01*
X138583600Y-109220000D02*
X139700000Y-109220000D01*
X138583600Y-109220000D02*
X138583600Y-101112100D01*
X141382200Y-98941100D02*
X141382200Y-86183700D01*
X137706700Y-127416800D02*
X137706700Y-110096900D01*
X139993300Y-100330000D02*
X141382200Y-98941100D01*
X139365700Y-100330000D02*
X139993300Y-100330000D01*
X161177400Y-67422600D02*
X164476900Y-70722100D01*
X164476900Y-70722100D02*
X164476900Y-111239000D01*
X124460000Y-101600000D02*
X130781700Y-107921700D01*
X130781700Y-107921700D02*
X130781700Y-130256800D01*
X123305300Y-98645500D02*
X123305300Y-100445300D01*
X128804500Y-59396700D02*
X128804500Y-76935500D01*
X124160800Y-97790000D02*
X123305300Y-98645500D01*
X124460000Y-81280000D02*
X126015400Y-82835400D01*
X124756700Y-97790000D02*
X124160800Y-97790000D01*
X126015400Y-96531300D02*
X124756700Y-97790000D01*
X123305300Y-100445300D02*
X124460000Y-101600000D01*
X128804500Y-76935500D02*
X124460000Y-81280000D01*
X126015400Y-82835400D02*
X126015400Y-96531300D01*
X117531900Y-101217000D02*
X117531900Y-113977800D01*
X116931700Y-113977800D02*
X116931700Y-130256800D01*
X119294200Y-99454700D02*
X117531900Y-101217000D01*
X117531900Y-113977800D02*
X116931700Y-113977800D01*
X136463300Y-94676700D02*
X136463300Y-127844600D01*
X140801700Y-92541700D02*
X140801700Y-95544200D01*
X140801700Y-95544200D02*
X140715400Y-95630500D01*
X134936800Y-129371100D02*
X134936800Y-130433300D01*
X136463300Y-127844600D02*
X134936800Y-129371100D01*
X139700000Y-91440000D02*
X136463300Y-94676700D01*
X134936800Y-130433300D02*
X134010600Y-131359500D01*
X129114400Y-131359500D02*
X128011700Y-130256800D01*
X139700000Y-91440000D02*
X140801700Y-92541700D01*
X134010600Y-131359500D02*
X129114400Y-131359500D01*
X149860000Y-93479000D02*
X157480000Y-85859000D01*
X149860000Y-93980000D02*
X149860000Y-93479000D01*
X147320000Y-70286600D02*
X146628900Y-70977700D01*
X147320000Y-58420000D02*
X147320000Y-70286600D01*
%TA.AperFunction,NonConductor*%
G36*
X172082702Y-52020617D02*
G01*
X172466771Y-52037386D01*
X172477506Y-52038326D01*
X172855971Y-52088152D01*
X172866597Y-52090025D01*
X173239284Y-52172648D01*
X173249710Y-52175442D01*
X173613765Y-52290227D01*
X173623911Y-52293920D01*
X173976578Y-52440000D01*
X173986369Y-52444566D01*
X174324942Y-52620816D01*
X174334310Y-52626224D01*
X174656244Y-52831318D01*
X174665105Y-52837523D01*
X174967930Y-53069889D01*
X174976217Y-53076843D01*
X175257635Y-53334715D01*
X175265284Y-53342364D01*
X175523156Y-53623782D01*
X175530110Y-53632069D01*
X175762476Y-53934894D01*
X175768681Y-53943755D01*
X175973775Y-54265689D01*
X175979183Y-54275057D01*
X176155430Y-54613623D01*
X176160002Y-54623427D01*
X176306075Y-54976078D01*
X176309775Y-54986244D01*
X176424554Y-55350278D01*
X176427354Y-55360727D01*
X176509971Y-55733389D01*
X176511849Y-55744042D01*
X176561671Y-56122473D01*
X176562614Y-56133249D01*
X176579382Y-56517297D01*
X176579500Y-56522706D01*
X176579500Y-136517293D01*
X176579382Y-136522702D01*
X176562614Y-136906750D01*
X176561671Y-136917526D01*
X176511849Y-137295957D01*
X176509971Y-137306610D01*
X176427354Y-137679272D01*
X176424554Y-137689721D01*
X176309775Y-138053755D01*
X176306075Y-138063921D01*
X176160002Y-138416572D01*
X176155430Y-138426376D01*
X175979183Y-138764942D01*
X175973775Y-138774310D01*
X175768681Y-139096244D01*
X175762476Y-139105105D01*
X175530110Y-139407930D01*
X175523156Y-139416217D01*
X175265284Y-139697635D01*
X175257635Y-139705284D01*
X174976217Y-139963156D01*
X174967930Y-139970110D01*
X174665105Y-140202476D01*
X174656244Y-140208681D01*
X174334310Y-140413775D01*
X174324942Y-140419183D01*
X173986376Y-140595430D01*
X173976572Y-140600002D01*
X173623921Y-140746075D01*
X173613755Y-140749775D01*
X173249721Y-140864554D01*
X173239272Y-140867354D01*
X172866610Y-140949971D01*
X172855957Y-140951849D01*
X172477526Y-141001671D01*
X172466750Y-141002614D01*
X172082703Y-141019382D01*
X172077294Y-141019500D01*
X92082706Y-141019500D01*
X92077297Y-141019382D01*
X91693249Y-141002614D01*
X91682473Y-141001671D01*
X91304042Y-140951849D01*
X91293389Y-140949971D01*
X90920727Y-140867354D01*
X90910278Y-140864554D01*
X90546244Y-140749775D01*
X90536078Y-140746075D01*
X90183427Y-140600002D01*
X90173623Y-140595430D01*
X89835057Y-140419183D01*
X89825689Y-140413775D01*
X89503755Y-140208681D01*
X89494894Y-140202476D01*
X89192069Y-139970110D01*
X89183782Y-139963156D01*
X88902364Y-139705284D01*
X88894715Y-139697635D01*
X88636843Y-139416217D01*
X88629889Y-139407930D01*
X88397523Y-139105105D01*
X88391318Y-139096244D01*
X88186224Y-138774310D01*
X88180816Y-138764942D01*
X88004569Y-138426376D01*
X87999997Y-138416572D01*
X87853924Y-138063921D01*
X87850224Y-138053755D01*
X87735442Y-137689710D01*
X87732648Y-137679284D01*
X87650025Y-137306597D01*
X87648152Y-137295971D01*
X87598326Y-136917506D01*
X87597386Y-136906771D01*
X87580618Y-136522702D01*
X87580500Y-136517293D01*
X87580500Y-126897648D01*
X93949500Y-126897648D01*
X93949500Y-127102351D01*
X93981522Y-127304534D01*
X94044781Y-127499223D01*
X94054936Y-127519152D01*
X94124520Y-127655718D01*
X94137715Y-127681613D01*
X94258028Y-127847213D01*
X94402786Y-127991971D01*
X94549290Y-128098410D01*
X94568390Y-128112287D01*
X94684607Y-128171503D01*
X94750776Y-128205218D01*
X94750778Y-128205218D01*
X94750781Y-128205220D01*
X94855137Y-128239127D01*
X94945465Y-128268477D01*
X95046557Y-128284488D01*
X95147648Y-128300500D01*
X95147649Y-128300500D01*
X95352351Y-128300500D01*
X95352352Y-128300500D01*
X95554534Y-128268477D01*
X95749219Y-128205220D01*
X95931610Y-128112287D01*
X96024590Y-128044732D01*
X96097213Y-127991971D01*
X96097215Y-127991968D01*
X96097219Y-127991966D01*
X96241966Y-127847219D01*
X96241968Y-127847215D01*
X96241971Y-127847213D01*
X96350054Y-127698447D01*
X96362287Y-127681610D01*
X96455220Y-127499219D01*
X96518477Y-127304534D01*
X96550500Y-127102352D01*
X96550500Y-126897648D01*
X102839500Y-126897648D01*
X102839500Y-127102351D01*
X102871522Y-127304534D01*
X102934781Y-127499223D01*
X102944936Y-127519152D01*
X103014520Y-127655718D01*
X103027715Y-127681613D01*
X103148028Y-127847213D01*
X103292786Y-127991971D01*
X103439290Y-128098410D01*
X103458390Y-128112287D01*
X103574607Y-128171503D01*
X103640776Y-128205218D01*
X103640778Y-128205218D01*
X103640781Y-128205220D01*
X103745137Y-128239127D01*
X103835465Y-128268477D01*
X103936557Y-128284488D01*
X104037648Y-128300500D01*
X104037649Y-128300500D01*
X104242351Y-128300500D01*
X104242352Y-128300500D01*
X104444534Y-128268477D01*
X104639219Y-128205220D01*
X104821610Y-128112287D01*
X104914590Y-128044732D01*
X104987213Y-127991971D01*
X104987215Y-127991968D01*
X104987219Y-127991966D01*
X105131966Y-127847219D01*
X105131968Y-127847215D01*
X105131971Y-127847213D01*
X105240054Y-127698447D01*
X105252287Y-127681610D01*
X105345220Y-127499219D01*
X105408477Y-127304534D01*
X105440500Y-127102352D01*
X105440500Y-126897648D01*
X105424740Y-126798144D01*
X105408478Y-126695472D01*
X105408477Y-126695471D01*
X105408477Y-126695466D01*
X105403825Y-126681151D01*
X105401832Y-126611312D01*
X105434075Y-126555158D01*
X111140320Y-120848916D01*
X111219377Y-120711984D01*
X111260301Y-120559257D01*
X111260301Y-120401142D01*
X111260301Y-120393547D01*
X111260300Y-120393529D01*
X111260300Y-105540296D01*
X111279985Y-105473257D01*
X111296614Y-105452620D01*
X122947819Y-93801414D01*
X123009142Y-93767930D01*
X123078834Y-93772914D01*
X123134767Y-93814786D01*
X123159184Y-93880250D01*
X123159500Y-93889096D01*
X123159500Y-94082351D01*
X123191522Y-94284534D01*
X123196173Y-94298848D01*
X123198165Y-94368690D01*
X123165921Y-94424842D01*
X119527186Y-98063578D01*
X119415381Y-98175382D01*
X119415375Y-98175390D01*
X119365380Y-98261986D01*
X119365380Y-98261987D01*
X119336323Y-98312315D01*
X119295399Y-98465043D01*
X119295399Y-98465045D01*
X119295399Y-98536514D01*
X119275714Y-98603553D01*
X119222910Y-98649308D01*
X119195591Y-98658131D01*
X119060708Y-98684961D01*
X119060698Y-98684964D01*
X118915027Y-98745302D01*
X118915014Y-98745309D01*
X118783911Y-98832910D01*
X118783907Y-98832913D01*
X118672413Y-98944407D01*
X118672410Y-98944411D01*
X118584809Y-99075514D01*
X118584802Y-99075527D01*
X118524464Y-99221198D01*
X118524461Y-99221208D01*
X118493562Y-99376548D01*
X118461177Y-99438459D01*
X118459626Y-99440037D01*
X117166259Y-100733404D01*
X117166252Y-100733411D01*
X117163186Y-100736478D01*
X117163184Y-100736480D01*
X117051380Y-100848284D01*
X117027540Y-100889577D01*
X116972323Y-100985215D01*
X116931399Y-101137943D01*
X116931399Y-101137945D01*
X116931399Y-101306046D01*
X116931400Y-101306059D01*
X116931400Y-113261048D01*
X116911715Y-113328087D01*
X116858911Y-113373842D01*
X116839494Y-113380823D01*
X116699914Y-113418223D01*
X116699909Y-113418226D01*
X116562990Y-113497275D01*
X116562982Y-113497281D01*
X116451181Y-113609082D01*
X116451175Y-113609090D01*
X116372126Y-113746009D01*
X116372123Y-113746016D01*
X116331200Y-113898743D01*
X116331200Y-126154588D01*
X116311515Y-126221627D01*
X116258711Y-126267382D01*
X116189553Y-126277326D01*
X116150905Y-126265073D01*
X116045923Y-126211581D01*
X115851234Y-126148322D01*
X115676695Y-126120678D01*
X115649052Y-126116300D01*
X115444348Y-126116300D01*
X115420029Y-126120151D01*
X115242165Y-126148322D01*
X115047476Y-126211581D01*
X114865086Y-126304515D01*
X114699486Y-126424828D01*
X114554728Y-126569586D01*
X114434415Y-126735186D01*
X114341481Y-126917576D01*
X114278222Y-127112265D01*
X114246200Y-127314448D01*
X114246200Y-127519151D01*
X114278222Y-127721334D01*
X114341481Y-127916023D01*
X114434415Y-128098413D01*
X114554728Y-128264013D01*
X114699486Y-128408771D01*
X114823316Y-128498737D01*
X114865090Y-128529087D01*
X114968753Y-128581906D01*
X115047476Y-128622018D01*
X115047478Y-128622018D01*
X115047481Y-128622020D01*
X115134527Y-128650303D01*
X115242165Y-128685277D01*
X115310233Y-128696058D01*
X115444348Y-128717300D01*
X115444349Y-128717300D01*
X115649051Y-128717300D01*
X115649052Y-128717300D01*
X115851234Y-128685277D01*
X116045919Y-128622020D01*
X116150905Y-128568526D01*
X116219573Y-128555630D01*
X116284314Y-128581906D01*
X116324571Y-128639012D01*
X116331200Y-128679011D01*
X116331200Y-129027197D01*
X116311515Y-129094236D01*
X116263500Y-129137679D01*
X116250089Y-129144512D01*
X116084486Y-129264828D01*
X115939728Y-129409586D01*
X115819415Y-129575186D01*
X115726481Y-129757576D01*
X115663222Y-129952265D01*
X115631200Y-130154448D01*
X115631200Y-130359151D01*
X115663222Y-130561334D01*
X115726481Y-130756023D01*
X115766616Y-130834791D01*
X115812940Y-130925707D01*
X115819415Y-130938413D01*
X115939728Y-131104013D01*
X116084486Y-131248771D01*
X116233664Y-131357153D01*
X116250090Y-131369087D01*
X116366307Y-131428303D01*
X116432476Y-131462018D01*
X116432478Y-131462018D01*
X116432481Y-131462020D01*
X116502391Y-131484735D01*
X116627165Y-131525277D01*
X116655255Y-131529726D01*
X116829348Y-131557300D01*
X116829349Y-131557300D01*
X117034051Y-131557300D01*
X117034052Y-131557300D01*
X117236234Y-131525277D01*
X117430919Y-131462020D01*
X117613310Y-131369087D01*
X117725964Y-131287240D01*
X117778913Y-131248771D01*
X117778919Y-131248766D01*
X117825187Y-131202498D01*
X117923666Y-131104019D01*
X117923668Y-131104015D01*
X117923671Y-131104013D01*
X117976432Y-131031390D01*
X118043987Y-130938410D01*
X118136920Y-130756019D01*
X118198769Y-130565668D01*
X118238207Y-130507993D01*
X118302566Y-130480795D01*
X118371412Y-130492710D01*
X118422888Y-130539954D01*
X118434631Y-130565668D01*
X118496481Y-130756023D01*
X118536616Y-130834791D01*
X118582940Y-130925707D01*
X118589415Y-130938413D01*
X118709728Y-131104013D01*
X118854486Y-131248771D01*
X119003664Y-131357153D01*
X119020090Y-131369087D01*
X119136307Y-131428303D01*
X119202476Y-131462018D01*
X119202478Y-131462018D01*
X119202481Y-131462020D01*
X119272391Y-131484735D01*
X119397165Y-131525277D01*
X119425255Y-131529726D01*
X119599348Y-131557300D01*
X119599349Y-131557300D01*
X119804051Y-131557300D01*
X119804052Y-131557300D01*
X120006234Y-131525277D01*
X120200919Y-131462020D01*
X120383310Y-131369087D01*
X120495964Y-131287240D01*
X120548913Y-131248771D01*
X120548919Y-131248766D01*
X120595187Y-131202498D01*
X120693666Y-131104019D01*
X120693668Y-131104015D01*
X120693671Y-131104013D01*
X120746432Y-131031390D01*
X120813987Y-130938410D01*
X120906920Y-130756019D01*
X120968769Y-130565668D01*
X121008207Y-130507993D01*
X121072566Y-130480795D01*
X121141412Y-130492710D01*
X121192888Y-130539954D01*
X121204631Y-130565668D01*
X121266481Y-130756023D01*
X121306616Y-130834791D01*
X121352940Y-130925707D01*
X121359415Y-130938413D01*
X121479728Y-131104013D01*
X121624486Y-131248771D01*
X121773664Y-131357153D01*
X121790090Y-131369087D01*
X121906307Y-131428303D01*
X121972476Y-131462018D01*
X121972478Y-131462018D01*
X121972481Y-131462020D01*
X122042391Y-131484735D01*
X122167165Y-131525277D01*
X122195255Y-131529726D01*
X122369348Y-131557300D01*
X122369349Y-131557300D01*
X122574051Y-131557300D01*
X122574052Y-131557300D01*
X122776234Y-131525277D01*
X122970919Y-131462020D01*
X123153310Y-131369087D01*
X123265964Y-131287240D01*
X123318913Y-131248771D01*
X123318919Y-131248766D01*
X123365187Y-131202498D01*
X123463666Y-131104019D01*
X123463668Y-131104015D01*
X123463671Y-131104013D01*
X123516432Y-131031390D01*
X123583987Y-130938410D01*
X123676920Y-130756019D01*
X123738769Y-130565668D01*
X123778207Y-130507993D01*
X123842566Y-130480795D01*
X123911412Y-130492710D01*
X123962888Y-130539954D01*
X123974631Y-130565668D01*
X124036481Y-130756023D01*
X124076616Y-130834791D01*
X124122940Y-130925707D01*
X124129415Y-130938413D01*
X124249728Y-131104013D01*
X124394486Y-131248771D01*
X124543664Y-131357153D01*
X124560090Y-131369087D01*
X124676307Y-131428303D01*
X124742476Y-131462018D01*
X124742478Y-131462018D01*
X124742481Y-131462020D01*
X124812391Y-131484735D01*
X124937165Y-131525277D01*
X124965255Y-131529726D01*
X125139348Y-131557300D01*
X125139349Y-131557300D01*
X125344051Y-131557300D01*
X125344052Y-131557300D01*
X125546234Y-131525277D01*
X125740919Y-131462020D01*
X125923310Y-131369087D01*
X126035964Y-131287240D01*
X126088913Y-131248771D01*
X126088919Y-131248766D01*
X126135187Y-131202498D01*
X126233666Y-131104019D01*
X126233668Y-131104015D01*
X126233671Y-131104013D01*
X126286432Y-131031390D01*
X126353987Y-130938410D01*
X126446920Y-130756019D01*
X126508769Y-130565668D01*
X126548207Y-130507993D01*
X126612566Y-130480795D01*
X126681412Y-130492710D01*
X126732888Y-130539954D01*
X126744631Y-130565668D01*
X126806481Y-130756023D01*
X126846616Y-130834791D01*
X126892940Y-130925707D01*
X126899415Y-130938413D01*
X127019728Y-131104013D01*
X127164486Y-131248771D01*
X127313664Y-131357153D01*
X127330090Y-131369087D01*
X127446307Y-131428303D01*
X127512476Y-131462018D01*
X127512478Y-131462018D01*
X127512481Y-131462020D01*
X127582391Y-131484735D01*
X127707165Y-131525277D01*
X127735255Y-131529726D01*
X127909348Y-131557300D01*
X127909349Y-131557300D01*
X128114051Y-131557300D01*
X128114052Y-131557300D01*
X128316234Y-131525277D01*
X128330542Y-131520627D01*
X128345754Y-131520192D01*
X128360015Y-131514874D01*
X128379968Y-131519214D01*
X128400382Y-131518631D01*
X128414469Y-131526720D01*
X128428288Y-131529726D01*
X128456542Y-131550877D01*
X128629539Y-131723874D01*
X128629549Y-131723885D01*
X128633879Y-131728215D01*
X128633880Y-131728216D01*
X128745684Y-131840020D01*
X128832495Y-131890139D01*
X128832497Y-131890141D01*
X128882613Y-131919076D01*
X128882615Y-131919077D01*
X129035342Y-131960000D01*
X129035343Y-131960000D01*
X133923931Y-131960000D01*
X133923947Y-131960001D01*
X133931543Y-131960001D01*
X134089654Y-131960001D01*
X134089657Y-131960001D01*
X134242385Y-131919077D01*
X134292504Y-131890139D01*
X134379316Y-131840020D01*
X134491120Y-131728216D01*
X134491120Y-131728214D01*
X134501328Y-131718007D01*
X134501329Y-131718004D01*
X135136844Y-131082489D01*
X135198166Y-131049006D01*
X135267858Y-131053990D01*
X135323791Y-131095862D01*
X135324839Y-131097283D01*
X135329728Y-131104012D01*
X135329735Y-131104020D01*
X135474486Y-131248771D01*
X135623664Y-131357153D01*
X135640090Y-131369087D01*
X135756307Y-131428303D01*
X135822476Y-131462018D01*
X135822478Y-131462018D01*
X135822481Y-131462020D01*
X135892391Y-131484735D01*
X136017165Y-131525277D01*
X136045255Y-131529726D01*
X136219348Y-131557300D01*
X136219349Y-131557300D01*
X136424051Y-131557300D01*
X136424052Y-131557300D01*
X136626234Y-131525277D01*
X136820919Y-131462020D01*
X137003310Y-131369087D01*
X137115964Y-131287240D01*
X137168913Y-131248771D01*
X137168919Y-131248766D01*
X137215187Y-131202498D01*
X137313666Y-131104019D01*
X137313668Y-131104015D01*
X137313671Y-131104013D01*
X137366432Y-131031390D01*
X137433987Y-130938410D01*
X137526920Y-130756019D01*
X137588769Y-130565668D01*
X137628207Y-130507993D01*
X137692566Y-130480795D01*
X137761412Y-130492710D01*
X137812888Y-130539954D01*
X137824631Y-130565668D01*
X137886481Y-130756023D01*
X137926616Y-130834791D01*
X137972940Y-130925707D01*
X137979415Y-130938413D01*
X138099728Y-131104013D01*
X138244486Y-131248771D01*
X138393664Y-131357153D01*
X138410090Y-131369087D01*
X138526307Y-131428303D01*
X138592476Y-131462018D01*
X138592478Y-131462018D01*
X138592481Y-131462020D01*
X138662391Y-131484735D01*
X138787165Y-131525277D01*
X138815255Y-131529726D01*
X138989348Y-131557300D01*
X138989349Y-131557300D01*
X139194051Y-131557300D01*
X139194052Y-131557300D01*
X139396234Y-131525277D01*
X139590919Y-131462020D01*
X139773310Y-131369087D01*
X139885964Y-131287240D01*
X139938913Y-131248771D01*
X139938919Y-131248766D01*
X139985187Y-131202498D01*
X140083666Y-131104019D01*
X140083668Y-131104015D01*
X140083671Y-131104013D01*
X140136432Y-131031390D01*
X140203987Y-130938410D01*
X140296920Y-130756019D01*
X140358769Y-130565668D01*
X140398207Y-130507993D01*
X140462566Y-130480795D01*
X140531412Y-130492710D01*
X140582888Y-130539954D01*
X140594631Y-130565668D01*
X140656481Y-130756023D01*
X140696616Y-130834791D01*
X140742940Y-130925707D01*
X140749415Y-130938413D01*
X140869728Y-131104013D01*
X141014486Y-131248771D01*
X141163664Y-131357153D01*
X141180090Y-131369087D01*
X141296307Y-131428303D01*
X141362476Y-131462018D01*
X141362478Y-131462018D01*
X141362481Y-131462020D01*
X141432391Y-131484735D01*
X141557165Y-131525277D01*
X141585255Y-131529726D01*
X141759348Y-131557300D01*
X141759349Y-131557300D01*
X141964051Y-131557300D01*
X141964052Y-131557300D01*
X142166234Y-131525277D01*
X142360919Y-131462020D01*
X142543310Y-131369087D01*
X142655964Y-131287240D01*
X142708913Y-131248771D01*
X142708919Y-131248766D01*
X142755187Y-131202498D01*
X142853666Y-131104019D01*
X142853668Y-131104015D01*
X142853671Y-131104013D01*
X142906432Y-131031390D01*
X142973987Y-130938410D01*
X143066920Y-130756019D01*
X143128769Y-130565668D01*
X143168207Y-130507993D01*
X143232566Y-130480795D01*
X143301412Y-130492710D01*
X143352888Y-130539954D01*
X143364631Y-130565668D01*
X143426481Y-130756023D01*
X143466616Y-130834791D01*
X143512940Y-130925707D01*
X143519415Y-130938413D01*
X143639728Y-131104013D01*
X143784486Y-131248771D01*
X143933664Y-131357153D01*
X143950090Y-131369087D01*
X144066307Y-131428303D01*
X144132476Y-131462018D01*
X144132478Y-131462018D01*
X144132481Y-131462020D01*
X144202391Y-131484735D01*
X144327165Y-131525277D01*
X144355255Y-131529726D01*
X144529348Y-131557300D01*
X144529349Y-131557300D01*
X144734051Y-131557300D01*
X144734052Y-131557300D01*
X144936234Y-131525277D01*
X145130919Y-131462020D01*
X145313310Y-131369087D01*
X145425964Y-131287240D01*
X145478913Y-131248771D01*
X145478919Y-131248766D01*
X145525187Y-131202498D01*
X145623666Y-131104019D01*
X145623668Y-131104015D01*
X145623671Y-131104013D01*
X145676432Y-131031390D01*
X145743987Y-130938410D01*
X145836920Y-130756019D01*
X145898769Y-130565668D01*
X145938207Y-130507993D01*
X146002566Y-130480795D01*
X146071412Y-130492710D01*
X146122888Y-130539954D01*
X146134631Y-130565668D01*
X146196481Y-130756023D01*
X146236616Y-130834791D01*
X146282940Y-130925707D01*
X146289415Y-130938413D01*
X146409728Y-131104013D01*
X146554486Y-131248771D01*
X146703664Y-131357153D01*
X146720090Y-131369087D01*
X146836307Y-131428303D01*
X146902476Y-131462018D01*
X146902478Y-131462018D01*
X146902481Y-131462020D01*
X146972391Y-131484735D01*
X147097165Y-131525277D01*
X147125255Y-131529726D01*
X147299348Y-131557300D01*
X147299349Y-131557300D01*
X147504051Y-131557300D01*
X147504052Y-131557300D01*
X147706234Y-131525277D01*
X147900919Y-131462020D01*
X148083310Y-131369087D01*
X148195964Y-131287240D01*
X148248913Y-131248771D01*
X148248919Y-131248766D01*
X148295187Y-131202498D01*
X148393666Y-131104019D01*
X148393668Y-131104015D01*
X148393671Y-131104013D01*
X148513984Y-130938414D01*
X148513985Y-130938413D01*
X148513987Y-130938410D01*
X148550792Y-130866175D01*
X148598763Y-130815382D01*
X148666584Y-130798586D01*
X148732719Y-130821122D01*
X148748956Y-130834791D01*
X149007939Y-131093774D01*
X149007949Y-131093785D01*
X149012279Y-131098115D01*
X149012280Y-131098116D01*
X149124084Y-131209920D01*
X149191368Y-131248766D01*
X149261015Y-131288977D01*
X149413743Y-131329901D01*
X149413746Y-131329901D01*
X149579453Y-131329901D01*
X149579469Y-131329900D01*
X150945031Y-131329900D01*
X150945047Y-131329901D01*
X150952643Y-131329901D01*
X151110754Y-131329901D01*
X151110757Y-131329901D01*
X151263485Y-131288977D01*
X151300625Y-131267534D01*
X151327689Y-131260967D01*
X151353778Y-131251237D01*
X151361168Y-131252844D01*
X151368521Y-131251061D01*
X151394840Y-131260169D01*
X151422051Y-131266089D01*
X151430740Y-131272593D01*
X151434549Y-131273912D01*
X151450305Y-131287240D01*
X151613725Y-131450660D01*
X151647210Y-131511983D01*
X151647661Y-131514149D01*
X151678561Y-131669491D01*
X151678564Y-131669501D01*
X151738902Y-131815172D01*
X151738909Y-131815185D01*
X151826510Y-131946288D01*
X151826513Y-131946292D01*
X151938007Y-132057786D01*
X151938011Y-132057789D01*
X152069114Y-132145390D01*
X152069127Y-132145397D01*
X152214798Y-132205735D01*
X152214803Y-132205737D01*
X152369453Y-132236499D01*
X152369456Y-132236500D01*
X152369458Y-132236500D01*
X152527144Y-132236500D01*
X152527145Y-132236499D01*
X152681797Y-132205737D01*
X152827479Y-132145394D01*
X152958589Y-132057789D01*
X153070089Y-131946289D01*
X153157694Y-131815179D01*
X153218037Y-131669497D01*
X153248800Y-131514842D01*
X153248800Y-131357158D01*
X153248800Y-131357155D01*
X153248799Y-131357153D01*
X153235238Y-131288977D01*
X153218037Y-131202503D01*
X153218035Y-131202498D01*
X153157697Y-131056827D01*
X153157690Y-131056814D01*
X153070089Y-130925711D01*
X153070086Y-130925707D01*
X152958592Y-130814213D01*
X152958588Y-130814210D01*
X152827485Y-130726609D01*
X152827472Y-130726602D01*
X152681801Y-130666264D01*
X152681791Y-130666261D01*
X152526449Y-130635361D01*
X152509692Y-130626595D01*
X152491214Y-130622576D01*
X152466177Y-130603833D01*
X152464538Y-130602976D01*
X152462960Y-130601425D01*
X152323615Y-130462080D01*
X152290130Y-130400757D01*
X152295114Y-130331065D01*
X152323611Y-130286723D01*
X156724180Y-125886153D01*
X160028500Y-125886153D01*
X160028500Y-126043846D01*
X160059261Y-126198489D01*
X160059264Y-126198501D01*
X160119602Y-126344172D01*
X160119609Y-126344185D01*
X160207210Y-126475288D01*
X160207213Y-126475292D01*
X160318707Y-126586786D01*
X160318711Y-126586789D01*
X160449814Y-126674390D01*
X160449827Y-126674397D01*
X160558512Y-126719415D01*
X160595503Y-126734737D01*
X160750153Y-126765499D01*
X160750156Y-126765500D01*
X160750158Y-126765500D01*
X160907844Y-126765500D01*
X160907845Y-126765499D01*
X161062497Y-126734737D01*
X161208179Y-126674394D01*
X161339289Y-126586789D01*
X161450789Y-126475289D01*
X161538394Y-126344179D01*
X161598737Y-126198497D01*
X161624608Y-126068437D01*
X161629638Y-126043150D01*
X161662023Y-125981239D01*
X161663518Y-125979716D01*
X169713020Y-117930216D01*
X169792077Y-117793284D01*
X169833001Y-117640557D01*
X169833001Y-117482442D01*
X169833001Y-117474847D01*
X169833000Y-117474829D01*
X169833000Y-87823258D01*
X169833000Y-87813259D01*
X169833001Y-87813257D01*
X169833001Y-87712662D01*
X169852686Y-87645623D01*
X169905491Y-87599868D01*
X169966852Y-87591046D01*
X169974648Y-87589925D01*
X169974649Y-87589925D01*
X169981192Y-87591046D01*
X170078992Y-87610499D01*
X170078996Y-87610500D01*
X170078997Y-87610500D01*
X170281005Y-87610500D01*
X170281704Y-87610361D01*
X170282077Y-87610394D01*
X170287068Y-87609903D01*
X170287161Y-87610849D01*
X170351296Y-87616585D01*
X170406475Y-87659446D01*
X170429722Y-87725335D01*
X170429900Y-87731977D01*
X170429900Y-121145702D01*
X170410215Y-121212741D01*
X170393581Y-121233383D01*
X162981539Y-128645425D01*
X162920216Y-128678910D01*
X162918050Y-128679361D01*
X162762708Y-128710261D01*
X162762698Y-128710264D01*
X162617027Y-128770602D01*
X162617014Y-128770609D01*
X162485911Y-128858210D01*
X162485907Y-128858213D01*
X162374413Y-128969707D01*
X162374410Y-128969711D01*
X162286809Y-129100814D01*
X162286802Y-129100827D01*
X162226464Y-129246498D01*
X162226461Y-129246510D01*
X162195700Y-129401153D01*
X162195700Y-129558846D01*
X162226461Y-129713489D01*
X162226464Y-129713501D01*
X162286802Y-129859172D01*
X162286809Y-129859185D01*
X162374410Y-129990288D01*
X162374413Y-129990292D01*
X162485907Y-130101786D01*
X162485911Y-130101789D01*
X162617014Y-130189390D01*
X162617027Y-130189397D01*
X162762698Y-130249735D01*
X162762703Y-130249737D01*
X162917353Y-130280499D01*
X162917356Y-130280500D01*
X162917358Y-130280500D01*
X163075044Y-130280500D01*
X163075045Y-130280499D01*
X163229697Y-130249737D01*
X163375379Y-130189394D01*
X163506489Y-130101789D01*
X163617989Y-129990289D01*
X163705594Y-129859179D01*
X163765937Y-129713497D01*
X163785712Y-129614084D01*
X163796838Y-129558150D01*
X163829223Y-129496239D01*
X163830718Y-129494716D01*
X171510920Y-121814516D01*
X171589977Y-121677584D01*
X171630901Y-121524857D01*
X171630901Y-121366742D01*
X171630901Y-121359147D01*
X171630900Y-121359129D01*
X171630900Y-59191346D01*
X171630900Y-59191343D01*
X171608909Y-59109269D01*
X171589977Y-59038615D01*
X171543206Y-58957606D01*
X171529016Y-58933029D01*
X171512544Y-58865130D01*
X171518471Y-58832721D01*
X171546015Y-58747951D01*
X171580500Y-58530222D01*
X171580500Y-58309778D01*
X171546015Y-58092049D01*
X171491337Y-57923764D01*
X171477896Y-57882396D01*
X171477895Y-57882393D01*
X171443237Y-57814375D01*
X171377815Y-57685978D01*
X171272985Y-57541691D01*
X171248247Y-57507641D01*
X171248243Y-57507636D01*
X171092363Y-57351756D01*
X171092358Y-57351752D01*
X170914025Y-57222187D01*
X170914024Y-57222186D01*
X170914022Y-57222185D01*
X170796791Y-57162452D01*
X170717606Y-57122104D01*
X170717603Y-57122103D01*
X170507952Y-57053985D01*
X170399086Y-57036742D01*
X170290222Y-57019500D01*
X170069778Y-57019500D01*
X169997201Y-57030995D01*
X169852047Y-57053985D01*
X169642396Y-57122103D01*
X169642393Y-57122104D01*
X169445974Y-57222187D01*
X169267641Y-57351752D01*
X169267636Y-57351756D01*
X169217463Y-57401929D01*
X169156140Y-57435413D01*
X169086448Y-57430428D01*
X169030515Y-57388557D01*
X169013601Y-57357580D01*
X168983797Y-57277671D01*
X168983793Y-57277664D01*
X168897547Y-57162455D01*
X168897544Y-57162452D01*
X168782335Y-57076206D01*
X168782328Y-57076202D01*
X168647482Y-57025908D01*
X168647483Y-57025908D01*
X168587883Y-57019501D01*
X168587881Y-57019500D01*
X168587873Y-57019500D01*
X168587864Y-57019500D01*
X166692129Y-57019500D01*
X166692123Y-57019501D01*
X166632516Y-57025908D01*
X166497671Y-57076202D01*
X166497664Y-57076206D01*
X166382455Y-57162452D01*
X166382452Y-57162455D01*
X166296206Y-57277664D01*
X166296202Y-57277671D01*
X166245908Y-57412517D01*
X166239501Y-57472116D01*
X166239500Y-57472135D01*
X166239500Y-59367870D01*
X166239501Y-59367876D01*
X166245908Y-59427483D01*
X166296202Y-59562328D01*
X166296206Y-59562335D01*
X166382452Y-59677544D01*
X166382455Y-59677547D01*
X166497664Y-59763793D01*
X166497671Y-59763797D01*
X166632517Y-59814091D01*
X166632516Y-59814091D01*
X166639444Y-59814835D01*
X166692127Y-59820500D01*
X168587872Y-59820499D01*
X168647483Y-59814091D01*
X168782331Y-59763796D01*
X168897546Y-59677546D01*
X168983796Y-59562331D01*
X169011429Y-59488243D01*
X169013601Y-59482420D01*
X169055471Y-59426486D01*
X169120936Y-59402068D01*
X169189209Y-59416919D01*
X169217464Y-59438071D01*
X169267636Y-59488243D01*
X169267641Y-59488247D01*
X169369603Y-59562326D01*
X169445978Y-59617815D01*
X169574375Y-59683237D01*
X169642393Y-59717895D01*
X169642396Y-59717896D01*
X169747221Y-59751955D01*
X169852049Y-59786015D01*
X170069778Y-59820500D01*
X170069779Y-59820500D01*
X170290222Y-59820500D01*
X170295073Y-59820118D01*
X170295238Y-59822218D01*
X170355791Y-59830042D01*
X170409245Y-59875036D01*
X170429887Y-59941786D01*
X170429900Y-59943562D01*
X170429900Y-69748022D01*
X170410215Y-69815061D01*
X170357411Y-69860816D01*
X170288253Y-69870760D01*
X170281725Y-69869643D01*
X170281007Y-69869500D01*
X170281003Y-69869500D01*
X170078997Y-69869500D01*
X170078992Y-69869500D01*
X169880880Y-69908907D01*
X169880872Y-69908909D01*
X169694244Y-69986213D01*
X169626906Y-70031207D01*
X169616943Y-70037865D01*
X169613891Y-70039904D01*
X169547213Y-70060782D01*
X169479833Y-70042297D01*
X169476109Y-70039904D01*
X169473057Y-70037865D01*
X169395756Y-69986214D01*
X169395757Y-69986214D01*
X169395755Y-69986213D01*
X169209127Y-69908909D01*
X169209119Y-69908907D01*
X169011007Y-69869500D01*
X169011003Y-69869500D01*
X168808997Y-69869500D01*
X168808992Y-69869500D01*
X168610880Y-69908907D01*
X168610868Y-69908910D01*
X168530198Y-69942325D01*
X168460729Y-69949794D01*
X168415342Y-69930036D01*
X168415114Y-69930454D01*
X168410447Y-69927905D01*
X168408432Y-69927028D01*
X168407331Y-69926204D01*
X168407330Y-69926203D01*
X168407328Y-69926202D01*
X168272482Y-69875908D01*
X168272483Y-69875908D01*
X168212883Y-69869501D01*
X168212881Y-69869500D01*
X168212873Y-69869500D01*
X168212864Y-69869500D01*
X167067129Y-69869500D01*
X167067123Y-69869501D01*
X167007516Y-69875908D01*
X166872671Y-69926202D01*
X166872664Y-69926206D01*
X166757455Y-70012452D01*
X166757452Y-70012455D01*
X166671206Y-70127664D01*
X166671202Y-70127671D01*
X166620908Y-70262517D01*
X166614501Y-70322116D01*
X166614500Y-70322135D01*
X166614500Y-70469787D01*
X166594815Y-70536826D01*
X166552500Y-70577174D01*
X166444587Y-70639477D01*
X166444582Y-70639481D01*
X165289081Y-71794983D01*
X165227758Y-71828468D01*
X165158066Y-71823484D01*
X165102133Y-71781612D01*
X165077716Y-71716148D01*
X165077400Y-71707302D01*
X165077400Y-70811160D01*
X165077401Y-70811147D01*
X165077401Y-70643044D01*
X165077401Y-70643043D01*
X165036477Y-70490316D01*
X164964506Y-70365657D01*
X164957424Y-70353390D01*
X164957418Y-70353382D01*
X162011973Y-67407937D01*
X161978488Y-67346614D01*
X161978037Y-67344447D01*
X161947138Y-67189110D01*
X161947137Y-67189103D01*
X161911987Y-67104243D01*
X161886797Y-67043427D01*
X161886790Y-67043414D01*
X161799189Y-66912311D01*
X161799186Y-66912307D01*
X161687692Y-66800813D01*
X161687688Y-66800810D01*
X161556585Y-66713209D01*
X161556572Y-66713202D01*
X161410901Y-66652864D01*
X161410889Y-66652861D01*
X161256245Y-66622100D01*
X161256242Y-66622100D01*
X161098558Y-66622100D01*
X161098555Y-66622100D01*
X160943910Y-66652861D01*
X160943898Y-66652864D01*
X160798227Y-66713202D01*
X160798214Y-66713209D01*
X160667111Y-66800810D01*
X160667107Y-66800813D01*
X160555613Y-66912307D01*
X160555610Y-66912311D01*
X160468009Y-67043414D01*
X160468002Y-67043427D01*
X160407664Y-67189098D01*
X160407661Y-67189110D01*
X160376900Y-67343753D01*
X160376900Y-67501446D01*
X160407661Y-67656089D01*
X160407664Y-67656101D01*
X160468002Y-67801772D01*
X160468009Y-67801785D01*
X160555610Y-67932888D01*
X160555613Y-67932892D01*
X160667107Y-68044386D01*
X160667111Y-68044389D01*
X160798214Y-68131990D01*
X160798227Y-68131997D01*
X160943898Y-68192335D01*
X160943903Y-68192337D01*
X161008547Y-68205195D01*
X161099249Y-68223238D01*
X161161160Y-68255623D01*
X161162739Y-68257174D01*
X163840081Y-70934516D01*
X163873566Y-70995839D01*
X163876400Y-71022197D01*
X163876400Y-110659234D01*
X163856715Y-110726273D01*
X163855502Y-110728125D01*
X163767509Y-110859814D01*
X163767502Y-110859827D01*
X163707164Y-111005498D01*
X163707161Y-111005510D01*
X163676400Y-111160153D01*
X163676400Y-111317846D01*
X163707161Y-111472489D01*
X163707164Y-111472501D01*
X163767502Y-111618172D01*
X163767509Y-111618185D01*
X163855110Y-111749288D01*
X163855113Y-111749292D01*
X163966607Y-111860786D01*
X163966611Y-111860789D01*
X164097714Y-111948390D01*
X164097727Y-111948397D01*
X164243398Y-112008735D01*
X164243403Y-112008737D01*
X164389954Y-112037888D01*
X164398053Y-112039499D01*
X164398056Y-112039500D01*
X164398058Y-112039500D01*
X164555744Y-112039500D01*
X164555745Y-112039499D01*
X164710397Y-112008737D01*
X164856079Y-111948394D01*
X164987189Y-111860789D01*
X165098689Y-111749289D01*
X165186294Y-111618179D01*
X165246637Y-111472497D01*
X165277400Y-111317842D01*
X165277400Y-111160158D01*
X165277400Y-111160155D01*
X165277399Y-111160153D01*
X165267989Y-111112846D01*
X165246637Y-111005503D01*
X165225784Y-110955158D01*
X165186297Y-110859827D01*
X165186290Y-110859814D01*
X165098298Y-110728125D01*
X165077420Y-110661447D01*
X165077400Y-110659234D01*
X165077400Y-94534400D01*
X165097085Y-94467361D01*
X165149889Y-94421606D01*
X165201400Y-94410400D01*
X165300744Y-94410400D01*
X165300745Y-94410399D01*
X165455397Y-94379637D01*
X165601079Y-94319294D01*
X165732189Y-94231689D01*
X165843689Y-94120189D01*
X165931294Y-93989079D01*
X165991637Y-93843397D01*
X166022400Y-93688742D01*
X166022400Y-93531058D01*
X166022400Y-93531055D01*
X166022399Y-93531053D01*
X165992351Y-93379992D01*
X165991637Y-93376403D01*
X165960725Y-93301774D01*
X165931297Y-93230727D01*
X165931290Y-93230714D01*
X165843298Y-93099025D01*
X165822420Y-93032347D01*
X165822400Y-93030134D01*
X165822400Y-73011496D01*
X165842085Y-72944457D01*
X165858715Y-72923819D01*
X166569588Y-72212945D01*
X166630909Y-72179462D01*
X166700600Y-72184446D01*
X166750591Y-72221866D01*
X166751183Y-72221275D01*
X166755297Y-72225389D01*
X166756530Y-72226312D01*
X166757453Y-72227545D01*
X166757455Y-72227547D01*
X166872664Y-72313793D01*
X166872671Y-72313797D01*
X167007517Y-72364091D01*
X167007516Y-72364091D01*
X167014444Y-72364835D01*
X167067127Y-72370500D01*
X168185500Y-72370499D01*
X168252539Y-72390184D01*
X168298294Y-72442987D01*
X168309500Y-72494499D01*
X168309500Y-83233402D01*
X168289815Y-83300441D01*
X168273181Y-83321083D01*
X167159481Y-84434782D01*
X167159480Y-84434784D01*
X167116872Y-84508584D01*
X167088126Y-84558371D01*
X167081991Y-84569000D01*
X167080423Y-84571715D01*
X167039499Y-84724443D01*
X167039499Y-84724445D01*
X167039499Y-84892546D01*
X167039500Y-84892559D01*
X167039500Y-85017884D01*
X167019815Y-85084923D01*
X166967011Y-85130678D01*
X166958834Y-85134066D01*
X166872669Y-85166203D01*
X166872664Y-85166206D01*
X166757455Y-85252452D01*
X166757452Y-85252455D01*
X166671206Y-85367664D01*
X166671202Y-85367671D01*
X166620908Y-85502517D01*
X166614501Y-85562116D01*
X166614500Y-85562135D01*
X166614500Y-87157870D01*
X166614501Y-87157876D01*
X166620908Y-87217483D01*
X166671202Y-87352328D01*
X166671206Y-87352335D01*
X166757452Y-87467544D01*
X166757455Y-87467547D01*
X166872664Y-87553793D01*
X166872671Y-87553797D01*
X166958833Y-87585933D01*
X167014766Y-87627804D01*
X167039184Y-87693268D01*
X167039500Y-87702115D01*
X167039500Y-101261530D01*
X167039499Y-101261548D01*
X167039499Y-101427254D01*
X167039498Y-101427254D01*
X167080423Y-101579987D01*
X167080425Y-101579990D01*
X167109071Y-101629605D01*
X167109073Y-101629607D01*
X167159479Y-101716914D01*
X167159481Y-101716917D01*
X167278349Y-101835785D01*
X167278355Y-101835790D01*
X167796225Y-102353660D01*
X167829710Y-102414983D01*
X167830161Y-102417149D01*
X167861061Y-102572491D01*
X167861064Y-102572501D01*
X167921402Y-102718172D01*
X167921409Y-102718185D01*
X168009010Y-102849288D01*
X168009013Y-102849292D01*
X168120507Y-102960786D01*
X168120511Y-102960789D01*
X168251614Y-103048390D01*
X168251627Y-103048397D01*
X168397298Y-103108735D01*
X168397303Y-103108737D01*
X168532191Y-103135568D01*
X168594102Y-103167952D01*
X168628676Y-103228668D01*
X168632000Y-103257185D01*
X168632000Y-117261402D01*
X168612315Y-117328441D01*
X168595681Y-117349083D01*
X160814339Y-125130425D01*
X160753016Y-125163910D01*
X160750850Y-125164361D01*
X160595508Y-125195261D01*
X160595498Y-125195264D01*
X160449827Y-125255602D01*
X160449814Y-125255609D01*
X160318711Y-125343210D01*
X160318707Y-125343213D01*
X160207213Y-125454707D01*
X160207210Y-125454711D01*
X160119609Y-125585814D01*
X160119602Y-125585827D01*
X160059264Y-125731498D01*
X160059261Y-125731510D01*
X160028500Y-125886153D01*
X156724180Y-125886153D01*
X160950106Y-121660227D01*
X160950111Y-121660224D01*
X160960314Y-121650020D01*
X160960316Y-121650020D01*
X161072120Y-121538216D01*
X161151177Y-121401284D01*
X161192100Y-121248557D01*
X161192100Y-107560865D01*
X161211785Y-107493826D01*
X161212998Y-107491974D01*
X161249832Y-107436849D01*
X161300994Y-107360279D01*
X161361337Y-107214597D01*
X161392100Y-107059942D01*
X161392100Y-106902258D01*
X161392100Y-106902255D01*
X161392099Y-106902253D01*
X161361338Y-106747610D01*
X161361337Y-106747603D01*
X161301448Y-106603016D01*
X161300997Y-106601927D01*
X161300990Y-106601914D01*
X161212998Y-106470225D01*
X161192120Y-106403547D01*
X161192100Y-106401334D01*
X161192100Y-81940659D01*
X161192101Y-81940646D01*
X161192101Y-81772545D01*
X161192101Y-81772543D01*
X161151177Y-81619815D01*
X161106635Y-81542666D01*
X161072120Y-81482884D01*
X160960316Y-81371080D01*
X160960315Y-81371079D01*
X160955985Y-81366749D01*
X160955974Y-81366739D01*
X158774077Y-79184842D01*
X158740592Y-79123519D01*
X158743828Y-79058841D01*
X158748477Y-79044534D01*
X158780500Y-78842352D01*
X158780500Y-78637648D01*
X158748477Y-78435466D01*
X158685220Y-78240781D01*
X158685218Y-78240778D01*
X158685218Y-78240776D01*
X158633865Y-78139991D01*
X158592287Y-78058390D01*
X158576892Y-78037200D01*
X158471971Y-77892786D01*
X158327213Y-77748028D01*
X158161613Y-77627715D01*
X158161612Y-77627714D01*
X158161610Y-77627713D01*
X158101898Y-77597288D01*
X157979223Y-77534781D01*
X157784534Y-77471522D01*
X157587693Y-77440346D01*
X157582352Y-77439500D01*
X157377648Y-77439500D01*
X157372307Y-77440346D01*
X157175465Y-77471522D01*
X156980776Y-77534781D01*
X156798386Y-77627715D01*
X156632786Y-77748028D01*
X156488028Y-77892786D01*
X156367715Y-78058386D01*
X156274781Y-78240776D01*
X156211522Y-78435465D01*
X156179500Y-78637648D01*
X156179500Y-78842351D01*
X156211522Y-79044534D01*
X156274781Y-79239223D01*
X156338691Y-79364653D01*
X156352067Y-79390904D01*
X156367715Y-79421613D01*
X156488028Y-79587213D01*
X156632786Y-79731971D01*
X156787749Y-79844556D01*
X156798390Y-79852287D01*
X156891080Y-79899515D01*
X156980776Y-79945218D01*
X156980778Y-79945218D01*
X156980781Y-79945220D01*
X157071856Y-79974812D01*
X157175465Y-80008477D01*
X157194697Y-80011523D01*
X157377648Y-80040500D01*
X157377649Y-80040500D01*
X157582351Y-80040500D01*
X157582352Y-80040500D01*
X157784534Y-80008477D01*
X157798842Y-80003827D01*
X157868682Y-80001831D01*
X157924842Y-80034077D01*
X159954781Y-82064016D01*
X159988266Y-82125339D01*
X159991100Y-82151697D01*
X159991100Y-106401334D01*
X159971415Y-106468373D01*
X159970202Y-106470225D01*
X159882209Y-106601914D01*
X159882202Y-106601927D01*
X159821864Y-106747598D01*
X159821861Y-106747610D01*
X159791100Y-106902253D01*
X159791100Y-107059946D01*
X159821861Y-107214589D01*
X159821864Y-107214601D01*
X159882202Y-107360272D01*
X159882209Y-107360285D01*
X159970202Y-107491974D01*
X159991080Y-107558651D01*
X159991100Y-107560865D01*
X159991100Y-120869402D01*
X159971415Y-120936441D01*
X159954781Y-120957083D01*
X151326281Y-129585583D01*
X151264958Y-129619068D01*
X151195266Y-129614084D01*
X151139333Y-129572212D01*
X151114916Y-129506748D01*
X151114600Y-129497902D01*
X151114600Y-113479259D01*
X151114601Y-113479246D01*
X151114601Y-113311145D01*
X151114601Y-113311143D01*
X151073677Y-113158415D01*
X151038556Y-113097584D01*
X150994620Y-113021484D01*
X150882816Y-112909680D01*
X150882815Y-112909679D01*
X150878485Y-112905349D01*
X150878474Y-112905339D01*
X149657159Y-111684024D01*
X149623674Y-111622701D01*
X149628658Y-111553009D01*
X149641736Y-111527456D01*
X149718094Y-111413179D01*
X149778437Y-111267497D01*
X149809200Y-111112842D01*
X149809200Y-110955158D01*
X149809200Y-110955155D01*
X149809199Y-110955153D01*
X149778438Y-110800510D01*
X149778437Y-110800503D01*
X149748700Y-110728711D01*
X149718097Y-110654827D01*
X149718090Y-110654814D01*
X149630489Y-110523711D01*
X149630486Y-110523707D01*
X149518992Y-110412213D01*
X149518988Y-110412210D01*
X149387885Y-110324609D01*
X149387872Y-110324602D01*
X149242201Y-110264264D01*
X149242191Y-110264261D01*
X149086849Y-110233361D01*
X149024938Y-110200976D01*
X149023360Y-110199425D01*
X147023019Y-108199084D01*
X146989534Y-108137761D01*
X146986700Y-108111403D01*
X146986700Y-93379983D01*
X148559500Y-93379983D01*
X148559500Y-94580001D01*
X148559501Y-94580018D01*
X148570000Y-94682796D01*
X148570001Y-94682799D01*
X148597492Y-94765759D01*
X148625186Y-94849334D01*
X148717288Y-94998656D01*
X148841344Y-95122712D01*
X148990666Y-95214814D01*
X149157203Y-95269999D01*
X149259991Y-95280500D01*
X150460008Y-95280499D01*
X150562797Y-95269999D01*
X150729334Y-95214814D01*
X150878656Y-95122712D01*
X151002712Y-94998656D01*
X151094814Y-94849334D01*
X151149999Y-94682797D01*
X151160500Y-94580009D01*
X151160499Y-93877648D01*
X156179500Y-93877648D01*
X156179500Y-94082351D01*
X156211522Y-94284534D01*
X156274781Y-94479223D01*
X156367715Y-94661613D01*
X156488028Y-94827213D01*
X156632786Y-94971971D01*
X156787749Y-95084556D01*
X156798390Y-95092287D01*
X156891080Y-95139515D01*
X156980776Y-95185218D01*
X156980778Y-95185218D01*
X156980781Y-95185220D01*
X157071856Y-95214812D01*
X157175465Y-95248477D01*
X157218613Y-95255311D01*
X157377648Y-95280500D01*
X157377649Y-95280500D01*
X157582351Y-95280500D01*
X157582352Y-95280500D01*
X157784534Y-95248477D01*
X157979219Y-95185220D01*
X158161610Y-95092287D01*
X158290482Y-94998657D01*
X158327213Y-94971971D01*
X158327215Y-94971968D01*
X158327219Y-94971966D01*
X158471966Y-94827219D01*
X158471968Y-94827215D01*
X158471971Y-94827213D01*
X158576892Y-94682799D01*
X158592287Y-94661610D01*
X158685220Y-94479219D01*
X158748477Y-94284534D01*
X158780500Y-94082352D01*
X158780500Y-93877648D01*
X158772503Y-93827157D01*
X158748477Y-93675465D01*
X158685218Y-93480776D01*
X158633865Y-93379991D01*
X158592287Y-93298390D01*
X158576894Y-93277203D01*
X158471971Y-93132786D01*
X158327213Y-92988028D01*
X158161613Y-92867715D01*
X158161612Y-92867714D01*
X158161610Y-92867713D01*
X158101898Y-92837288D01*
X157979223Y-92774781D01*
X157784534Y-92711522D01*
X157587693Y-92680346D01*
X157582352Y-92679500D01*
X157377648Y-92679500D01*
X157372307Y-92680346D01*
X157175465Y-92711522D01*
X156980776Y-92774781D01*
X156798386Y-92867715D01*
X156632786Y-92988028D01*
X156488028Y-93132786D01*
X156367715Y-93298386D01*
X156274781Y-93480776D01*
X156211522Y-93675465D01*
X156179500Y-93877648D01*
X151160499Y-93877648D01*
X151160499Y-93379992D01*
X151149999Y-93277203D01*
X151114578Y-93170312D01*
X151112177Y-93100486D01*
X151144602Y-93043631D01*
X157035158Y-87153075D01*
X157096479Y-87119592D01*
X157161151Y-87122825D01*
X157175466Y-87127477D01*
X157377648Y-87159500D01*
X157377649Y-87159500D01*
X157582351Y-87159500D01*
X157582352Y-87159500D01*
X157784534Y-87127477D01*
X157979219Y-87064220D01*
X158161610Y-86971287D01*
X158290482Y-86877657D01*
X158327213Y-86850971D01*
X158327215Y-86850968D01*
X158327219Y-86850966D01*
X158471966Y-86706219D01*
X158471968Y-86706215D01*
X158471971Y-86706213D01*
X158530818Y-86625216D01*
X158592287Y-86540610D01*
X158685220Y-86358219D01*
X158748477Y-86163534D01*
X158780500Y-85961352D01*
X158780500Y-85756648D01*
X158749692Y-85562135D01*
X158748477Y-85554465D01*
X158717980Y-85460607D01*
X158685220Y-85359781D01*
X158685218Y-85359778D01*
X158685218Y-85359776D01*
X158645740Y-85282297D01*
X158592287Y-85177390D01*
X158571593Y-85148907D01*
X158471971Y-85011786D01*
X158327213Y-84867028D01*
X158161613Y-84746715D01*
X158161612Y-84746714D01*
X158161610Y-84746713D01*
X158101898Y-84716288D01*
X157979223Y-84653781D01*
X157784534Y-84590522D01*
X157609995Y-84562878D01*
X157582352Y-84558500D01*
X157377648Y-84558500D01*
X157353329Y-84562351D01*
X157175465Y-84590522D01*
X156980776Y-84653781D01*
X156798386Y-84746715D01*
X156632786Y-84867028D01*
X156488028Y-85011786D01*
X156367715Y-85177386D01*
X156274781Y-85359776D01*
X156211522Y-85554465D01*
X156179500Y-85756648D01*
X156179500Y-85961351D01*
X156211522Y-86163534D01*
X156216173Y-86177848D01*
X156218165Y-86247690D01*
X156185921Y-86303842D01*
X149846582Y-92643181D01*
X149785259Y-92676666D01*
X149758901Y-92679500D01*
X149259998Y-92679500D01*
X149259980Y-92679501D01*
X149157203Y-92690000D01*
X149157200Y-92690001D01*
X148990668Y-92745185D01*
X148990663Y-92745187D01*
X148841342Y-92837289D01*
X148717289Y-92961342D01*
X148625187Y-93110663D01*
X148625186Y-93110666D01*
X148570001Y-93277203D01*
X148570001Y-93277204D01*
X148570000Y-93277204D01*
X148559500Y-93379983D01*
X146986700Y-93379983D01*
X146986700Y-90234643D01*
X146986699Y-90234639D01*
X146977552Y-90200501D01*
X146977552Y-90200500D01*
X146945777Y-90081915D01*
X146893175Y-89990806D01*
X146866720Y-89944984D01*
X146754916Y-89833180D01*
X146754913Y-89833178D01*
X142127390Y-85205655D01*
X142127388Y-85205652D01*
X142008517Y-85086781D01*
X142008516Y-85086780D01*
X141919323Y-85035285D01*
X141871585Y-85007723D01*
X141718857Y-84966799D01*
X141560743Y-84966799D01*
X141553147Y-84966799D01*
X141553131Y-84966800D01*
X141265898Y-84966800D01*
X141198859Y-84947115D01*
X141153104Y-84894311D01*
X141143160Y-84825153D01*
X141172185Y-84761597D01*
X141178217Y-84755119D01*
X141229051Y-84704285D01*
X141287820Y-84645516D01*
X141366877Y-84508584D01*
X141407801Y-84355857D01*
X141407801Y-84197742D01*
X141407801Y-84190147D01*
X141407800Y-84190129D01*
X141407800Y-78139983D01*
X148559500Y-78139983D01*
X148559500Y-79340001D01*
X148559501Y-79340018D01*
X148570000Y-79442796D01*
X148570001Y-79442799D01*
X148581571Y-79477714D01*
X148625186Y-79609334D01*
X148717288Y-79758656D01*
X148841344Y-79882712D01*
X148990666Y-79974814D01*
X149157203Y-80029999D01*
X149157209Y-80029999D01*
X149161448Y-80030907D01*
X149222884Y-80064185D01*
X149256576Y-80125394D01*
X149259500Y-80152162D01*
X149259500Y-84446837D01*
X149239815Y-84513876D01*
X149187011Y-84559631D01*
X149161459Y-84568089D01*
X149157207Y-84568999D01*
X148990668Y-84624185D01*
X148990663Y-84624187D01*
X148841342Y-84716289D01*
X148717289Y-84840342D01*
X148625187Y-84989663D01*
X148625185Y-84989668D01*
X148607000Y-85044547D01*
X148570001Y-85156203D01*
X148570001Y-85156204D01*
X148570000Y-85156204D01*
X148559500Y-85258983D01*
X148559500Y-86459001D01*
X148559501Y-86459018D01*
X148570000Y-86561796D01*
X148570001Y-86561799D01*
X148617139Y-86704051D01*
X148625186Y-86728334D01*
X148717288Y-86877656D01*
X148841344Y-87001712D01*
X148990666Y-87093814D01*
X149157203Y-87148999D01*
X149259991Y-87159500D01*
X150460008Y-87159499D01*
X150562797Y-87148999D01*
X150729334Y-87093814D01*
X150878656Y-87001712D01*
X151002712Y-86877656D01*
X151094814Y-86728334D01*
X151149999Y-86561797D01*
X151160500Y-86459009D01*
X151160499Y-85258992D01*
X151154522Y-85200485D01*
X151149999Y-85156203D01*
X151149998Y-85156200D01*
X151144337Y-85139117D01*
X151094814Y-84989666D01*
X151002712Y-84840344D01*
X150878656Y-84716288D01*
X150729334Y-84624186D01*
X150729331Y-84624185D01*
X150562795Y-84569000D01*
X150558533Y-84568088D01*
X150497102Y-84534801D01*
X150463419Y-84473586D01*
X150460500Y-84446837D01*
X150460500Y-80152162D01*
X150480185Y-80085123D01*
X150532989Y-80039368D01*
X150558552Y-80030907D01*
X150562788Y-80029999D01*
X150562797Y-80029999D01*
X150729334Y-79974814D01*
X150878656Y-79882712D01*
X151002712Y-79758656D01*
X151094814Y-79609334D01*
X151149999Y-79442797D01*
X151160500Y-79340009D01*
X151160499Y-78139992D01*
X151149999Y-78037203D01*
X151094814Y-77870666D01*
X151002712Y-77721344D01*
X150878656Y-77597288D01*
X150729334Y-77505186D01*
X150562797Y-77450001D01*
X150562795Y-77450000D01*
X150460010Y-77439500D01*
X149259998Y-77439500D01*
X149259981Y-77439501D01*
X149157203Y-77450000D01*
X149157200Y-77450001D01*
X148990668Y-77505185D01*
X148990663Y-77505187D01*
X148841342Y-77597289D01*
X148717289Y-77721342D01*
X148625187Y-77870663D01*
X148625186Y-77870666D01*
X148570001Y-78037203D01*
X148570001Y-78037204D01*
X148570000Y-78037204D01*
X148559500Y-78139983D01*
X141407800Y-78139983D01*
X141407800Y-77396360D01*
X141407801Y-77396347D01*
X141407801Y-77228244D01*
X141405232Y-77218656D01*
X141366877Y-77075516D01*
X141350540Y-77047219D01*
X141287824Y-76938590D01*
X141287818Y-76938582D01*
X140994077Y-76644841D01*
X140960592Y-76583518D01*
X140963828Y-76518841D01*
X140968477Y-76504534D01*
X141000500Y-76302352D01*
X141000500Y-76097648D01*
X140968477Y-75895466D01*
X140905220Y-75700781D01*
X140905218Y-75700778D01*
X140905218Y-75700776D01*
X140853865Y-75599991D01*
X140812287Y-75518390D01*
X140796892Y-75497200D01*
X140691971Y-75352786D01*
X140547213Y-75208028D01*
X140381614Y-75087715D01*
X140375006Y-75084348D01*
X140288917Y-75040483D01*
X140238123Y-74992511D01*
X140221328Y-74924690D01*
X140243865Y-74858555D01*
X140288917Y-74819516D01*
X140381610Y-74772287D01*
X140510482Y-74678657D01*
X140547213Y-74651971D01*
X140547219Y-74651966D01*
X140567600Y-74631585D01*
X140691966Y-74507219D01*
X140691968Y-74507215D01*
X140691971Y-74507213D01*
X140796892Y-74362799D01*
X140812287Y-74341610D01*
X140905220Y-74159219D01*
X140968477Y-73964534D01*
X141000500Y-73762352D01*
X141000500Y-73557648D01*
X140968477Y-73355466D01*
X140905220Y-73160781D01*
X140905218Y-73160778D01*
X140905218Y-73160776D01*
X140853865Y-73059991D01*
X140812287Y-72978390D01*
X140796892Y-72957200D01*
X140691971Y-72812786D01*
X140547213Y-72668028D01*
X140381613Y-72547715D01*
X140381612Y-72547714D01*
X140381610Y-72547713D01*
X140321898Y-72517288D01*
X140199223Y-72454781D01*
X140004534Y-72391522D01*
X139829995Y-72363878D01*
X139802352Y-72359500D01*
X139597648Y-72359500D01*
X139573329Y-72363351D01*
X139395465Y-72391522D01*
X139200776Y-72454781D01*
X139018386Y-72547715D01*
X138852786Y-72668028D01*
X138852782Y-72668032D01*
X138711981Y-72808834D01*
X138650658Y-72842319D01*
X138580966Y-72837335D01*
X138525033Y-72795463D01*
X138500616Y-72729999D01*
X138500300Y-72721153D01*
X138500300Y-70898853D01*
X145828400Y-70898853D01*
X145828400Y-71056546D01*
X145859161Y-71211189D01*
X145859164Y-71211201D01*
X145919502Y-71356872D01*
X145919509Y-71356885D01*
X146007110Y-71487988D01*
X146007113Y-71487992D01*
X146118607Y-71599486D01*
X146118611Y-71599489D01*
X146249714Y-71687090D01*
X146249727Y-71687097D01*
X146395398Y-71747435D01*
X146395403Y-71747437D01*
X146550053Y-71778199D01*
X146550056Y-71778200D01*
X146550058Y-71778200D01*
X146707744Y-71778200D01*
X146707745Y-71778199D01*
X146862397Y-71747437D01*
X147008079Y-71687094D01*
X147139189Y-71599489D01*
X147250689Y-71487989D01*
X147338294Y-71356879D01*
X147398637Y-71211197D01*
X147418013Y-71113785D01*
X147429538Y-71055850D01*
X147461923Y-70993939D01*
X147463425Y-70992408D01*
X147678506Y-70777327D01*
X147678511Y-70777324D01*
X147688714Y-70767120D01*
X147688716Y-70767120D01*
X147800520Y-70655316D01*
X147854453Y-70561901D01*
X147879577Y-70518385D01*
X147920501Y-70365657D01*
X147920501Y-70207543D01*
X147920501Y-70199948D01*
X147920500Y-70199930D01*
X147920500Y-59944499D01*
X147940185Y-59877460D01*
X147992989Y-59831705D01*
X148044500Y-59820499D01*
X148267871Y-59820499D01*
X148267872Y-59820499D01*
X148327483Y-59814091D01*
X148462331Y-59763796D01*
X148577546Y-59677546D01*
X148663796Y-59562331D01*
X148691429Y-59488243D01*
X148693601Y-59482420D01*
X148735471Y-59426486D01*
X148800936Y-59402068D01*
X148869209Y-59416919D01*
X148897464Y-59438071D01*
X148947636Y-59488243D01*
X148947641Y-59488247D01*
X149049603Y-59562326D01*
X149125978Y-59617815D01*
X149254375Y-59683237D01*
X149322393Y-59717895D01*
X149322396Y-59717896D01*
X149427221Y-59751955D01*
X149532049Y-59786015D01*
X149749778Y-59820500D01*
X149749779Y-59820500D01*
X149970221Y-59820500D01*
X149970222Y-59820500D01*
X150187951Y-59786015D01*
X150397606Y-59717895D01*
X150594022Y-59617815D01*
X150772365Y-59488242D01*
X150928242Y-59332365D01*
X151057815Y-59154022D01*
X151157895Y-58957606D01*
X151226015Y-58747951D01*
X151260500Y-58530222D01*
X151260500Y-58309778D01*
X151226015Y-58092049D01*
X151171337Y-57923764D01*
X151157896Y-57882396D01*
X151157895Y-57882393D01*
X151123237Y-57814375D01*
X151057815Y-57685978D01*
X150999501Y-57605715D01*
X150952986Y-57541691D01*
X150928247Y-57507641D01*
X150928243Y-57507636D01*
X150892742Y-57472135D01*
X156079500Y-57472135D01*
X156079500Y-59367870D01*
X156079501Y-59367876D01*
X156085908Y-59427483D01*
X156136202Y-59562328D01*
X156136206Y-59562335D01*
X156222452Y-59677544D01*
X156222455Y-59677547D01*
X156337664Y-59763793D01*
X156337671Y-59763797D01*
X156472517Y-59814091D01*
X156472516Y-59814091D01*
X156479444Y-59814835D01*
X156532127Y-59820500D01*
X158427872Y-59820499D01*
X158487483Y-59814091D01*
X158622331Y-59763796D01*
X158737546Y-59677546D01*
X158823796Y-59562331D01*
X158851429Y-59488243D01*
X158853601Y-59482420D01*
X158895471Y-59426486D01*
X158960936Y-59402068D01*
X159029209Y-59416919D01*
X159057464Y-59438071D01*
X159107636Y-59488243D01*
X159107641Y-59488247D01*
X159209603Y-59562326D01*
X159285978Y-59617815D01*
X159414375Y-59683237D01*
X159482393Y-59717895D01*
X159482396Y-59717896D01*
X159587221Y-59751955D01*
X159692049Y-59786015D01*
X159909778Y-59820500D01*
X159909779Y-59820500D01*
X160130221Y-59820500D01*
X160130222Y-59820500D01*
X160347951Y-59786015D01*
X160557606Y-59717895D01*
X160754022Y-59617815D01*
X160932365Y-59488242D01*
X161088242Y-59332365D01*
X161217815Y-59154022D01*
X161317895Y-58957606D01*
X161386015Y-58747951D01*
X161420500Y-58530222D01*
X161420500Y-58309778D01*
X161386015Y-58092049D01*
X161331337Y-57923764D01*
X161317896Y-57882396D01*
X161317895Y-57882393D01*
X161283237Y-57814375D01*
X161217815Y-57685978D01*
X161112985Y-57541691D01*
X161088247Y-57507641D01*
X161088243Y-57507636D01*
X160932363Y-57351756D01*
X160932358Y-57351752D01*
X160754025Y-57222187D01*
X160754024Y-57222186D01*
X160754022Y-57222185D01*
X160636791Y-57162452D01*
X160557606Y-57122104D01*
X160557603Y-57122103D01*
X160347952Y-57053985D01*
X160239086Y-57036742D01*
X160130222Y-57019500D01*
X159909778Y-57019500D01*
X159837201Y-57030995D01*
X159692047Y-57053985D01*
X159482396Y-57122103D01*
X159482393Y-57122104D01*
X159285974Y-57222187D01*
X159107641Y-57351752D01*
X159107636Y-57351756D01*
X159057463Y-57401929D01*
X158996140Y-57435413D01*
X158926448Y-57430428D01*
X158870515Y-57388557D01*
X158853601Y-57357580D01*
X158823797Y-57277671D01*
X158823793Y-57277664D01*
X158737547Y-57162455D01*
X158737544Y-57162452D01*
X158622335Y-57076206D01*
X158622328Y-57076202D01*
X158487482Y-57025908D01*
X158487483Y-57025908D01*
X158427883Y-57019501D01*
X158427881Y-57019500D01*
X158427873Y-57019500D01*
X158427864Y-57019500D01*
X156532129Y-57019500D01*
X156532123Y-57019501D01*
X156472516Y-57025908D01*
X156337671Y-57076202D01*
X156337664Y-57076206D01*
X156222455Y-57162452D01*
X156222452Y-57162455D01*
X156136206Y-57277664D01*
X156136202Y-57277671D01*
X156085908Y-57412517D01*
X156079501Y-57472116D01*
X156079500Y-57472135D01*
X150892742Y-57472135D01*
X150772363Y-57351756D01*
X150772358Y-57351752D01*
X150594025Y-57222187D01*
X150594024Y-57222186D01*
X150594022Y-57222185D01*
X150476791Y-57162452D01*
X150397606Y-57122104D01*
X150397603Y-57122103D01*
X150187952Y-57053985D01*
X150079086Y-57036742D01*
X149970222Y-57019500D01*
X149749778Y-57019500D01*
X149677201Y-57030995D01*
X149532047Y-57053985D01*
X149322396Y-57122103D01*
X149322393Y-57122104D01*
X149125974Y-57222187D01*
X148947641Y-57351752D01*
X148947636Y-57351756D01*
X148897463Y-57401929D01*
X148836140Y-57435413D01*
X148766448Y-57430428D01*
X148710515Y-57388557D01*
X148693601Y-57357580D01*
X148663797Y-57277671D01*
X148663793Y-57277664D01*
X148577547Y-57162455D01*
X148577544Y-57162452D01*
X148462335Y-57076206D01*
X148462328Y-57076202D01*
X148327482Y-57025908D01*
X148327483Y-57025908D01*
X148267883Y-57019501D01*
X148267881Y-57019500D01*
X148267873Y-57019500D01*
X148267864Y-57019500D01*
X146372129Y-57019500D01*
X146372123Y-57019501D01*
X146312516Y-57025908D01*
X146177671Y-57076202D01*
X146177664Y-57076206D01*
X146062455Y-57162452D01*
X146062452Y-57162455D01*
X145976206Y-57277664D01*
X145976202Y-57277671D01*
X145925908Y-57412517D01*
X145919501Y-57472116D01*
X145919500Y-57472135D01*
X145919500Y-59367870D01*
X145919501Y-59367876D01*
X145925908Y-59427483D01*
X145976202Y-59562328D01*
X145976206Y-59562335D01*
X146062452Y-59677544D01*
X146062455Y-59677547D01*
X146177664Y-59763793D01*
X146177671Y-59763797D01*
X146210046Y-59775872D01*
X146312517Y-59814091D01*
X146372127Y-59820500D01*
X146595500Y-59820499D01*
X146662539Y-59840183D01*
X146708294Y-59892987D01*
X146719500Y-59944499D01*
X146719500Y-69986503D01*
X146710855Y-70015940D01*
X146704332Y-70045931D01*
X146700576Y-70050947D01*
X146699815Y-70053542D01*
X146683185Y-70074179D01*
X146629701Y-70127664D01*
X146614239Y-70143126D01*
X146552915Y-70176610D01*
X146550750Y-70177061D01*
X146395408Y-70207961D01*
X146395398Y-70207964D01*
X146249727Y-70268302D01*
X146249714Y-70268309D01*
X146118611Y-70355910D01*
X146118607Y-70355913D01*
X146007113Y-70467407D01*
X146007110Y-70467411D01*
X145919509Y-70598514D01*
X145919502Y-70598527D01*
X145859164Y-70744198D01*
X145859161Y-70744210D01*
X145828400Y-70898853D01*
X138500300Y-70898853D01*
X138500300Y-59273265D01*
X138519985Y-59206226D01*
X138521198Y-59204374D01*
X138609190Y-59072685D01*
X138609190Y-59072684D01*
X138609194Y-59072679D01*
X138669537Y-58926997D01*
X138700300Y-58772342D01*
X138700300Y-58614658D01*
X138700300Y-58614655D01*
X138700299Y-58614653D01*
X138696628Y-58596200D01*
X138669537Y-58460003D01*
X138669535Y-58459998D01*
X138609197Y-58314327D01*
X138609190Y-58314314D01*
X138521589Y-58183211D01*
X138521586Y-58183207D01*
X138410092Y-58071713D01*
X138410088Y-58071710D01*
X138278985Y-57984109D01*
X138278972Y-57984102D01*
X138133301Y-57923764D01*
X138133289Y-57923761D01*
X137978645Y-57893000D01*
X137978642Y-57893000D01*
X137820958Y-57893000D01*
X137820955Y-57893000D01*
X137666310Y-57923761D01*
X137666298Y-57923764D01*
X137520627Y-57984102D01*
X137520614Y-57984109D01*
X137389511Y-58071710D01*
X137389507Y-58071713D01*
X137278013Y-58183207D01*
X137278010Y-58183211D01*
X137190409Y-58314314D01*
X137190402Y-58314327D01*
X137130064Y-58459998D01*
X137130061Y-58460010D01*
X137099300Y-58614653D01*
X137099300Y-58772346D01*
X137130061Y-58926989D01*
X137130064Y-58927001D01*
X137190402Y-59072672D01*
X137190409Y-59072685D01*
X137278402Y-59204374D01*
X137299280Y-59271051D01*
X137299300Y-59273265D01*
X137299300Y-74313130D01*
X137299299Y-74313148D01*
X137299299Y-74478854D01*
X137299298Y-74478854D01*
X137299299Y-74478857D01*
X137312824Y-74529334D01*
X137340224Y-74631587D01*
X137351989Y-74651964D01*
X137351990Y-74651966D01*
X137419277Y-74768512D01*
X137419281Y-74768517D01*
X137538149Y-74887385D01*
X137538155Y-74887390D01*
X138405922Y-75755157D01*
X138439407Y-75816480D01*
X138436173Y-75881155D01*
X138431522Y-75895468D01*
X138399500Y-76097648D01*
X138399500Y-76302351D01*
X138431522Y-76504534D01*
X138494781Y-76699223D01*
X138587715Y-76881613D01*
X138708028Y-77047213D01*
X138852786Y-77191971D01*
X139007278Y-77304214D01*
X139018390Y-77312287D01*
X139109840Y-77358883D01*
X139111080Y-77359515D01*
X139161876Y-77407490D01*
X139178671Y-77475311D01*
X139156134Y-77541446D01*
X139111080Y-77580485D01*
X139018386Y-77627715D01*
X138852786Y-77748028D01*
X138708028Y-77892786D01*
X138587715Y-78058386D01*
X138494781Y-78240776D01*
X138431522Y-78435465D01*
X138399500Y-78637648D01*
X138399500Y-78842351D01*
X138431522Y-79044534D01*
X138494781Y-79239223D01*
X138558691Y-79364653D01*
X138572067Y-79390904D01*
X138587715Y-79421613D01*
X138708028Y-79587213D01*
X138852786Y-79731971D01*
X139007749Y-79844556D01*
X139018390Y-79852287D01*
X139109840Y-79898883D01*
X139111080Y-79899515D01*
X139161876Y-79947490D01*
X139178671Y-80015311D01*
X139156134Y-80081446D01*
X139111080Y-80120485D01*
X139018386Y-80167715D01*
X138852786Y-80288028D01*
X138708028Y-80432786D01*
X138587715Y-80598386D01*
X138494781Y-80780776D01*
X138431522Y-80975465D01*
X138399500Y-81177648D01*
X138399500Y-81370903D01*
X138379815Y-81437942D01*
X138327011Y-81483697D01*
X138257853Y-81493641D01*
X138194297Y-81464616D01*
X138187819Y-81458584D01*
X135625819Y-78896584D01*
X135592334Y-78835261D01*
X135589500Y-78808903D01*
X135589500Y-59274365D01*
X135609185Y-59207326D01*
X135610398Y-59205474D01*
X135698390Y-59073785D01*
X135698390Y-59073784D01*
X135698394Y-59073779D01*
X135758737Y-58928097D01*
X135789500Y-58773442D01*
X135789500Y-58615758D01*
X135789500Y-58615755D01*
X135789499Y-58615753D01*
X135785610Y-58596200D01*
X135758737Y-58461103D01*
X135758279Y-58459998D01*
X135698397Y-58315427D01*
X135698390Y-58315414D01*
X135610789Y-58184311D01*
X135610786Y-58184307D01*
X135499292Y-58072813D01*
X135499288Y-58072810D01*
X135368185Y-57985209D01*
X135368172Y-57985202D01*
X135222501Y-57924864D01*
X135222489Y-57924861D01*
X135067845Y-57894100D01*
X135067842Y-57894100D01*
X134910158Y-57894100D01*
X134910155Y-57894100D01*
X134755510Y-57924861D01*
X134755498Y-57924864D01*
X134609827Y-57985202D01*
X134609814Y-57985209D01*
X134478711Y-58072810D01*
X134478707Y-58072813D01*
X134367213Y-58184307D01*
X134367210Y-58184311D01*
X134279609Y-58315414D01*
X134279602Y-58315427D01*
X134219264Y-58461098D01*
X134219261Y-58461110D01*
X134188500Y-58615753D01*
X134188500Y-58773446D01*
X134219261Y-58928089D01*
X134219264Y-58928101D01*
X134279602Y-59073772D01*
X134279609Y-59073785D01*
X134367602Y-59205474D01*
X134388480Y-59272151D01*
X134388500Y-59274365D01*
X134388500Y-79022330D01*
X134388499Y-79022348D01*
X134388499Y-79188054D01*
X134388498Y-79188054D01*
X134429423Y-79340785D01*
X134458358Y-79390900D01*
X134458359Y-79390904D01*
X134458360Y-79390904D01*
X134508479Y-79477714D01*
X134508481Y-79477717D01*
X134627349Y-79596585D01*
X134627355Y-79596590D01*
X138405922Y-83375157D01*
X138439407Y-83436480D01*
X138436173Y-83501155D01*
X138431522Y-83515468D01*
X138399500Y-83717648D01*
X138399500Y-83922351D01*
X138431522Y-84124534D01*
X138436173Y-84138848D01*
X138438165Y-84208690D01*
X138405921Y-84264842D01*
X133183797Y-89486966D01*
X133183769Y-89486994D01*
X133182986Y-89487778D01*
X133182984Y-89487780D01*
X133071180Y-89599584D01*
X133065288Y-89609788D01*
X133054734Y-89620727D01*
X133037044Y-89630800D01*
X133022312Y-89644846D01*
X133007301Y-89647737D01*
X132994019Y-89655302D01*
X132973692Y-89654212D01*
X132953704Y-89658064D01*
X132939513Y-89652381D01*
X132924249Y-89651564D01*
X132907737Y-89639657D01*
X132888841Y-89632091D01*
X132879974Y-89619637D01*
X132867577Y-89610698D01*
X132860124Y-89591757D01*
X132848317Y-89575174D01*
X132844376Y-89551736D01*
X132841994Y-89545681D01*
X132842733Y-89541962D01*
X132841500Y-89534626D01*
X132841500Y-60318345D01*
X132841500Y-60318343D01*
X132800577Y-60165616D01*
X132800577Y-60165615D01*
X132751718Y-60080989D01*
X132721520Y-60028684D01*
X132609716Y-59916880D01*
X132605385Y-59912549D01*
X132605374Y-59912539D01*
X132137374Y-59444539D01*
X132103889Y-59383216D01*
X132103438Y-59381049D01*
X132085395Y-59290347D01*
X132072537Y-59225703D01*
X132064925Y-59207326D01*
X132012197Y-59080027D01*
X132012190Y-59080014D01*
X131924589Y-58948911D01*
X131924586Y-58948907D01*
X131813092Y-58837413D01*
X131813088Y-58837410D01*
X131681985Y-58749809D01*
X131681972Y-58749802D01*
X131536301Y-58689464D01*
X131536289Y-58689461D01*
X131381645Y-58658700D01*
X131381642Y-58658700D01*
X131223958Y-58658700D01*
X131223955Y-58658700D01*
X131069310Y-58689461D01*
X131069298Y-58689464D01*
X130923627Y-58749802D01*
X130923614Y-58749809D01*
X130792511Y-58837410D01*
X130792507Y-58837413D01*
X130681013Y-58948907D01*
X130681010Y-58948911D01*
X130593409Y-59080014D01*
X130593402Y-59080027D01*
X130533064Y-59225698D01*
X130533061Y-59225710D01*
X130502300Y-59380353D01*
X130502300Y-59538046D01*
X130533061Y-59692689D01*
X130533064Y-59692701D01*
X130593402Y-59838372D01*
X130593409Y-59838385D01*
X130681010Y-59969488D01*
X130681013Y-59969492D01*
X130792507Y-60080986D01*
X130792511Y-60080989D01*
X130923614Y-60168590D01*
X130923627Y-60168597D01*
X131069298Y-60228935D01*
X131069303Y-60228937D01*
X131133947Y-60241795D01*
X131224649Y-60259838D01*
X131286560Y-60292223D01*
X131288139Y-60293774D01*
X131604181Y-60609816D01*
X131637666Y-60671139D01*
X131640500Y-60697497D01*
X131640500Y-104466534D01*
X131620815Y-104533573D01*
X131619602Y-104535425D01*
X131531609Y-104667114D01*
X131531602Y-104667127D01*
X131471264Y-104812798D01*
X131471261Y-104812808D01*
X131448626Y-104926603D01*
X131416241Y-104988514D01*
X131355525Y-105023088D01*
X131285756Y-105019348D01*
X131239328Y-104990092D01*
X125754077Y-99504842D01*
X125720592Y-99443519D01*
X125723828Y-99378841D01*
X125724573Y-99376548D01*
X125728477Y-99364534D01*
X125760500Y-99162352D01*
X125760500Y-98957648D01*
X125728477Y-98755466D01*
X125665220Y-98560781D01*
X125665218Y-98560778D01*
X125665218Y-98560776D01*
X125616439Y-98465043D01*
X125572287Y-98378390D01*
X125541700Y-98336290D01*
X125451971Y-98212786D01*
X125405241Y-98166056D01*
X125371756Y-98104733D01*
X125376740Y-98035041D01*
X125405241Y-97990694D01*
X125895561Y-97500374D01*
X126495920Y-96900016D01*
X126574977Y-96763084D01*
X126615901Y-96610357D01*
X126615901Y-96452242D01*
X126615901Y-96444647D01*
X126615900Y-96444629D01*
X126615900Y-82924460D01*
X126615901Y-82924447D01*
X126615901Y-82756344D01*
X126590215Y-82660485D01*
X126574977Y-82603616D01*
X126561142Y-82579653D01*
X126495924Y-82466690D01*
X126495918Y-82466682D01*
X125754077Y-81724841D01*
X125720592Y-81663518D01*
X125723827Y-81598842D01*
X125728477Y-81584534D01*
X125760500Y-81382352D01*
X125760500Y-81177648D01*
X125728477Y-80975466D01*
X125723825Y-80961151D01*
X125721832Y-80891312D01*
X125754075Y-80835158D01*
X129163006Y-77426228D01*
X129163011Y-77426224D01*
X129173214Y-77416020D01*
X129173216Y-77416020D01*
X129285020Y-77304216D01*
X129349827Y-77191966D01*
X129364077Y-77167285D01*
X129405001Y-77014557D01*
X129405001Y-76856443D01*
X129405001Y-76848848D01*
X129405000Y-76848830D01*
X129405000Y-59976465D01*
X129424685Y-59909426D01*
X129425898Y-59907574D01*
X129484081Y-59820498D01*
X129513894Y-59775879D01*
X129518899Y-59763797D01*
X129537911Y-59717896D01*
X129574237Y-59630197D01*
X129605000Y-59475542D01*
X129605000Y-59317858D01*
X129605000Y-59317855D01*
X129604999Y-59317853D01*
X129588376Y-59234286D01*
X129574237Y-59163203D01*
X129570434Y-59154022D01*
X129513897Y-59017527D01*
X129513890Y-59017514D01*
X129426289Y-58886411D01*
X129426286Y-58886407D01*
X129314792Y-58774913D01*
X129314788Y-58774910D01*
X129183685Y-58687309D01*
X129183672Y-58687302D01*
X129038001Y-58626964D01*
X129037989Y-58626961D01*
X128883345Y-58596200D01*
X128883342Y-58596200D01*
X128725658Y-58596200D01*
X128725655Y-58596200D01*
X128571010Y-58626961D01*
X128570998Y-58626964D01*
X128425327Y-58687302D01*
X128425314Y-58687309D01*
X128294211Y-58774910D01*
X128294207Y-58774913D01*
X128182713Y-58886407D01*
X128182710Y-58886411D01*
X128095109Y-59017514D01*
X128095102Y-59017527D01*
X128034764Y-59163198D01*
X128034761Y-59163210D01*
X128004000Y-59317853D01*
X128004000Y-59475546D01*
X128034761Y-59630189D01*
X128034764Y-59630201D01*
X128095102Y-59775872D01*
X128095109Y-59775885D01*
X128183102Y-59907574D01*
X128203980Y-59974251D01*
X128204000Y-59976465D01*
X128204000Y-76635402D01*
X128184315Y-76702441D01*
X128167681Y-76723083D01*
X125972181Y-78918583D01*
X125910858Y-78952068D01*
X125841166Y-78947084D01*
X125785233Y-78905212D01*
X125760816Y-78839748D01*
X125760500Y-78830902D01*
X125760500Y-78637648D01*
X125728477Y-78435465D01*
X125665218Y-78240776D01*
X125613865Y-78139991D01*
X125572287Y-78058390D01*
X125556892Y-78037200D01*
X125451971Y-77892786D01*
X125307213Y-77748028D01*
X125141614Y-77627715D01*
X125135006Y-77624348D01*
X125048917Y-77580483D01*
X124998123Y-77532511D01*
X124981328Y-77464690D01*
X125003865Y-77398555D01*
X125048917Y-77359516D01*
X125141610Y-77312287D01*
X125162770Y-77296913D01*
X125307213Y-77191971D01*
X125307215Y-77191968D01*
X125307219Y-77191966D01*
X125451966Y-77047219D01*
X125451968Y-77047215D01*
X125451971Y-77047213D01*
X125530893Y-76938584D01*
X125572287Y-76881610D01*
X125665220Y-76699219D01*
X125728477Y-76504534D01*
X125760500Y-76302352D01*
X125760500Y-76097648D01*
X125728477Y-75895466D01*
X125665220Y-75700781D01*
X125665218Y-75700778D01*
X125665218Y-75700776D01*
X125613865Y-75599991D01*
X125572287Y-75518390D01*
X125556892Y-75497200D01*
X125451971Y-75352786D01*
X125307219Y-75208034D01*
X125270480Y-75181342D01*
X125213547Y-75139978D01*
X125170882Y-75084649D01*
X125164903Y-75015036D01*
X125197508Y-74953240D01*
X125247426Y-74921955D01*
X125329334Y-74894814D01*
X125478656Y-74802712D01*
X125602712Y-74678656D01*
X125694814Y-74529334D01*
X125749999Y-74362797D01*
X125760500Y-74260009D01*
X125760499Y-73059992D01*
X125749999Y-72957203D01*
X125694814Y-72790666D01*
X125602712Y-72641344D01*
X125478656Y-72517288D01*
X125329334Y-72425186D01*
X125162797Y-72370001D01*
X125162795Y-72370000D01*
X125060010Y-72359500D01*
X123859998Y-72359500D01*
X123859981Y-72359501D01*
X123757203Y-72370000D01*
X123757200Y-72370001D01*
X123590668Y-72425185D01*
X123590663Y-72425187D01*
X123441342Y-72517289D01*
X123317289Y-72641342D01*
X123225187Y-72790663D01*
X123225185Y-72790668D01*
X123217858Y-72812781D01*
X123170001Y-72957203D01*
X123170001Y-72957204D01*
X123170000Y-72957204D01*
X123159500Y-73059983D01*
X123159500Y-74260001D01*
X123159501Y-74260018D01*
X123170000Y-74362796D01*
X123170001Y-74362799D01*
X123217856Y-74507213D01*
X123225186Y-74529334D01*
X123317288Y-74678656D01*
X123441344Y-74802712D01*
X123590666Y-74894814D01*
X123672570Y-74921954D01*
X123730015Y-74961727D01*
X123756838Y-75026243D01*
X123744523Y-75095018D01*
X123706451Y-75139978D01*
X123612787Y-75208028D01*
X123612782Y-75208032D01*
X123468028Y-75352786D01*
X123347715Y-75518386D01*
X123254781Y-75700776D01*
X123191522Y-75895465D01*
X123159500Y-76097648D01*
X123159500Y-76302351D01*
X123191522Y-76504534D01*
X123254781Y-76699223D01*
X123347715Y-76881613D01*
X123468028Y-77047213D01*
X123612786Y-77191971D01*
X123767278Y-77304214D01*
X123778390Y-77312287D01*
X123869840Y-77358883D01*
X123871080Y-77359515D01*
X123921876Y-77407490D01*
X123938671Y-77475311D01*
X123916134Y-77541446D01*
X123871080Y-77580485D01*
X123778386Y-77627715D01*
X123612786Y-77748028D01*
X123468028Y-77892786D01*
X123347715Y-78058386D01*
X123254781Y-78240776D01*
X123191522Y-78435465D01*
X123159500Y-78637648D01*
X123159500Y-78842351D01*
X123191522Y-79044534D01*
X123254781Y-79239223D01*
X123318691Y-79364653D01*
X123332067Y-79390904D01*
X123347715Y-79421613D01*
X123468028Y-79587213D01*
X123612786Y-79731971D01*
X123767749Y-79844556D01*
X123778390Y-79852287D01*
X123869840Y-79898883D01*
X123871080Y-79899515D01*
X123921876Y-79947490D01*
X123938671Y-80015311D01*
X123916134Y-80081446D01*
X123871080Y-80120485D01*
X123778386Y-80167715D01*
X123612786Y-80288028D01*
X123468028Y-80432786D01*
X123347715Y-80598386D01*
X123254781Y-80780776D01*
X123191522Y-80975465D01*
X123159500Y-81177648D01*
X123159500Y-81382351D01*
X123191522Y-81584534D01*
X123254781Y-81779223D01*
X123318691Y-81904653D01*
X123337031Y-81940646D01*
X123347715Y-81961613D01*
X123468028Y-82127213D01*
X123612786Y-82271971D01*
X123767749Y-82384556D01*
X123778390Y-82392287D01*
X123869840Y-82438883D01*
X123871080Y-82439515D01*
X123921876Y-82487490D01*
X123938671Y-82555311D01*
X123916134Y-82621446D01*
X123871080Y-82660485D01*
X123778386Y-82707715D01*
X123612786Y-82828028D01*
X123468028Y-82972786D01*
X123347715Y-83138386D01*
X123254781Y-83320776D01*
X123191522Y-83515465D01*
X123159500Y-83717648D01*
X123159500Y-83922351D01*
X123191522Y-84124534D01*
X123254781Y-84319223D01*
X123347715Y-84501613D01*
X123468028Y-84667213D01*
X123612786Y-84811971D01*
X123726120Y-84894311D01*
X123778390Y-84932287D01*
X123857199Y-84972442D01*
X123871080Y-84979515D01*
X123921876Y-85027490D01*
X123938671Y-85095311D01*
X123916134Y-85161446D01*
X123871080Y-85200485D01*
X123778386Y-85247715D01*
X123612786Y-85368028D01*
X123468028Y-85512786D01*
X123347715Y-85678386D01*
X123254781Y-85860776D01*
X123191522Y-86055465D01*
X123159500Y-86257648D01*
X123159500Y-86462351D01*
X123191522Y-86664534D01*
X123254781Y-86859223D01*
X123347715Y-87041613D01*
X123468028Y-87207213D01*
X123612786Y-87351971D01*
X123767749Y-87464556D01*
X123778390Y-87472287D01*
X123869840Y-87518883D01*
X123871080Y-87519515D01*
X123921876Y-87567490D01*
X123938671Y-87635311D01*
X123916134Y-87701446D01*
X123871080Y-87740485D01*
X123778386Y-87787715D01*
X123612786Y-87908028D01*
X123468028Y-88052786D01*
X123347715Y-88218386D01*
X123254781Y-88400776D01*
X123191522Y-88595465D01*
X123159500Y-88797648D01*
X123159500Y-89002351D01*
X123191522Y-89204534D01*
X123254781Y-89399223D01*
X123299489Y-89486966D01*
X123332491Y-89551736D01*
X123347715Y-89581613D01*
X123468028Y-89747213D01*
X123612786Y-89891971D01*
X123762871Y-90001012D01*
X123778390Y-90012287D01*
X123847219Y-90047357D01*
X123871080Y-90059515D01*
X123921876Y-90107490D01*
X123938671Y-90175311D01*
X123916134Y-90241446D01*
X123871080Y-90280485D01*
X123778386Y-90327715D01*
X123612786Y-90448028D01*
X123468028Y-90592786D01*
X123347715Y-90758386D01*
X123254781Y-90940776D01*
X123191522Y-91135465D01*
X123159500Y-91337648D01*
X123159500Y-91542351D01*
X123191522Y-91744534D01*
X123196173Y-91758848D01*
X123198165Y-91828690D01*
X123165921Y-91884842D01*
X110291086Y-104759678D01*
X110179281Y-104871482D01*
X110179279Y-104871484D01*
X110152281Y-104918247D01*
X110140870Y-104938013D01*
X110100223Y-105008415D01*
X110059299Y-105161143D01*
X110059299Y-105161145D01*
X110059299Y-105329246D01*
X110059300Y-105329259D01*
X110059300Y-120180102D01*
X110039615Y-120247141D01*
X110022981Y-120267783D01*
X104584842Y-125705921D01*
X104523519Y-125739406D01*
X104458848Y-125736173D01*
X104444534Y-125731522D01*
X104269995Y-125703878D01*
X104242352Y-125699500D01*
X104037648Y-125699500D01*
X104013329Y-125703351D01*
X103835465Y-125731522D01*
X103640776Y-125794781D01*
X103458386Y-125887715D01*
X103292786Y-126008028D01*
X103148028Y-126152786D01*
X103027715Y-126318386D01*
X102934781Y-126500776D01*
X102871522Y-126695465D01*
X102839500Y-126897648D01*
X96550500Y-126897648D01*
X96534740Y-126798144D01*
X96518477Y-126695465D01*
X96477574Y-126569581D01*
X96455220Y-126500781D01*
X96455218Y-126500778D01*
X96455218Y-126500776D01*
X96398667Y-126389790D01*
X96362287Y-126318390D01*
X96325228Y-126267382D01*
X96241971Y-126152786D01*
X96097213Y-126008028D01*
X95931613Y-125887715D01*
X95931612Y-125887714D01*
X95931610Y-125887713D01*
X95874653Y-125858691D01*
X95749223Y-125794781D01*
X95554534Y-125731522D01*
X95379995Y-125703878D01*
X95352352Y-125699500D01*
X95147648Y-125699500D01*
X95123329Y-125703351D01*
X94945465Y-125731522D01*
X94750776Y-125794781D01*
X94568386Y-125887715D01*
X94402786Y-126008028D01*
X94258028Y-126152786D01*
X94137715Y-126318386D01*
X94044781Y-126500776D01*
X93981522Y-126695465D01*
X93949500Y-126897648D01*
X87580500Y-126897648D01*
X87580500Y-101497648D01*
X93890200Y-101497648D01*
X93890200Y-101702352D01*
X93892507Y-101716916D01*
X93922222Y-101904534D01*
X93985481Y-102099223D01*
X94078415Y-102281613D01*
X94198728Y-102447213D01*
X94343486Y-102591971D01*
X94457047Y-102674476D01*
X94509090Y-102712287D01*
X94590199Y-102753614D01*
X94691476Y-102805218D01*
X94691478Y-102805218D01*
X94691481Y-102805220D01*
X94766518Y-102829601D01*
X94886165Y-102868477D01*
X94905397Y-102871523D01*
X95088348Y-102900500D01*
X95088349Y-102900500D01*
X95293051Y-102900500D01*
X95293052Y-102900500D01*
X95495234Y-102868477D01*
X95689919Y-102805220D01*
X95872310Y-102712287D01*
X95965290Y-102644732D01*
X96037913Y-102591971D01*
X96037915Y-102591968D01*
X96037919Y-102591966D01*
X96182666Y-102447219D01*
X96182668Y-102447215D01*
X96182671Y-102447213D01*
X96250640Y-102353660D01*
X96302987Y-102281610D01*
X96395920Y-102099219D01*
X96459177Y-101904534D01*
X96491200Y-101702352D01*
X96491200Y-101497648D01*
X96479126Y-101421416D01*
X96459177Y-101295465D01*
X96428531Y-101201146D01*
X96395920Y-101100781D01*
X96395918Y-101100778D01*
X96395918Y-101100776D01*
X96337035Y-100985213D01*
X96302987Y-100918390D01*
X96275323Y-100880313D01*
X96182671Y-100752786D01*
X96037913Y-100608028D01*
X95872313Y-100487715D01*
X95872312Y-100487714D01*
X95872310Y-100487713D01*
X95815353Y-100458691D01*
X95689923Y-100394781D01*
X95495234Y-100331522D01*
X95320695Y-100303878D01*
X95293052Y-100299500D01*
X95088348Y-100299500D01*
X95064029Y-100303351D01*
X94886165Y-100331522D01*
X94691476Y-100394781D01*
X94509086Y-100487715D01*
X94343486Y-100608028D01*
X94198728Y-100752786D01*
X94078415Y-100918386D01*
X93985481Y-101100776D01*
X93922222Y-101295465D01*
X93891259Y-101490964D01*
X93890200Y-101497648D01*
X87580500Y-101497648D01*
X87580500Y-91337648D01*
X94009500Y-91337648D01*
X94009500Y-91542351D01*
X94041522Y-91744534D01*
X94104781Y-91939223D01*
X94197715Y-92121613D01*
X94318028Y-92287213D01*
X94462786Y-92431971D01*
X94599162Y-92531052D01*
X94628390Y-92552287D01*
X94744607Y-92611503D01*
X94810776Y-92645218D01*
X94810778Y-92645218D01*
X94810781Y-92645220D01*
X94907562Y-92676666D01*
X95005465Y-92708477D01*
X95024697Y-92711523D01*
X95207648Y-92740500D01*
X95207649Y-92740500D01*
X95412351Y-92740500D01*
X95412352Y-92740500D01*
X95614534Y-92708477D01*
X95809219Y-92645220D01*
X95991610Y-92552287D01*
X96113110Y-92464013D01*
X96157213Y-92431971D01*
X96157215Y-92431968D01*
X96157219Y-92431966D01*
X96301966Y-92287219D01*
X96301968Y-92287215D01*
X96301971Y-92287213D01*
X96355800Y-92213122D01*
X96422287Y-92121610D01*
X96515220Y-91939219D01*
X96578477Y-91744534D01*
X96610500Y-91542352D01*
X96610500Y-91337648D01*
X96603829Y-91295531D01*
X96578477Y-91135465D01*
X96515218Y-90940776D01*
X96481503Y-90874607D01*
X96422287Y-90758390D01*
X96391700Y-90716290D01*
X96301971Y-90592786D01*
X96157213Y-90448028D01*
X95991613Y-90327715D01*
X95991612Y-90327714D01*
X95991610Y-90327713D01*
X95934653Y-90298691D01*
X95809223Y-90234781D01*
X95614534Y-90171522D01*
X95417693Y-90140346D01*
X95412352Y-90139500D01*
X95207648Y-90139500D01*
X95202307Y-90140346D01*
X95005465Y-90171522D01*
X94810776Y-90234781D01*
X94628386Y-90327715D01*
X94462786Y-90448028D01*
X94318028Y-90592786D01*
X94197715Y-90758386D01*
X94104781Y-90940776D01*
X94041522Y-91135465D01*
X94009500Y-91337648D01*
X87580500Y-91337648D01*
X87580500Y-76097648D01*
X93049500Y-76097648D01*
X93049500Y-76302351D01*
X93081522Y-76504534D01*
X93144781Y-76699223D01*
X93237715Y-76881613D01*
X93358028Y-77047213D01*
X93502786Y-77191971D01*
X93657278Y-77304214D01*
X93668390Y-77312287D01*
X93761080Y-77359515D01*
X93850776Y-77405218D01*
X93850778Y-77405218D01*
X93850781Y-77405220D01*
X93941856Y-77434812D01*
X94045465Y-77468477D01*
X94064697Y-77471523D01*
X94247648Y-77500500D01*
X94247649Y-77500500D01*
X94452351Y-77500500D01*
X94452352Y-77500500D01*
X94654534Y-77468477D01*
X94668842Y-77463827D01*
X94738682Y-77461831D01*
X94794842Y-77494077D01*
X102173181Y-84872416D01*
X102206666Y-84933739D01*
X102209500Y-84960097D01*
X102209500Y-90210397D01*
X102189815Y-90277436D01*
X102141800Y-90320879D01*
X102128393Y-90327710D01*
X101961085Y-90449266D01*
X101895278Y-90472745D01*
X101827224Y-90456919D01*
X101778530Y-90406813D01*
X101764200Y-90348947D01*
X101764200Y-86550665D01*
X101783885Y-86483626D01*
X101785098Y-86481774D01*
X101800305Y-86459016D01*
X101873094Y-86350079D01*
X101933437Y-86204397D01*
X101946789Y-86137267D01*
X101961500Y-86063319D01*
X101961500Y-86063315D01*
X101964200Y-86049742D01*
X101964200Y-85892058D01*
X101961500Y-85878484D01*
X101961500Y-85878481D01*
X101933438Y-85737408D01*
X101933437Y-85737407D01*
X101933437Y-85737403D01*
X101908992Y-85678386D01*
X101873097Y-85591727D01*
X101873090Y-85591714D01*
X101785489Y-85460611D01*
X101785486Y-85460607D01*
X101673992Y-85349113D01*
X101673988Y-85349110D01*
X101542885Y-85261509D01*
X101542872Y-85261502D01*
X101397201Y-85201164D01*
X101397189Y-85201161D01*
X101242545Y-85170400D01*
X101242542Y-85170400D01*
X101084858Y-85170400D01*
X101084855Y-85170400D01*
X100930210Y-85201161D01*
X100930198Y-85201164D01*
X100784527Y-85261502D01*
X100784514Y-85261509D01*
X100653411Y-85349110D01*
X100653407Y-85349113D01*
X100541913Y-85460607D01*
X100541910Y-85460611D01*
X100454309Y-85591714D01*
X100454302Y-85591727D01*
X100393964Y-85737398D01*
X100393961Y-85737410D01*
X100363200Y-85892053D01*
X100363200Y-86049746D01*
X100393961Y-86204389D01*
X100393964Y-86204401D01*
X100454302Y-86350072D01*
X100454309Y-86350085D01*
X100542302Y-86481774D01*
X100563180Y-86548451D01*
X100563200Y-86550665D01*
X100563200Y-113166202D01*
X100543515Y-113233241D01*
X100526881Y-113253883D01*
X95694842Y-118085921D01*
X95633519Y-118119406D01*
X95568848Y-118116173D01*
X95554534Y-118111522D01*
X95379995Y-118083878D01*
X95352352Y-118079500D01*
X95147648Y-118079500D01*
X95123329Y-118083351D01*
X94945465Y-118111522D01*
X94750776Y-118174781D01*
X94568386Y-118267715D01*
X94402786Y-118388028D01*
X94258028Y-118532786D01*
X94137715Y-118698386D01*
X94044781Y-118880776D01*
X93981522Y-119075465D01*
X93949500Y-119277648D01*
X93949500Y-119482351D01*
X93981522Y-119684534D01*
X94044781Y-119879223D01*
X94137715Y-120061613D01*
X94258028Y-120227213D01*
X94402786Y-120371971D01*
X94557749Y-120484556D01*
X94568390Y-120492287D01*
X94684607Y-120551503D01*
X94750776Y-120585218D01*
X94750778Y-120585218D01*
X94750781Y-120585220D01*
X94855137Y-120619127D01*
X94945465Y-120648477D01*
X95046557Y-120664488D01*
X95147648Y-120680500D01*
X95147649Y-120680500D01*
X95352351Y-120680500D01*
X95352352Y-120680500D01*
X95554534Y-120648477D01*
X95749219Y-120585220D01*
X95931610Y-120492287D01*
X96024590Y-120424732D01*
X96097213Y-120371971D01*
X96097215Y-120371968D01*
X96097219Y-120371966D01*
X96241966Y-120227219D01*
X96241968Y-120227215D01*
X96241971Y-120227213D01*
X96294732Y-120154590D01*
X96362287Y-120061610D01*
X96455220Y-119879219D01*
X96518477Y-119684534D01*
X96550500Y-119482352D01*
X96550500Y-119277648D01*
X96518477Y-119075466D01*
X96513825Y-119061151D01*
X96511832Y-118991312D01*
X96544075Y-118935158D01*
X101644220Y-113835016D01*
X101723277Y-113698084D01*
X101764201Y-113545357D01*
X101764201Y-113387242D01*
X101764201Y-113379647D01*
X101764200Y-113379629D01*
X101764200Y-102777727D01*
X101767025Y-102768104D01*
X101765754Y-102758157D01*
X101776705Y-102735139D01*
X101783885Y-102710688D01*
X101791462Y-102704122D01*
X101795772Y-102695064D01*
X101817430Y-102681620D01*
X101836689Y-102664933D01*
X101846615Y-102663505D01*
X101855136Y-102658217D01*
X101880619Y-102658616D01*
X101905847Y-102654989D01*
X101916830Y-102659183D01*
X101924997Y-102659312D01*
X101950027Y-102671863D01*
X101956867Y-102674476D01*
X101958996Y-102675892D01*
X102009090Y-102712287D01*
X102028893Y-102722376D01*
X102034867Y-102726350D01*
X102052898Y-102747830D01*
X102073289Y-102767088D01*
X102075298Y-102774516D01*
X102079788Y-102779865D01*
X102082512Y-102801184D01*
X102090200Y-102829601D01*
X102090200Y-117844030D01*
X102090199Y-117844048D01*
X102090199Y-118009754D01*
X102090198Y-118009754D01*
X102090199Y-118009757D01*
X102131123Y-118162485D01*
X102138218Y-118174774D01*
X102138220Y-118174782D01*
X102138223Y-118174781D01*
X102191878Y-118267715D01*
X102210179Y-118299414D01*
X102210181Y-118299417D01*
X102329049Y-118418285D01*
X102329055Y-118418290D01*
X102845921Y-118935157D01*
X102879406Y-118996480D01*
X102876173Y-119061149D01*
X102871523Y-119075460D01*
X102871523Y-119075462D01*
X102839500Y-119277648D01*
X102839500Y-119482351D01*
X102871522Y-119684534D01*
X102934781Y-119879223D01*
X103027715Y-120061613D01*
X103148028Y-120227213D01*
X103292786Y-120371971D01*
X103447749Y-120484556D01*
X103458390Y-120492287D01*
X103574607Y-120551503D01*
X103640776Y-120585218D01*
X103640778Y-120585218D01*
X103640781Y-120585220D01*
X103745137Y-120619127D01*
X103835465Y-120648477D01*
X103936557Y-120664488D01*
X104037648Y-120680500D01*
X104037649Y-120680500D01*
X104242351Y-120680500D01*
X104242352Y-120680500D01*
X104444534Y-120648477D01*
X104639219Y-120585220D01*
X104821610Y-120492287D01*
X104914590Y-120424732D01*
X104987213Y-120371971D01*
X104987215Y-120371968D01*
X104987219Y-120371966D01*
X105131966Y-120227219D01*
X105131968Y-120227215D01*
X105131971Y-120227213D01*
X105184732Y-120154590D01*
X105252287Y-120061610D01*
X105345220Y-119879219D01*
X105408477Y-119684534D01*
X105440500Y-119482352D01*
X105440500Y-119277648D01*
X105408477Y-119075466D01*
X105345220Y-118880781D01*
X105345218Y-118880778D01*
X105345218Y-118880776D01*
X105311503Y-118814607D01*
X105252287Y-118698390D01*
X105244556Y-118687749D01*
X105131971Y-118532786D01*
X104987213Y-118388028D01*
X104821613Y-118267715D01*
X104821612Y-118267714D01*
X104821610Y-118267713D01*
X104764653Y-118238691D01*
X104639223Y-118174781D01*
X104444534Y-118111522D01*
X104269995Y-118083878D01*
X104242352Y-118079500D01*
X104037648Y-118079500D01*
X103997211Y-118085904D01*
X103835462Y-118111523D01*
X103835460Y-118111523D01*
X103821149Y-118116173D01*
X103751308Y-118118164D01*
X103695157Y-118085921D01*
X103327519Y-117718283D01*
X103294034Y-117656960D01*
X103291200Y-117630602D01*
X103291200Y-106151668D01*
X103310885Y-106084629D01*
X103363689Y-106038874D01*
X103432847Y-106028930D01*
X103439378Y-106030048D01*
X103483746Y-106038874D01*
X103535656Y-106049200D01*
X103535658Y-106049200D01*
X103693344Y-106049200D01*
X103693345Y-106049199D01*
X103847997Y-106018437D01*
X103993679Y-105958094D01*
X104124789Y-105870489D01*
X104236289Y-105758989D01*
X104323894Y-105627879D01*
X104384237Y-105482197D01*
X104404497Y-105380346D01*
X104415138Y-105326850D01*
X104447523Y-105264939D01*
X104449019Y-105263415D01*
X106851806Y-102860627D01*
X106851811Y-102860624D01*
X106862014Y-102850420D01*
X106862016Y-102850420D01*
X106973820Y-102738616D01*
X107026641Y-102647127D01*
X107052877Y-102601685D01*
X107093801Y-102448957D01*
X107093801Y-102290843D01*
X107093801Y-102283248D01*
X107093800Y-102283230D01*
X107093800Y-67272359D01*
X107093801Y-67272346D01*
X107093801Y-67104245D01*
X107093801Y-67104243D01*
X107052877Y-66951515D01*
X107001786Y-66863023D01*
X106973820Y-66814584D01*
X106862016Y-66702780D01*
X106857685Y-66698449D01*
X106857674Y-66698439D01*
X104104077Y-63944842D01*
X104070592Y-63883519D01*
X104073828Y-63818841D01*
X104078477Y-63804534D01*
X104110500Y-63602352D01*
X104110500Y-63397648D01*
X104078477Y-63195466D01*
X104015220Y-63000781D01*
X104015218Y-63000778D01*
X104015218Y-63000776D01*
X103981503Y-62934607D01*
X103922287Y-62818390D01*
X103914556Y-62807749D01*
X103801971Y-62652786D01*
X103657213Y-62508028D01*
X103491613Y-62387715D01*
X103491612Y-62387714D01*
X103491610Y-62387713D01*
X103434653Y-62358691D01*
X103309223Y-62294781D01*
X103114534Y-62231522D01*
X102939995Y-62203878D01*
X102912352Y-62199500D01*
X102707648Y-62199500D01*
X102683329Y-62203351D01*
X102505465Y-62231522D01*
X102310776Y-62294781D01*
X102128386Y-62387715D01*
X101962786Y-62508028D01*
X101818028Y-62652786D01*
X101697715Y-62818386D01*
X101604781Y-63000776D01*
X101541522Y-63195465D01*
X101509500Y-63397648D01*
X101509500Y-63602351D01*
X101541522Y-63804534D01*
X101604781Y-63999223D01*
X101697715Y-64181613D01*
X101818028Y-64347213D01*
X101962786Y-64491971D01*
X102117749Y-64604556D01*
X102128390Y-64612287D01*
X102244607Y-64671503D01*
X102310776Y-64705218D01*
X102310778Y-64705218D01*
X102310781Y-64705220D01*
X102415137Y-64739127D01*
X102505465Y-64768477D01*
X102606557Y-64784488D01*
X102707648Y-64800500D01*
X102707649Y-64800500D01*
X102912351Y-64800500D01*
X102912352Y-64800500D01*
X103114534Y-64768477D01*
X103128842Y-64763827D01*
X103198682Y-64761831D01*
X103254842Y-64794077D01*
X105856481Y-67395716D01*
X105889966Y-67457039D01*
X105892800Y-67483397D01*
X105892800Y-78974203D01*
X105873115Y-79041242D01*
X105820311Y-79086997D01*
X105751153Y-79096941D01*
X105687597Y-79067916D01*
X105681119Y-79061884D01*
X103306818Y-76687583D01*
X103273333Y-76626260D01*
X103270499Y-76599902D01*
X103270499Y-75599998D01*
X103270498Y-75599981D01*
X103259999Y-75497203D01*
X103259998Y-75497200D01*
X103204814Y-75330666D01*
X103112712Y-75181344D01*
X102988656Y-75057288D01*
X102839334Y-74965186D01*
X102672797Y-74910001D01*
X102672795Y-74910000D01*
X102570010Y-74899500D01*
X101369998Y-74899500D01*
X101369981Y-74899501D01*
X101267203Y-74910000D01*
X101267200Y-74910001D01*
X101100668Y-74965185D01*
X101100663Y-74965187D01*
X100951342Y-75057289D01*
X100827289Y-75181342D01*
X100735187Y-75330663D01*
X100735186Y-75330666D01*
X100680001Y-75497203D01*
X100680001Y-75497204D01*
X100680000Y-75497204D01*
X100669500Y-75599983D01*
X100669500Y-76800001D01*
X100669501Y-76800018D01*
X100680000Y-76902796D01*
X100680001Y-76902799D01*
X100727856Y-77047213D01*
X100735186Y-77069334D01*
X100827288Y-77218656D01*
X100951344Y-77342712D01*
X101100666Y-77434814D01*
X101267203Y-77489999D01*
X101369991Y-77500500D01*
X102369902Y-77500499D01*
X102436941Y-77520183D01*
X102457583Y-77536818D01*
X105254681Y-80333916D01*
X105288166Y-80395239D01*
X105291000Y-80421597D01*
X105291000Y-90120434D01*
X105271315Y-90187473D01*
X105270102Y-90189325D01*
X105182109Y-90321014D01*
X105182102Y-90321027D01*
X105121764Y-90466698D01*
X105121761Y-90466710D01*
X105091000Y-90621353D01*
X105091000Y-90779046D01*
X105121761Y-90933689D01*
X105121764Y-90933701D01*
X105182102Y-91079372D01*
X105182109Y-91079385D01*
X105269710Y-91210488D01*
X105269713Y-91210492D01*
X105381207Y-91321986D01*
X105381211Y-91321989D01*
X105512314Y-91409590D01*
X105512327Y-91409597D01*
X105657998Y-91469935D01*
X105658003Y-91469937D01*
X105781660Y-91494534D01*
X105792991Y-91496788D01*
X105854902Y-91529173D01*
X105889476Y-91589888D01*
X105892800Y-91618405D01*
X105892800Y-102069803D01*
X105873115Y-102136842D01*
X105856481Y-102157484D01*
X103599839Y-104414125D01*
X103583243Y-104423187D01*
X103569634Y-104436319D01*
X103540136Y-104446725D01*
X103538516Y-104447610D01*
X103536350Y-104448061D01*
X103439392Y-104467348D01*
X103369801Y-104461121D01*
X103314623Y-104418259D01*
X103291378Y-104352369D01*
X103291200Y-104345731D01*
X103291200Y-102829601D01*
X103310885Y-102762562D01*
X103358906Y-102719116D01*
X103372310Y-102712287D01*
X103537919Y-102591966D01*
X103682666Y-102447219D01*
X103682668Y-102447215D01*
X103682671Y-102447213D01*
X103750640Y-102353660D01*
X103802987Y-102281610D01*
X103895920Y-102099219D01*
X103959177Y-101904534D01*
X103991200Y-101702352D01*
X103991200Y-101497648D01*
X103979126Y-101421416D01*
X103959177Y-101295465D01*
X103928531Y-101201146D01*
X103895920Y-101100781D01*
X103895918Y-101100778D01*
X103895918Y-101100776D01*
X103837035Y-100985213D01*
X103802987Y-100918390D01*
X103775323Y-100880313D01*
X103682671Y-100752786D01*
X103537913Y-100608028D01*
X103372313Y-100487715D01*
X103372312Y-100487714D01*
X103372310Y-100487713D01*
X103315353Y-100458691D01*
X103189923Y-100394781D01*
X102995234Y-100331522D01*
X102820695Y-100303878D01*
X102793052Y-100299500D01*
X102588348Y-100299500D01*
X102564029Y-100303351D01*
X102386165Y-100331522D01*
X102191476Y-100394781D01*
X102009087Y-100487714D01*
X101961084Y-100522590D01*
X101895277Y-100546069D01*
X101827224Y-100530243D01*
X101778530Y-100480136D01*
X101764200Y-100422271D01*
X101764200Y-92531052D01*
X101783885Y-92464013D01*
X101836689Y-92418258D01*
X101905847Y-92408314D01*
X101961085Y-92430734D01*
X101962781Y-92431966D01*
X102128390Y-92552287D01*
X102244607Y-92611503D01*
X102310776Y-92645218D01*
X102310778Y-92645218D01*
X102310781Y-92645220D01*
X102407562Y-92676666D01*
X102505465Y-92708477D01*
X102524697Y-92711523D01*
X102707648Y-92740500D01*
X102707649Y-92740500D01*
X102912351Y-92740500D01*
X102912352Y-92740500D01*
X103114534Y-92708477D01*
X103309219Y-92645220D01*
X103491610Y-92552287D01*
X103613110Y-92464013D01*
X103657213Y-92431971D01*
X103657215Y-92431968D01*
X103657219Y-92431966D01*
X103801966Y-92287219D01*
X103801968Y-92287215D01*
X103801971Y-92287213D01*
X103855800Y-92213122D01*
X103922287Y-92121610D01*
X104015220Y-91939219D01*
X104078477Y-91744534D01*
X104110500Y-91542352D01*
X104110500Y-91337648D01*
X104103829Y-91295531D01*
X104078477Y-91135465D01*
X104015218Y-90940776D01*
X103981503Y-90874607D01*
X103922287Y-90758390D01*
X103891700Y-90716290D01*
X103801971Y-90592786D01*
X103657213Y-90448028D01*
X103491610Y-90327712D01*
X103478200Y-90320879D01*
X103427406Y-90272903D01*
X103410500Y-90210397D01*
X103410500Y-84749060D01*
X103410501Y-84749047D01*
X103410501Y-84580944D01*
X103408028Y-84571715D01*
X103369577Y-84428216D01*
X103308820Y-84322980D01*
X103290524Y-84291290D01*
X103290518Y-84291282D01*
X95644077Y-76644842D01*
X95610592Y-76583519D01*
X95613828Y-76518841D01*
X95613829Y-76518838D01*
X95618477Y-76504534D01*
X95650500Y-76302352D01*
X95650500Y-76097648D01*
X95618477Y-75895466D01*
X95555220Y-75700781D01*
X95555218Y-75700778D01*
X95555218Y-75700776D01*
X95503865Y-75599991D01*
X95462287Y-75518390D01*
X95446892Y-75497200D01*
X95341971Y-75352786D01*
X95197213Y-75208028D01*
X95031613Y-75087715D01*
X95031612Y-75087714D01*
X95031610Y-75087713D01*
X94971898Y-75057288D01*
X94849223Y-74994781D01*
X94654534Y-74931522D01*
X94479995Y-74903878D01*
X94452352Y-74899500D01*
X94247648Y-74899500D01*
X94223329Y-74903351D01*
X94045465Y-74931522D01*
X93850776Y-74994781D01*
X93668386Y-75087715D01*
X93502786Y-75208028D01*
X93358028Y-75352786D01*
X93237715Y-75518386D01*
X93144781Y-75700776D01*
X93081522Y-75895465D01*
X93049500Y-76097648D01*
X87580500Y-76097648D01*
X87580500Y-63397648D01*
X94009500Y-63397648D01*
X94009500Y-63602351D01*
X94041522Y-63804534D01*
X94104781Y-63999223D01*
X94197715Y-64181613D01*
X94318028Y-64347213D01*
X94462786Y-64491971D01*
X94617749Y-64604556D01*
X94628390Y-64612287D01*
X94744607Y-64671503D01*
X94810776Y-64705218D01*
X94810778Y-64705218D01*
X94810781Y-64705220D01*
X94915137Y-64739127D01*
X95005465Y-64768477D01*
X95106557Y-64784488D01*
X95207648Y-64800500D01*
X95207649Y-64800500D01*
X95412351Y-64800500D01*
X95412352Y-64800500D01*
X95614534Y-64768477D01*
X95809219Y-64705220D01*
X95991610Y-64612287D01*
X96084590Y-64544732D01*
X96157213Y-64491971D01*
X96157215Y-64491968D01*
X96157219Y-64491966D01*
X96301966Y-64347219D01*
X96301968Y-64347215D01*
X96301971Y-64347213D01*
X96354732Y-64274590D01*
X96422287Y-64181610D01*
X96515220Y-63999219D01*
X96578477Y-63804534D01*
X96610500Y-63602352D01*
X96610500Y-63397648D01*
X96578477Y-63195466D01*
X96515220Y-63000781D01*
X96515218Y-63000778D01*
X96515218Y-63000776D01*
X96481503Y-62934607D01*
X96422287Y-62818390D01*
X96414556Y-62807749D01*
X96301971Y-62652786D01*
X96157213Y-62508028D01*
X95991613Y-62387715D01*
X95991612Y-62387714D01*
X95991610Y-62387713D01*
X95934653Y-62358691D01*
X95809223Y-62294781D01*
X95614534Y-62231522D01*
X95439995Y-62203878D01*
X95412352Y-62199500D01*
X95207648Y-62199500D01*
X95183329Y-62203351D01*
X95005465Y-62231522D01*
X94810776Y-62294781D01*
X94628386Y-62387715D01*
X94462786Y-62508028D01*
X94318028Y-62652786D01*
X94197715Y-62818386D01*
X94104781Y-63000776D01*
X94041522Y-63195465D01*
X94009500Y-63397648D01*
X87580500Y-63397648D01*
X87580500Y-56522706D01*
X87580618Y-56517297D01*
X87583377Y-56454108D01*
X87597386Y-56133226D01*
X87598326Y-56122495D01*
X87648152Y-55744025D01*
X87650025Y-55733405D01*
X87732649Y-55360709D01*
X87735440Y-55350295D01*
X87850230Y-54986227D01*
X87853917Y-54976095D01*
X88000003Y-54623412D01*
X88004561Y-54613638D01*
X88180822Y-54275045D01*
X88186217Y-54265700D01*
X88391325Y-53943744D01*
X88397515Y-53934905D01*
X88629896Y-53632060D01*
X88636834Y-53623791D01*
X88894726Y-53342352D01*
X88902352Y-53334726D01*
X89183791Y-53076834D01*
X89192060Y-53069896D01*
X89494905Y-52837515D01*
X89503744Y-52831325D01*
X89825700Y-52626217D01*
X89835045Y-52620822D01*
X90173638Y-52444561D01*
X90183412Y-52440003D01*
X90536095Y-52293917D01*
X90546227Y-52290230D01*
X90910295Y-52175440D01*
X90920709Y-52172649D01*
X91293405Y-52090025D01*
X91304025Y-52088152D01*
X91682495Y-52038326D01*
X91693226Y-52037386D01*
X92077297Y-52020617D01*
X92082706Y-52020500D01*
X92145892Y-52020500D01*
X172014108Y-52020500D01*
X172077294Y-52020500D01*
X172082702Y-52020617D01*
G37*
%TD.AperFunction*%
%TA.AperFunction,NonConductor*%
G36*
X169656939Y-72241287D02*
G01*
X169659783Y-72241059D01*
X169688591Y-72251514D01*
X169688616Y-72251455D01*
X169689950Y-72252007D01*
X169692960Y-72253100D01*
X169694242Y-72253785D01*
X169694243Y-72253785D01*
X169694244Y-72253786D01*
X169880873Y-72331091D01*
X170023696Y-72359500D01*
X170078992Y-72370499D01*
X170078996Y-72370500D01*
X170078997Y-72370500D01*
X170281005Y-72370500D01*
X170281704Y-72370361D01*
X170282077Y-72370394D01*
X170287068Y-72369903D01*
X170287161Y-72370849D01*
X170351296Y-72376585D01*
X170406475Y-72419446D01*
X170429722Y-72485335D01*
X170429900Y-72491977D01*
X170429900Y-84988022D01*
X170410215Y-85055061D01*
X170357411Y-85100816D01*
X170288253Y-85110760D01*
X170281725Y-85109643D01*
X170281007Y-85109500D01*
X170281003Y-85109500D01*
X170078997Y-85109500D01*
X170078992Y-85109500D01*
X169880880Y-85148907D01*
X169880872Y-85148909D01*
X169694244Y-85226213D01*
X169613891Y-85279904D01*
X169547213Y-85300782D01*
X169479833Y-85282297D01*
X169476109Y-85279904D01*
X169395755Y-85226213D01*
X169209127Y-85148909D01*
X169209119Y-85148907D01*
X169011007Y-85109500D01*
X169011003Y-85109500D01*
X168808997Y-85109500D01*
X168808992Y-85109500D01*
X168610880Y-85148907D01*
X168610868Y-85148910D01*
X168530198Y-85182325D01*
X168460729Y-85189794D01*
X168429408Y-85179706D01*
X168418292Y-85174409D01*
X168407331Y-85166204D01*
X168378511Y-85155455D01*
X168373590Y-85153110D01*
X168351450Y-85133286D01*
X168327660Y-85115477D01*
X168325704Y-85110234D01*
X168321537Y-85106503D01*
X168313628Y-85077855D01*
X168303244Y-85050013D01*
X168304433Y-85044547D01*
X168302944Y-85039153D01*
X168311780Y-85010772D01*
X168318097Y-84981740D01*
X168322760Y-84975510D01*
X168323716Y-84972442D01*
X168327318Y-84969421D01*
X168339244Y-84953490D01*
X169268506Y-84024227D01*
X169268511Y-84024224D01*
X169278714Y-84014020D01*
X169278716Y-84014020D01*
X169390520Y-83902216D01*
X169451682Y-83796280D01*
X169469577Y-83765285D01*
X169510500Y-83612558D01*
X169510500Y-83454443D01*
X169510500Y-72362454D01*
X169511628Y-72358611D01*
X169510742Y-72354704D01*
X169521394Y-72325352D01*
X169530185Y-72295415D01*
X169533210Y-72292793D01*
X169534578Y-72289026D01*
X169559406Y-72270094D01*
X169582989Y-72249660D01*
X169586953Y-72249089D01*
X169590139Y-72246661D01*
X169621251Y-72244158D01*
X169652147Y-72239716D01*
X169656939Y-72241287D01*
G37*
%TD.AperFunction*%
%TA.AperFunction,NonConductor*%
G36*
X168445703Y-87797085D02*
G01*
X168452181Y-87803117D01*
X168548349Y-87899285D01*
X168548355Y-87899290D01*
X168595681Y-87946616D01*
X168629166Y-88007939D01*
X168632000Y-88034297D01*
X168632000Y-101191602D01*
X168612315Y-101258641D01*
X168559511Y-101304396D01*
X168490353Y-101314340D01*
X168426797Y-101285315D01*
X168420319Y-101279283D01*
X168276819Y-101135783D01*
X168243334Y-101074460D01*
X168240500Y-101048102D01*
X168240500Y-87890798D01*
X168260185Y-87823759D01*
X168312989Y-87778004D01*
X168382147Y-87768060D01*
X168445703Y-87797085D01*
G37*
%TD.AperFunction*%
%TA.AperFunction,NonConductor*%
G36*
X140701034Y-87300665D02*
G01*
X140756967Y-87342537D01*
X140781384Y-87408001D01*
X140781700Y-87416847D01*
X140781700Y-87843153D01*
X140762015Y-87910192D01*
X140709211Y-87955947D01*
X140640053Y-87965891D01*
X140576497Y-87936866D01*
X140570019Y-87930834D01*
X140547213Y-87908028D01*
X140381614Y-87787715D01*
X140343039Y-87768060D01*
X140288917Y-87740483D01*
X140238123Y-87692511D01*
X140221328Y-87624690D01*
X140243865Y-87558555D01*
X140288917Y-87519516D01*
X140381610Y-87472287D01*
X140402770Y-87456913D01*
X140547213Y-87351971D01*
X140547215Y-87351968D01*
X140547219Y-87351966D01*
X140570019Y-87329166D01*
X140631342Y-87295681D01*
X140701034Y-87300665D01*
G37*
%TD.AperFunction*%
%TA.AperFunction,NonConductor*%
G36*
X140701034Y-89840665D02*
G01*
X140756967Y-89882537D01*
X140781384Y-89948001D01*
X140781700Y-89956847D01*
X140781700Y-90383153D01*
X140762015Y-90450192D01*
X140709211Y-90495947D01*
X140640053Y-90505891D01*
X140576497Y-90476866D01*
X140570019Y-90470834D01*
X140547213Y-90448028D01*
X140381614Y-90327715D01*
X140368462Y-90321014D01*
X140288917Y-90280483D01*
X140238123Y-90232511D01*
X140221328Y-90164690D01*
X140243865Y-90098555D01*
X140288917Y-90059516D01*
X140381610Y-90012287D01*
X140411176Y-89990806D01*
X140547213Y-89891971D01*
X140547215Y-89891968D01*
X140547219Y-89891966D01*
X140570019Y-89869166D01*
X140631342Y-89835681D01*
X140701034Y-89840665D01*
G37*
%TD.AperFunction*%
%TA.AperFunction,NonConductor*%
G36*
X123257896Y-97097246D02*
G01*
X123313831Y-97139116D01*
X123325050Y-97157133D01*
X123347713Y-97201611D01*
X123468028Y-97367213D01*
X123513508Y-97412693D01*
X123546993Y-97474016D01*
X123542009Y-97543708D01*
X123513508Y-97588055D01*
X123283881Y-97817682D01*
X123222558Y-97851167D01*
X123152866Y-97846183D01*
X123096933Y-97804311D01*
X123072516Y-97738847D01*
X123072200Y-97730001D01*
X123072200Y-97231796D01*
X123080843Y-97202361D01*
X123087366Y-97172372D01*
X123091122Y-97167353D01*
X123091885Y-97164757D01*
X123108508Y-97144126D01*
X123126887Y-97125746D01*
X123188205Y-97092264D01*
X123257896Y-97097246D01*
G37*
%TD.AperFunction*%
%TA.AperFunction,NonConductor*%
G36*
X140701034Y-97460665D02*
G01*
X140756967Y-97502537D01*
X140781384Y-97568001D01*
X140781700Y-97576847D01*
X140781700Y-98003153D01*
X140762015Y-98070192D01*
X140709211Y-98115947D01*
X140640053Y-98125891D01*
X140576497Y-98096866D01*
X140570019Y-98090834D01*
X140547213Y-98068028D01*
X140381614Y-97947715D01*
X140375006Y-97944348D01*
X140288917Y-97900483D01*
X140238123Y-97852511D01*
X140221328Y-97784690D01*
X140243865Y-97718555D01*
X140288917Y-97679516D01*
X140381610Y-97632287D01*
X140442491Y-97588055D01*
X140547213Y-97511971D01*
X140547215Y-97511968D01*
X140547219Y-97511966D01*
X140570019Y-97489166D01*
X140631342Y-97455681D01*
X140701034Y-97460665D01*
G37*
%TD.AperFunction*%
%TA.AperFunction,NonConductor*%
G36*
X123277403Y-102163670D02*
G01*
X123306685Y-102201088D01*
X123347715Y-102281614D01*
X123468028Y-102447213D01*
X123612786Y-102591971D01*
X123726347Y-102674476D01*
X123778390Y-102712287D01*
X123848147Y-102747830D01*
X123871080Y-102759515D01*
X123921876Y-102807490D01*
X123938671Y-102875311D01*
X123916134Y-102941446D01*
X123871080Y-102980485D01*
X123778386Y-103027715D01*
X123612786Y-103148028D01*
X123468028Y-103292786D01*
X123347712Y-103458389D01*
X123347711Y-103458391D01*
X123306684Y-103538911D01*
X123258710Y-103589707D01*
X123190889Y-103606502D01*
X123124754Y-103583964D01*
X123081303Y-103529249D01*
X123072200Y-103482616D01*
X123072200Y-102257383D01*
X123091885Y-102190344D01*
X123144689Y-102144589D01*
X123213847Y-102134645D01*
X123277403Y-102163670D01*
G37*
%TD.AperFunction*%
%TA.AperFunction,NonConductor*%
G36*
X132881693Y-105654818D02*
G01*
X132933262Y-105701961D01*
X132951200Y-105766202D01*
X132951200Y-106461719D01*
X132931515Y-106528758D01*
X132878711Y-106574513D01*
X132809553Y-106584457D01*
X132745997Y-106555432D01*
X132719813Y-106523719D01*
X132647222Y-106397987D01*
X132647218Y-106397982D01*
X132297207Y-106047971D01*
X132263722Y-105986648D01*
X132268706Y-105916956D01*
X132310578Y-105861023D01*
X132360693Y-105838674D01*
X132474497Y-105816037D01*
X132620179Y-105755694D01*
X132700596Y-105701961D01*
X132756354Y-105664705D01*
X132757565Y-105666517D01*
X132812824Y-105643038D01*
X132881693Y-105654818D01*
G37*
%TD.AperFunction*%
%TA.AperFunction,NonConductor*%
G36*
X142187903Y-86965084D02*
G01*
X142194381Y-86971116D01*
X145749381Y-90526116D01*
X145782866Y-90587439D01*
X145785700Y-90613797D01*
X145785700Y-107513203D01*
X145766015Y-107580242D01*
X145713211Y-107625997D01*
X145644053Y-107635941D01*
X145580497Y-107606916D01*
X145574019Y-107600884D01*
X140643841Y-102670706D01*
X140610356Y-102609383D01*
X140615340Y-102539691D01*
X140643841Y-102495344D01*
X140691966Y-102447219D01*
X140691968Y-102447215D01*
X140691971Y-102447213D01*
X140759940Y-102353660D01*
X140812287Y-102281610D01*
X140905220Y-102099219D01*
X140968477Y-101904534D01*
X141000500Y-101702352D01*
X141000500Y-101497648D01*
X140988426Y-101421416D01*
X140968477Y-101295465D01*
X140937831Y-101201146D01*
X140905220Y-101100781D01*
X140905218Y-101100778D01*
X140905218Y-101100776D01*
X140846335Y-100985213D01*
X140812287Y-100918390D01*
X140784623Y-100880313D01*
X140691971Y-100752786D01*
X140643540Y-100704355D01*
X140610055Y-100643032D01*
X140615039Y-100573340D01*
X140643536Y-100528998D01*
X141740706Y-99431827D01*
X141740711Y-99431824D01*
X141750914Y-99421620D01*
X141750916Y-99421620D01*
X141862720Y-99309816D01*
X141923191Y-99205077D01*
X141941777Y-99172885D01*
X141982700Y-99020158D01*
X141982700Y-98862043D01*
X141982700Y-87058797D01*
X142002385Y-86991758D01*
X142055189Y-86946003D01*
X142124347Y-86936059D01*
X142187903Y-86965084D01*
G37*
%TD.AperFunction*%
%TA.AperFunction,NonConductor*%
G36*
X125965703Y-101415384D02*
G01*
X125972181Y-101421416D01*
X131529881Y-106979116D01*
X131563366Y-107040439D01*
X131566200Y-107066797D01*
X131566200Y-107578634D01*
X131546515Y-107645673D01*
X131545300Y-107647529D01*
X131533503Y-107665183D01*
X131479889Y-107709986D01*
X131410563Y-107718691D01*
X131347537Y-107688533D01*
X131323016Y-107658288D01*
X131312338Y-107639793D01*
X131312337Y-107639792D01*
X131304373Y-107625997D01*
X131262220Y-107552984D01*
X131150416Y-107441180D01*
X131150415Y-107441179D01*
X131146085Y-107436849D01*
X131146074Y-107436839D01*
X125754077Y-102044842D01*
X125720592Y-101983519D01*
X125723828Y-101918841D01*
X125728477Y-101904534D01*
X125760500Y-101702352D01*
X125760500Y-101509097D01*
X125780185Y-101442058D01*
X125832989Y-101396303D01*
X125902147Y-101386359D01*
X125965703Y-101415384D01*
G37*
%TD.AperFunction*%
%TA.AperFunction,NonConductor*%
G36*
X138305398Y-93771953D02*
G01*
X138318834Y-93772914D01*
X138336560Y-93786184D01*
X138356703Y-93795383D01*
X138363985Y-93806714D01*
X138374767Y-93814786D01*
X138382504Y-93835531D01*
X138394477Y-93854161D01*
X138397628Y-93876079D01*
X138399184Y-93880250D01*
X138399500Y-93889096D01*
X138399500Y-94082351D01*
X138431522Y-94284534D01*
X138494781Y-94479223D01*
X138587715Y-94661613D01*
X138708028Y-94827213D01*
X138852786Y-94971971D01*
X139007749Y-95084556D01*
X139018390Y-95092287D01*
X139109840Y-95138883D01*
X139111080Y-95139515D01*
X139161876Y-95187490D01*
X139178671Y-95255311D01*
X139156134Y-95321446D01*
X139111080Y-95360485D01*
X139018386Y-95407715D01*
X138852786Y-95528028D01*
X138708028Y-95672786D01*
X138587715Y-95838386D01*
X138494781Y-96020776D01*
X138431522Y-96215465D01*
X138399500Y-96417648D01*
X138399500Y-96622351D01*
X138431522Y-96824534D01*
X138494781Y-97019223D01*
X138549060Y-97125750D01*
X138572815Y-97172372D01*
X138587715Y-97201613D01*
X138708028Y-97367213D01*
X138852786Y-97511971D01*
X139007749Y-97624556D01*
X139018390Y-97632287D01*
X139109840Y-97678883D01*
X139111080Y-97679515D01*
X139161876Y-97727490D01*
X139178671Y-97795311D01*
X139156134Y-97861446D01*
X139111080Y-97900485D01*
X139018386Y-97947715D01*
X138852786Y-98068028D01*
X138708028Y-98212786D01*
X138587715Y-98378386D01*
X138494781Y-98560776D01*
X138431522Y-98755465D01*
X138399500Y-98957648D01*
X138399500Y-99162351D01*
X138431522Y-99364534D01*
X138494781Y-99559223D01*
X138587715Y-99741613D01*
X138708028Y-99907213D01*
X138735958Y-99935143D01*
X138769443Y-99996466D01*
X138764459Y-100066158D01*
X138735958Y-100110505D01*
X138214886Y-100631578D01*
X138103081Y-100743382D01*
X138103079Y-100743385D01*
X138082690Y-100778700D01*
X138062301Y-100814016D01*
X138024023Y-100880315D01*
X137983099Y-101033043D01*
X137983099Y-101033045D01*
X137983099Y-101201146D01*
X137983100Y-101201159D01*
X137983100Y-108919902D01*
X137963415Y-108986941D01*
X137946781Y-109007583D01*
X137275481Y-109678883D01*
X137214158Y-109712368D01*
X137144466Y-109707384D01*
X137088533Y-109665512D01*
X137064116Y-109600048D01*
X137063800Y-109591202D01*
X137063800Y-94976796D01*
X137083485Y-94909757D01*
X137100114Y-94889120D01*
X138187819Y-93801414D01*
X138207255Y-93790802D01*
X138223989Y-93776302D01*
X138237320Y-93774385D01*
X138249142Y-93767930D01*
X138271228Y-93769509D01*
X138293147Y-93766358D01*
X138305398Y-93771953D01*
G37*
%TD.AperFunction*%
%TA.AperFunction,NonConductor*%
G36*
X138690157Y-110065189D02*
G01*
X138734505Y-110093690D01*
X138852786Y-110211971D01*
X138986771Y-110309315D01*
X139018390Y-110332287D01*
X139109840Y-110378883D01*
X139111080Y-110379515D01*
X139161876Y-110427490D01*
X139178671Y-110495311D01*
X139156134Y-110561446D01*
X139111080Y-110600485D01*
X139018386Y-110647715D01*
X138852786Y-110768028D01*
X138708028Y-110912786D01*
X138587712Y-111078389D01*
X138587711Y-111078391D01*
X138541684Y-111168724D01*
X138493710Y-111219520D01*
X138425889Y-111236315D01*
X138359754Y-111213777D01*
X138316303Y-111159062D01*
X138307200Y-111112429D01*
X138307200Y-110396996D01*
X138326885Y-110329957D01*
X138343515Y-110309319D01*
X138559145Y-110093688D01*
X138620466Y-110060205D01*
X138690157Y-110065189D01*
G37*
%TD.AperFunction*%
%TA.AperFunction,NonConductor*%
G36*
X137875034Y-86596715D02*
G01*
X137930967Y-86638587D01*
X137955384Y-86704051D01*
X137955700Y-86712897D01*
X137955700Y-87669530D01*
X137955699Y-87669548D01*
X137955699Y-87835254D01*
X137955698Y-87835254D01*
X137955699Y-87835257D01*
X137996623Y-87987985D01*
X137996624Y-87987987D01*
X137996623Y-87987987D01*
X138010604Y-88012201D01*
X138010605Y-88012203D01*
X138075675Y-88124909D01*
X138075681Y-88124917D01*
X138194549Y-88243785D01*
X138194555Y-88243790D01*
X138405922Y-88455157D01*
X138439407Y-88516480D01*
X138436173Y-88581155D01*
X138431522Y-88595468D01*
X138399500Y-88797648D01*
X138399500Y-89002351D01*
X138431522Y-89204534D01*
X138436173Y-89218848D01*
X138438165Y-89288690D01*
X138405921Y-89344842D01*
X134637186Y-93113578D01*
X134525381Y-93225382D01*
X134525375Y-93225390D01*
X134481277Y-93301772D01*
X134481277Y-93301773D01*
X134446323Y-93362315D01*
X134405399Y-93515043D01*
X134405399Y-93515045D01*
X134405399Y-93683146D01*
X134405400Y-93683159D01*
X134405400Y-123293334D01*
X134400071Y-123311479D01*
X134399734Y-123330389D01*
X134386234Y-123358603D01*
X134385715Y-123360373D01*
X134384501Y-123362227D01*
X134379301Y-123370009D01*
X134325688Y-123414813D01*
X134256362Y-123423519D01*
X134193336Y-123393363D01*
X134156618Y-123333919D01*
X134152200Y-123301116D01*
X134152200Y-90268397D01*
X134171885Y-90201358D01*
X134188519Y-90180716D01*
X137744019Y-86625216D01*
X137805342Y-86591731D01*
X137875034Y-86596715D01*
G37*
%TD.AperFunction*%
%TA.AperFunction,NonConductor*%
G36*
X138305398Y-91231953D02*
G01*
X138318834Y-91232914D01*
X138336560Y-91246184D01*
X138356703Y-91255383D01*
X138363985Y-91266714D01*
X138374767Y-91274786D01*
X138382504Y-91295531D01*
X138394477Y-91314161D01*
X138397628Y-91336079D01*
X138399184Y-91340250D01*
X138399500Y-91349096D01*
X138399500Y-91542351D01*
X138431522Y-91744534D01*
X138436173Y-91758848D01*
X138438165Y-91828690D01*
X138405921Y-91884842D01*
X136097641Y-94193122D01*
X136097634Y-94193129D01*
X136094586Y-94196178D01*
X136094584Y-94196180D01*
X135982780Y-94307984D01*
X135959264Y-94348716D01*
X135953283Y-94359074D01*
X135953283Y-94359075D01*
X135915312Y-94424842D01*
X135903723Y-94444915D01*
X135862799Y-94597643D01*
X135862799Y-94597645D01*
X135862799Y-94765746D01*
X135862800Y-94765759D01*
X135862800Y-123305905D01*
X135843115Y-123372944D01*
X135790311Y-123418699D01*
X135721153Y-123428643D01*
X135657597Y-123399618D01*
X135635699Y-123374798D01*
X135627299Y-123362227D01*
X135606420Y-123295550D01*
X135606400Y-123293334D01*
X135606400Y-93894196D01*
X135626085Y-93827157D01*
X135642714Y-93806520D01*
X138187819Y-91261414D01*
X138207255Y-91250802D01*
X138223989Y-91236302D01*
X138237320Y-91234385D01*
X138249142Y-91227930D01*
X138271228Y-91229509D01*
X138293147Y-91226358D01*
X138305398Y-91231953D01*
G37*
%TD.AperFunction*%
%TA.AperFunction,NonConductor*%
G36*
X125965703Y-103955384D02*
G01*
X125972181Y-103961416D01*
X130144881Y-108134116D01*
X130178366Y-108195439D01*
X130181200Y-108221797D01*
X130181200Y-125113666D01*
X130161515Y-125180705D01*
X130108711Y-125226460D01*
X130039553Y-125236404D01*
X129975997Y-125207379D01*
X129942639Y-125161118D01*
X129880097Y-125010127D01*
X129880090Y-125010114D01*
X129792098Y-124878425D01*
X129771220Y-124811747D01*
X129771200Y-124809534D01*
X129771200Y-111479759D01*
X129771201Y-111479746D01*
X129771201Y-111311645D01*
X129771201Y-111311643D01*
X129730277Y-111158915D01*
X129690728Y-111090415D01*
X129690728Y-111090413D01*
X129651224Y-111021990D01*
X129651221Y-111021986D01*
X129651220Y-111021984D01*
X129539416Y-110910180D01*
X129539415Y-110910179D01*
X129535085Y-110905849D01*
X129535074Y-110905839D01*
X125754077Y-107124842D01*
X125720592Y-107063519D01*
X125723828Y-106998841D01*
X125728477Y-106984534D01*
X125760500Y-106782352D01*
X125760500Y-106577648D01*
X125732043Y-106397982D01*
X125728477Y-106375465D01*
X125665218Y-106180776D01*
X125599948Y-106052678D01*
X125572287Y-105998390D01*
X125543013Y-105958097D01*
X125451971Y-105832786D01*
X125307213Y-105688028D01*
X125141614Y-105567715D01*
X125087801Y-105540296D01*
X125048917Y-105520483D01*
X124998123Y-105472511D01*
X124981328Y-105404690D01*
X125003865Y-105338555D01*
X125048917Y-105299516D01*
X125141610Y-105252287D01*
X125203004Y-105207682D01*
X125307213Y-105131971D01*
X125307215Y-105131968D01*
X125307219Y-105131966D01*
X125451966Y-104987219D01*
X125451968Y-104987215D01*
X125451971Y-104987213D01*
X125504732Y-104914590D01*
X125572287Y-104821610D01*
X125665220Y-104639219D01*
X125728477Y-104444534D01*
X125760500Y-104242352D01*
X125760500Y-104049097D01*
X125780185Y-103982058D01*
X125832989Y-103936303D01*
X125902147Y-103926359D01*
X125965703Y-103955384D01*
G37*
%TD.AperFunction*%
%TA.AperFunction,NonConductor*%
G36*
X130120473Y-125558291D02*
G01*
X130168084Y-125609428D01*
X130181200Y-125664933D01*
X130181200Y-126154588D01*
X130161515Y-126221627D01*
X130108711Y-126267382D01*
X130039553Y-126277326D01*
X130000905Y-126265073D01*
X129895921Y-126211581D01*
X129895920Y-126211580D01*
X129895919Y-126211580D01*
X129774818Y-126172232D01*
X129717145Y-126132796D01*
X129689946Y-126068437D01*
X129701861Y-125999591D01*
X129725454Y-125966623D01*
X129792489Y-125899589D01*
X129880094Y-125768479D01*
X129893476Y-125736173D01*
X129942639Y-125617481D01*
X129986479Y-125563077D01*
X130052773Y-125541012D01*
X130120473Y-125558291D01*
G37*
%TD.AperFunction*%
%TA.AperFunction,NonConductor*%
G36*
X121790534Y-97601215D02*
G01*
X121846467Y-97643087D01*
X121870884Y-97708551D01*
X121871200Y-97717397D01*
X121871200Y-126154588D01*
X121851515Y-126221627D01*
X121798711Y-126267382D01*
X121729553Y-126277326D01*
X121690905Y-126265073D01*
X121585923Y-126211581D01*
X121391234Y-126148322D01*
X121216695Y-126120678D01*
X121189052Y-126116300D01*
X120984348Y-126116300D01*
X120943884Y-126122709D01*
X120782164Y-126148323D01*
X120782161Y-126148323D01*
X120658718Y-126188433D01*
X120588877Y-126190428D01*
X120529044Y-126154348D01*
X120498216Y-126091647D01*
X120496400Y-126070502D01*
X120496400Y-98844197D01*
X120516085Y-98777158D01*
X120532719Y-98756516D01*
X121659519Y-97629716D01*
X121720842Y-97596231D01*
X121790534Y-97601215D01*
G37*
%TD.AperFunction*%
%TA.AperFunction,NonConductor*%
G36*
X135821662Y-124348045D02*
G01*
X135858382Y-124407488D01*
X135862800Y-124440294D01*
X135862800Y-126238780D01*
X135843115Y-126305819D01*
X135790311Y-126351574D01*
X135721153Y-126361518D01*
X135665916Y-126339099D01*
X135618313Y-126304514D01*
X135435923Y-126211581D01*
X135241234Y-126148322D01*
X135066695Y-126120678D01*
X135039052Y-126116300D01*
X134834348Y-126116300D01*
X134810029Y-126120151D01*
X134632165Y-126148322D01*
X134437476Y-126211581D01*
X134332495Y-126265073D01*
X134263826Y-126277969D01*
X134199085Y-126251693D01*
X134158828Y-126194586D01*
X134152200Y-126154588D01*
X134152200Y-124445083D01*
X134171885Y-124378044D01*
X134224689Y-124332289D01*
X134293847Y-124322345D01*
X134357403Y-124351370D01*
X134379303Y-124376193D01*
X134384112Y-124383391D01*
X134495607Y-124494886D01*
X134495611Y-124494889D01*
X134626714Y-124582490D01*
X134626727Y-124582497D01*
X134772398Y-124642835D01*
X134772403Y-124642837D01*
X134927053Y-124673599D01*
X134927056Y-124673600D01*
X134927058Y-124673600D01*
X135084744Y-124673600D01*
X135084745Y-124673599D01*
X135239397Y-124642837D01*
X135385079Y-124582494D01*
X135516189Y-124494889D01*
X135627689Y-124383389D01*
X135635697Y-124371403D01*
X135689309Y-124326598D01*
X135758634Y-124317891D01*
X135821662Y-124348045D01*
G37*
%TD.AperFunction*%
%TA.AperFunction,NonConductor*%
G36*
X119214734Y-100485915D02*
G01*
X119270667Y-100527787D01*
X119295084Y-100593251D01*
X119295400Y-100602097D01*
X119295400Y-126276996D01*
X119275715Y-126344035D01*
X119222911Y-126389790D01*
X119153753Y-126399734D01*
X119098516Y-126377315D01*
X118998312Y-126304514D01*
X118815923Y-126211581D01*
X118621234Y-126148322D01*
X118446695Y-126120678D01*
X118419052Y-126116300D01*
X118214348Y-126116300D01*
X118190029Y-126120151D01*
X118012165Y-126148322D01*
X117817476Y-126211581D01*
X117712495Y-126265073D01*
X117643826Y-126277969D01*
X117579085Y-126251693D01*
X117538828Y-126194586D01*
X117532200Y-126154588D01*
X117532200Y-114895687D01*
X117551885Y-114828648D01*
X117604689Y-114782893D01*
X117632009Y-114774070D01*
X117676693Y-114765181D01*
X117765397Y-114747537D01*
X117911079Y-114687194D01*
X118042189Y-114599589D01*
X118153689Y-114488089D01*
X118241294Y-114356979D01*
X118301637Y-114211297D01*
X118332400Y-114056642D01*
X118332400Y-113898958D01*
X118332400Y-113898955D01*
X118332399Y-113898953D01*
X118319680Y-113835009D01*
X118301637Y-113744303D01*
X118279267Y-113690297D01*
X118241297Y-113598627D01*
X118241290Y-113598614D01*
X118153298Y-113466925D01*
X118132420Y-113400247D01*
X118132400Y-113398034D01*
X118132400Y-101517097D01*
X118152085Y-101450058D01*
X118168719Y-101429416D01*
X119083719Y-100514416D01*
X119145042Y-100480931D01*
X119214734Y-100485915D01*
G37*
%TD.AperFunction*%
%TA.AperFunction,NonConductor*%
G36*
X142871203Y-106596984D02*
G01*
X142877681Y-106603016D01*
X149877281Y-113602616D01*
X149910766Y-113663939D01*
X149913600Y-113690297D01*
X149913600Y-126025952D01*
X149893915Y-126092991D01*
X149841111Y-126138746D01*
X149771953Y-126148690D01*
X149746268Y-126142135D01*
X149694180Y-126122708D01*
X149634583Y-126116301D01*
X149634581Y-126116300D01*
X149634573Y-126116300D01*
X149634565Y-126116300D01*
X149511200Y-126116300D01*
X149444161Y-126096615D01*
X149398406Y-126043811D01*
X149387200Y-125992300D01*
X149387200Y-116224659D01*
X149387201Y-116224646D01*
X149387201Y-116056545D01*
X149387201Y-116056543D01*
X149346277Y-115903815D01*
X149317339Y-115853695D01*
X149267220Y-115766884D01*
X149155416Y-115655080D01*
X149155415Y-115655079D01*
X149151085Y-115650749D01*
X149151074Y-115650739D01*
X147463474Y-113963139D01*
X147429989Y-113901816D01*
X147429538Y-113899649D01*
X147411495Y-113808947D01*
X147398637Y-113744303D01*
X147376267Y-113690297D01*
X147338297Y-113598627D01*
X147338290Y-113598614D01*
X147250689Y-113467511D01*
X147250686Y-113467507D01*
X147139192Y-113356013D01*
X147139188Y-113356010D01*
X147008085Y-113268409D01*
X147008072Y-113268402D01*
X146862401Y-113208064D01*
X146862389Y-113208061D01*
X146707745Y-113177300D01*
X146707742Y-113177300D01*
X146550058Y-113177300D01*
X146550055Y-113177300D01*
X146395410Y-113208061D01*
X146395398Y-113208064D01*
X146249727Y-113268402D01*
X146249714Y-113268409D01*
X146118611Y-113356010D01*
X146118607Y-113356013D01*
X146007113Y-113467507D01*
X146007110Y-113467511D01*
X145919509Y-113598614D01*
X145919502Y-113598627D01*
X145859164Y-113744298D01*
X145859161Y-113744310D01*
X145828400Y-113898953D01*
X145828400Y-114056646D01*
X145859161Y-114211289D01*
X145859164Y-114211301D01*
X145919502Y-114356972D01*
X145919509Y-114356985D01*
X146007110Y-114488088D01*
X146007113Y-114488092D01*
X146118607Y-114599586D01*
X146118611Y-114599589D01*
X146249714Y-114687190D01*
X146249727Y-114687197D01*
X146395398Y-114747535D01*
X146395403Y-114747537D01*
X146460047Y-114760395D01*
X146550749Y-114778438D01*
X146612660Y-114810823D01*
X146614239Y-114812374D01*
X148149881Y-116348016D01*
X148183366Y-116409339D01*
X148186200Y-116435697D01*
X148186200Y-125992300D01*
X148166515Y-126059339D01*
X148113711Y-126105094D01*
X148062201Y-126116300D01*
X147938830Y-126116300D01*
X147938823Y-126116301D01*
X147879216Y-126122708D01*
X147744371Y-126173002D01*
X147744364Y-126173006D01*
X147629155Y-126259252D01*
X147629152Y-126259255D01*
X147542906Y-126374464D01*
X147542902Y-126374471D01*
X147492608Y-126509317D01*
X147486201Y-126568916D01*
X147486200Y-126568935D01*
X147486200Y-126948046D01*
X147466515Y-127015085D01*
X147413711Y-127060840D01*
X147344553Y-127070784D01*
X147280997Y-127041759D01*
X147244269Y-126986365D01*
X147221920Y-126917581D01*
X147221918Y-126917578D01*
X147221918Y-126917576D01*
X147188203Y-126851407D01*
X147128987Y-126735190D01*
X147117526Y-126719415D01*
X147008671Y-126569586D01*
X146863913Y-126424828D01*
X146698313Y-126304515D01*
X146698312Y-126304514D01*
X146698310Y-126304513D01*
X146641353Y-126275491D01*
X146515923Y-126211581D01*
X146321234Y-126148322D01*
X146146695Y-126120678D01*
X146119052Y-126116300D01*
X145914348Y-126116300D01*
X145890029Y-126120151D01*
X145712165Y-126148322D01*
X145517476Y-126211581D01*
X145335086Y-126304515D01*
X145169486Y-126424828D01*
X145024728Y-126569586D01*
X144904415Y-126735186D01*
X144811481Y-126917576D01*
X144749631Y-127107931D01*
X144710193Y-127165606D01*
X144645834Y-127192804D01*
X144576988Y-127180889D01*
X144525512Y-127133645D01*
X144513769Y-127107931D01*
X144477645Y-126996756D01*
X144451920Y-126917581D01*
X144451918Y-126917578D01*
X144451918Y-126917576D01*
X144418203Y-126851407D01*
X144358987Y-126735190D01*
X144347526Y-126719415D01*
X144238671Y-126569586D01*
X144093913Y-126424828D01*
X143928313Y-126304515D01*
X143928312Y-126304514D01*
X143928310Y-126304513D01*
X143871353Y-126275491D01*
X143745923Y-126211581D01*
X143551234Y-126148322D01*
X143376695Y-126120678D01*
X143349052Y-126116300D01*
X143144348Y-126116300D01*
X143120029Y-126120151D01*
X142942165Y-126148322D01*
X142747476Y-126211581D01*
X142565086Y-126304515D01*
X142399486Y-126424828D01*
X142254728Y-126569586D01*
X142134413Y-126735188D01*
X142097411Y-126807808D01*
X142049436Y-126858603D01*
X141981615Y-126875398D01*
X141915481Y-126852860D01*
X141872030Y-126798144D01*
X141865058Y-126728623D01*
X141867146Y-126719444D01*
X141872100Y-126700957D01*
X141872100Y-112432585D01*
X141891785Y-112365546D01*
X141944589Y-112319791D01*
X141971909Y-112310968D01*
X142106797Y-112284137D01*
X142252479Y-112223794D01*
X142383589Y-112136189D01*
X142495089Y-112024689D01*
X142582694Y-111893579D01*
X142643037Y-111747897D01*
X142673800Y-111593242D01*
X142673800Y-111435558D01*
X142668383Y-111408329D01*
X142666001Y-111384139D01*
X142666001Y-111311643D01*
X142666001Y-111243143D01*
X142666000Y-111243139D01*
X142666000Y-106690697D01*
X142685685Y-106623658D01*
X142738489Y-106577903D01*
X142807647Y-106567959D01*
X142871203Y-106596984D01*
G37*
%TD.AperFunction*%
%TA.AperFunction,NonConductor*%
G36*
X138454642Y-112287478D02*
G01*
X138461007Y-112287206D01*
X138486036Y-112301815D01*
X138512403Y-112313857D01*
X138517227Y-112320022D01*
X138521349Y-112322428D01*
X138541685Y-112351275D01*
X138587715Y-112441614D01*
X138708028Y-112607213D01*
X138852786Y-112751971D01*
X139007749Y-112864556D01*
X139018390Y-112872287D01*
X139091778Y-112909680D01*
X139200776Y-112965218D01*
X139200778Y-112965218D01*
X139200781Y-112965220D01*
X139305137Y-112999127D01*
X139395465Y-113028477D01*
X139496557Y-113044488D01*
X139597648Y-113060500D01*
X139597649Y-113060500D01*
X139802351Y-113060500D01*
X139802352Y-113060500D01*
X140004534Y-113028477D01*
X140056682Y-113011532D01*
X140126522Y-113009537D01*
X140186355Y-113045617D01*
X140217184Y-113108318D01*
X140219000Y-113129464D01*
X140219000Y-121808725D01*
X140199315Y-121875764D01*
X140146511Y-121921519D01*
X140119192Y-121930342D01*
X140084908Y-121937161D01*
X140084898Y-121937164D01*
X139939227Y-121997502D01*
X139939214Y-121997509D01*
X139808111Y-122085110D01*
X139808107Y-122085113D01*
X139696613Y-122196607D01*
X139696610Y-122196611D01*
X139609009Y-122327714D01*
X139609002Y-122327727D01*
X139548664Y-122473398D01*
X139548661Y-122473410D01*
X139517900Y-122628053D01*
X139517900Y-122785746D01*
X139548661Y-122940389D01*
X139548664Y-122940401D01*
X139609002Y-123086072D01*
X139609009Y-123086085D01*
X139696610Y-123217188D01*
X139696613Y-123217192D01*
X139808107Y-123328686D01*
X139808111Y-123328689D01*
X139939214Y-123416290D01*
X139939227Y-123416297D01*
X140084898Y-123476635D01*
X140084903Y-123476637D01*
X140239553Y-123507399D01*
X140239556Y-123507400D01*
X140239558Y-123507400D01*
X140397244Y-123507400D01*
X140467914Y-123493342D01*
X140522909Y-123482403D01*
X140592500Y-123488630D01*
X140647677Y-123531493D01*
X140670922Y-123597382D01*
X140671100Y-123604020D01*
X140671100Y-125992300D01*
X140651415Y-126059339D01*
X140598611Y-126105094D01*
X140547100Y-126116300D01*
X140374348Y-126116300D01*
X140350029Y-126120151D01*
X140172165Y-126148322D01*
X139977476Y-126211581D01*
X139795086Y-126304515D01*
X139629486Y-126424828D01*
X139484728Y-126569586D01*
X139364415Y-126735186D01*
X139271481Y-126917576D01*
X139209631Y-127107931D01*
X139170193Y-127165606D01*
X139105834Y-127192804D01*
X139036988Y-127180889D01*
X138985512Y-127133645D01*
X138973769Y-127107931D01*
X138937645Y-126996756D01*
X138911920Y-126917581D01*
X138911918Y-126917578D01*
X138911918Y-126917576D01*
X138878203Y-126851407D01*
X138818987Y-126735190D01*
X138807526Y-126719415D01*
X138698671Y-126569586D01*
X138553913Y-126424828D01*
X138388310Y-126304512D01*
X138374900Y-126297679D01*
X138324106Y-126249703D01*
X138307200Y-126187197D01*
X138307200Y-112407570D01*
X138308994Y-112401457D01*
X138307819Y-112395196D01*
X138318720Y-112368336D01*
X138326885Y-112340531D01*
X138331698Y-112336360D01*
X138334095Y-112330455D01*
X138357791Y-112313750D01*
X138379689Y-112294776D01*
X138385993Y-112293869D01*
X138391202Y-112290198D01*
X138420160Y-112288956D01*
X138448847Y-112284832D01*
X138454642Y-112287478D01*
G37*
%TD.AperFunction*%
%TA.AperFunction,NonConductor*%
G36*
X125965703Y-109035384D02*
G01*
X125972181Y-109041416D01*
X128533881Y-111603116D01*
X128567366Y-111664439D01*
X128570200Y-111690797D01*
X128570200Y-124809534D01*
X128550515Y-124876573D01*
X128549302Y-124878425D01*
X128461309Y-125010114D01*
X128461302Y-125010127D01*
X128400964Y-125155798D01*
X128400961Y-125155810D01*
X128370200Y-125310453D01*
X128370200Y-125468146D01*
X128400961Y-125622789D01*
X128400964Y-125622801D01*
X128461302Y-125768472D01*
X128461309Y-125768485D01*
X128548910Y-125899588D01*
X128548913Y-125899592D01*
X128660407Y-126011086D01*
X128660411Y-126011089D01*
X128757306Y-126075833D01*
X128802111Y-126129445D01*
X128810818Y-126198770D01*
X128780663Y-126261798D01*
X128744712Y-126289418D01*
X128715092Y-126304510D01*
X128715089Y-126304512D01*
X128549486Y-126424828D01*
X128404728Y-126569586D01*
X128284415Y-126735186D01*
X128191481Y-126917576D01*
X128129631Y-127107931D01*
X128090193Y-127165606D01*
X128025834Y-127192804D01*
X127956988Y-127180889D01*
X127905512Y-127133645D01*
X127893769Y-127107931D01*
X127857645Y-126996756D01*
X127831920Y-126917581D01*
X127831918Y-126917578D01*
X127831918Y-126917576D01*
X127798203Y-126851407D01*
X127738987Y-126735190D01*
X127727526Y-126719415D01*
X127618671Y-126569586D01*
X127473913Y-126424828D01*
X127308313Y-126304515D01*
X127308312Y-126304514D01*
X127308310Y-126304513D01*
X127251353Y-126275491D01*
X127125923Y-126211581D01*
X126931234Y-126148322D01*
X126756695Y-126120678D01*
X126729052Y-126116300D01*
X126524348Y-126116300D01*
X126500029Y-126120151D01*
X126322165Y-126148322D01*
X126127476Y-126211581D01*
X125945086Y-126304515D01*
X125779486Y-126424828D01*
X125634728Y-126569586D01*
X125514415Y-126735186D01*
X125421481Y-126917576D01*
X125359631Y-127107931D01*
X125320193Y-127165606D01*
X125255834Y-127192804D01*
X125186988Y-127180889D01*
X125135512Y-127133645D01*
X125123769Y-127107931D01*
X125087645Y-126996756D01*
X125061920Y-126917581D01*
X125061918Y-126917578D01*
X125061918Y-126917576D01*
X125028203Y-126851407D01*
X124968987Y-126735190D01*
X124957526Y-126719415D01*
X124848671Y-126569586D01*
X124703913Y-126424828D01*
X124538313Y-126304515D01*
X124538312Y-126304514D01*
X124538310Y-126304513D01*
X124481353Y-126275491D01*
X124355923Y-126211581D01*
X124161234Y-126148322D01*
X123986695Y-126120678D01*
X123959052Y-126116300D01*
X123754348Y-126116300D01*
X123730029Y-126120151D01*
X123552165Y-126148322D01*
X123357476Y-126211581D01*
X123252495Y-126265073D01*
X123183826Y-126277969D01*
X123119085Y-126251693D01*
X123078828Y-126194586D01*
X123072200Y-126154588D01*
X123072200Y-112417383D01*
X123091885Y-112350344D01*
X123144689Y-112304589D01*
X123213847Y-112294645D01*
X123277403Y-112323670D01*
X123306685Y-112361088D01*
X123347715Y-112441614D01*
X123468028Y-112607213D01*
X123612786Y-112751971D01*
X123767749Y-112864556D01*
X123778390Y-112872287D01*
X123851778Y-112909680D01*
X123960776Y-112965218D01*
X123960778Y-112965218D01*
X123960781Y-112965220D01*
X124065137Y-112999127D01*
X124155465Y-113028477D01*
X124256557Y-113044488D01*
X124357648Y-113060500D01*
X124357649Y-113060500D01*
X124562351Y-113060500D01*
X124562352Y-113060500D01*
X124764534Y-113028477D01*
X124959219Y-112965220D01*
X125141610Y-112872287D01*
X125234590Y-112804732D01*
X125307213Y-112751971D01*
X125307215Y-112751968D01*
X125307219Y-112751966D01*
X125451966Y-112607219D01*
X125451968Y-112607215D01*
X125451971Y-112607213D01*
X125504732Y-112534590D01*
X125572287Y-112441610D01*
X125665220Y-112259219D01*
X125706235Y-112132985D01*
X125745671Y-112075313D01*
X125810030Y-112048114D01*
X125878876Y-112060028D01*
X125911846Y-112083625D01*
X125977607Y-112149386D01*
X125977611Y-112149389D01*
X126108714Y-112236990D01*
X126108727Y-112236997D01*
X126246030Y-112293869D01*
X126254403Y-112297337D01*
X126386787Y-112323670D01*
X126409053Y-112328099D01*
X126409056Y-112328100D01*
X126409058Y-112328100D01*
X126566744Y-112328100D01*
X126566745Y-112328099D01*
X126721397Y-112297337D01*
X126867079Y-112236994D01*
X126998189Y-112149389D01*
X127109689Y-112037889D01*
X127197294Y-111906779D01*
X127202765Y-111893572D01*
X127215696Y-111862352D01*
X127257637Y-111761097D01*
X127288400Y-111606442D01*
X127288400Y-111448758D01*
X127288400Y-111448755D01*
X127288399Y-111448753D01*
X127281321Y-111413172D01*
X127257637Y-111294103D01*
X127202156Y-111160158D01*
X127197297Y-111148427D01*
X127197290Y-111148414D01*
X127109689Y-111017311D01*
X127109686Y-111017307D01*
X126998195Y-110905816D01*
X126998191Y-110905813D01*
X126998189Y-110905811D01*
X126996042Y-110904376D01*
X126974706Y-110884391D01*
X126974167Y-110884931D01*
X126398551Y-110309315D01*
X125754076Y-109664841D01*
X125720592Y-109603519D01*
X125723828Y-109538841D01*
X125728477Y-109524534D01*
X125760500Y-109322352D01*
X125760500Y-109129097D01*
X125780185Y-109062058D01*
X125832989Y-109016303D01*
X125902147Y-109006359D01*
X125965703Y-109035384D01*
G37*
%TD.AperFunction*%
%TA.AperFunction,NonConductor*%
G36*
X134332493Y-128568526D02*
G01*
X134358753Y-128581906D01*
X134437476Y-128622018D01*
X134437478Y-128622018D01*
X134437481Y-128622020D01*
X134524527Y-128650303D01*
X134546308Y-128657380D01*
X134548577Y-128658931D01*
X134551321Y-128659128D01*
X134577252Y-128678539D01*
X134603984Y-128696818D01*
X134605054Y-128699351D01*
X134607256Y-128700999D01*
X134618573Y-128731339D01*
X134631182Y-128761176D01*
X134630712Y-128763886D01*
X134631674Y-128766463D01*
X134624790Y-128798110D01*
X134619267Y-128830023D01*
X134617228Y-128832871D01*
X134616823Y-128834736D01*
X134595673Y-128862991D01*
X134568086Y-128890578D01*
X134456281Y-129002382D01*
X134456279Y-129002384D01*
X134445308Y-129021388D01*
X134427877Y-129051580D01*
X134427876Y-129051582D01*
X134401026Y-129098086D01*
X134350458Y-129146300D01*
X134281851Y-129159522D01*
X134237341Y-129146567D01*
X134219901Y-129137680D01*
X134169107Y-129089703D01*
X134152200Y-129027197D01*
X134152200Y-128679011D01*
X134171885Y-128611972D01*
X134224689Y-128566217D01*
X134293847Y-128556273D01*
X134332493Y-128568526D01*
G37*
%TD.AperFunction*%
%TA.AperFunction,NonConductor*%
G36*
X149877281Y-128719966D02*
G01*
X149910766Y-128781289D01*
X149913600Y-128807647D01*
X149913600Y-129547934D01*
X149893915Y-129614973D01*
X149892702Y-129616825D01*
X149804709Y-129748514D01*
X149804704Y-129748523D01*
X149745811Y-129890706D01*
X149701970Y-129945109D01*
X149635676Y-129967174D01*
X149567977Y-129949895D01*
X149543569Y-129930934D01*
X148541615Y-128928980D01*
X148508130Y-128867657D01*
X148513114Y-128797965D01*
X148554986Y-128742032D01*
X148620450Y-128717615D01*
X148629296Y-128717299D01*
X149634571Y-128717299D01*
X149634572Y-128717299D01*
X149694183Y-128710891D01*
X149746267Y-128691465D01*
X149815958Y-128686481D01*
X149877281Y-128719966D01*
G37*
%TD.AperFunction*%
%TA.AperFunction,NonConductor*%
G36*
X144686412Y-127652710D02*
G01*
X144737888Y-127699954D01*
X144749631Y-127725668D01*
X144811481Y-127916023D01*
X144904415Y-128098413D01*
X145024728Y-128264013D01*
X145169486Y-128408771D01*
X145293316Y-128498737D01*
X145335090Y-128529087D01*
X145438753Y-128581906D01*
X145517476Y-128622018D01*
X145517478Y-128622018D01*
X145517481Y-128622020D01*
X145604527Y-128650303D01*
X145712165Y-128685277D01*
X145780233Y-128696058D01*
X145914348Y-128717300D01*
X145914349Y-128717300D01*
X146119051Y-128717300D01*
X146119052Y-128717300D01*
X146321234Y-128685277D01*
X146458948Y-128640530D01*
X146528787Y-128638536D01*
X146584946Y-128670781D01*
X146823707Y-128909542D01*
X146857192Y-128970865D01*
X146852208Y-129040557D01*
X146810336Y-129096490D01*
X146792323Y-129107707D01*
X146720086Y-129144514D01*
X146554486Y-129264828D01*
X146409728Y-129409586D01*
X146289415Y-129575186D01*
X146196481Y-129757576D01*
X146134631Y-129947931D01*
X146095193Y-130005606D01*
X146030834Y-130032804D01*
X145961988Y-130020889D01*
X145910512Y-129973645D01*
X145898769Y-129947931D01*
X145836918Y-129757576D01*
X145803203Y-129691407D01*
X145743987Y-129575190D01*
X145736256Y-129564549D01*
X145623671Y-129409586D01*
X145478913Y-129264828D01*
X145313313Y-129144515D01*
X145313312Y-129144514D01*
X145313310Y-129144513D01*
X145256353Y-129115491D01*
X145130923Y-129051581D01*
X144936234Y-128988322D01*
X144756049Y-128959784D01*
X144734052Y-128956300D01*
X144529348Y-128956300D01*
X144507351Y-128959784D01*
X144327165Y-128988322D01*
X144132476Y-129051581D01*
X143950086Y-129144515D01*
X143784486Y-129264828D01*
X143639728Y-129409586D01*
X143519415Y-129575186D01*
X143426481Y-129757576D01*
X143364631Y-129947931D01*
X143325193Y-130005606D01*
X143260834Y-130032804D01*
X143191988Y-130020889D01*
X143140512Y-129973645D01*
X143128769Y-129947931D01*
X143066918Y-129757576D01*
X143033203Y-129691407D01*
X142973987Y-129575190D01*
X142966256Y-129564549D01*
X142853671Y-129409586D01*
X142708913Y-129264828D01*
X142543313Y-129144515D01*
X142543312Y-129144514D01*
X142543310Y-129144513D01*
X142486353Y-129115491D01*
X142360923Y-129051581D01*
X142166234Y-128988322D01*
X141986049Y-128959784D01*
X141964052Y-128956300D01*
X141759348Y-128956300D01*
X141737351Y-128959784D01*
X141557165Y-128988322D01*
X141362476Y-129051581D01*
X141180086Y-129144515D01*
X141014486Y-129264828D01*
X140869728Y-129409586D01*
X140749415Y-129575186D01*
X140656481Y-129757576D01*
X140594631Y-129947931D01*
X140555193Y-130005606D01*
X140490834Y-130032804D01*
X140421988Y-130020889D01*
X140370512Y-129973645D01*
X140358769Y-129947931D01*
X140296918Y-129757576D01*
X140263203Y-129691407D01*
X140203987Y-129575190D01*
X140196256Y-129564549D01*
X140083671Y-129409586D01*
X139938913Y-129264828D01*
X139773313Y-129144515D01*
X139773312Y-129144514D01*
X139773310Y-129144513D01*
X139716353Y-129115491D01*
X139590923Y-129051581D01*
X139396234Y-128988322D01*
X139216049Y-128959784D01*
X139194052Y-128956300D01*
X138989348Y-128956300D01*
X138967351Y-128959784D01*
X138787165Y-128988322D01*
X138592476Y-129051581D01*
X138410086Y-129144515D01*
X138244486Y-129264828D01*
X138099728Y-129409586D01*
X137979415Y-129575186D01*
X137886481Y-129757576D01*
X137824631Y-129947931D01*
X137785193Y-130005606D01*
X137720834Y-130032804D01*
X137651988Y-130020889D01*
X137600512Y-129973645D01*
X137588769Y-129947931D01*
X137526918Y-129757576D01*
X137493203Y-129691407D01*
X137433987Y-129575190D01*
X137426256Y-129564549D01*
X137313671Y-129409586D01*
X137168913Y-129264828D01*
X137003313Y-129144515D01*
X137003312Y-129144514D01*
X137003310Y-129144513D01*
X136946353Y-129115491D01*
X136820923Y-129051581D01*
X136626234Y-128988322D01*
X136471721Y-128963850D01*
X136408586Y-128933921D01*
X136371655Y-128874609D01*
X136372653Y-128804747D01*
X136403438Y-128753696D01*
X136499754Y-128657380D01*
X136720239Y-128436894D01*
X136781561Y-128403411D01*
X136851253Y-128408395D01*
X136880804Y-128424259D01*
X137025085Y-128529084D01*
X137025087Y-128529085D01*
X137025090Y-128529087D01*
X137079093Y-128556603D01*
X137207476Y-128622018D01*
X137207478Y-128622018D01*
X137207481Y-128622020D01*
X137294527Y-128650303D01*
X137402165Y-128685277D01*
X137470233Y-128696058D01*
X137604348Y-128717300D01*
X137604349Y-128717300D01*
X137809051Y-128717300D01*
X137809052Y-128717300D01*
X138011234Y-128685277D01*
X138205919Y-128622020D01*
X138388310Y-128529087D01*
X138532595Y-128424259D01*
X138553913Y-128408771D01*
X138553915Y-128408768D01*
X138553919Y-128408766D01*
X138698666Y-128264019D01*
X138698668Y-128264015D01*
X138698671Y-128264013D01*
X138751432Y-128191390D01*
X138818987Y-128098410D01*
X138911920Y-127916019D01*
X138973769Y-127725668D01*
X139013207Y-127667993D01*
X139077566Y-127640795D01*
X139146412Y-127652710D01*
X139197888Y-127699954D01*
X139209631Y-127725668D01*
X139271481Y-127916023D01*
X139364415Y-128098413D01*
X139484728Y-128264013D01*
X139629486Y-128408771D01*
X139753316Y-128498737D01*
X139795090Y-128529087D01*
X139898753Y-128581906D01*
X139977476Y-128622018D01*
X139977478Y-128622018D01*
X139977481Y-128622020D01*
X140064527Y-128650303D01*
X140172165Y-128685277D01*
X140240233Y-128696058D01*
X140374348Y-128717300D01*
X140374349Y-128717300D01*
X140579051Y-128717300D01*
X140579052Y-128717300D01*
X140781234Y-128685277D01*
X140975919Y-128622020D01*
X141158310Y-128529087D01*
X141302595Y-128424259D01*
X141323913Y-128408771D01*
X141323915Y-128408768D01*
X141323919Y-128408766D01*
X141468666Y-128264019D01*
X141468668Y-128264015D01*
X141468671Y-128264013D01*
X141521432Y-128191390D01*
X141588987Y-128098410D01*
X141681920Y-127916019D01*
X141743769Y-127725668D01*
X141783207Y-127667993D01*
X141847566Y-127640795D01*
X141916412Y-127652710D01*
X141967888Y-127699954D01*
X141979631Y-127725668D01*
X142041481Y-127916023D01*
X142134415Y-128098413D01*
X142254728Y-128264013D01*
X142399486Y-128408771D01*
X142523316Y-128498737D01*
X142565090Y-128529087D01*
X142668753Y-128581906D01*
X142747476Y-128622018D01*
X142747478Y-128622018D01*
X142747481Y-128622020D01*
X142834527Y-128650303D01*
X142942165Y-128685277D01*
X143010233Y-128696058D01*
X143144348Y-128717300D01*
X143144349Y-128717300D01*
X143349051Y-128717300D01*
X143349052Y-128717300D01*
X143551234Y-128685277D01*
X143745919Y-128622020D01*
X143928310Y-128529087D01*
X144072595Y-128424259D01*
X144093913Y-128408771D01*
X144093915Y-128408768D01*
X144093919Y-128408766D01*
X144238666Y-128264019D01*
X144238668Y-128264015D01*
X144238671Y-128264013D01*
X144291432Y-128191390D01*
X144358987Y-128098410D01*
X144451920Y-127916019D01*
X144513769Y-127725668D01*
X144553207Y-127667993D01*
X144617566Y-127640795D01*
X144686412Y-127652710D01*
G37*
%TD.AperFunction*%
%TA.AperFunction,NonConductor*%
G36*
X132904314Y-128581906D02*
G01*
X132944571Y-128639012D01*
X132951200Y-128679011D01*
X132951200Y-129027197D01*
X132931515Y-129094236D01*
X132883500Y-129137679D01*
X132870089Y-129144512D01*
X132704486Y-129264828D01*
X132559728Y-129409586D01*
X132439415Y-129575186D01*
X132346481Y-129757576D01*
X132284631Y-129947931D01*
X132245193Y-130005606D01*
X132180834Y-130032804D01*
X132111988Y-130020889D01*
X132060512Y-129973645D01*
X132048769Y-129947931D01*
X131986918Y-129757576D01*
X131953203Y-129691407D01*
X131893987Y-129575190D01*
X131886256Y-129564549D01*
X131773671Y-129409586D01*
X131628913Y-129264828D01*
X131463310Y-129144512D01*
X131449900Y-129137679D01*
X131399106Y-129089703D01*
X131382200Y-129027197D01*
X131382200Y-128679011D01*
X131401885Y-128611972D01*
X131454689Y-128566217D01*
X131523847Y-128556273D01*
X131562493Y-128568526D01*
X131588753Y-128581906D01*
X131667474Y-128622017D01*
X131667477Y-128622017D01*
X131667481Y-128622020D01*
X131781688Y-128659128D01*
X131862165Y-128685277D01*
X131930233Y-128696058D01*
X132064348Y-128717300D01*
X132064349Y-128717300D01*
X132269051Y-128717300D01*
X132269052Y-128717300D01*
X132471234Y-128685277D01*
X132665919Y-128622020D01*
X132770905Y-128568526D01*
X132839573Y-128555630D01*
X132904314Y-128581906D01*
G37*
%TD.AperFunction*%
%TA.AperFunction,NonConductor*%
G36*
X128028634Y-127646171D02*
G01*
X128059969Y-127649767D01*
X128062804Y-127652085D01*
X128066412Y-127652710D01*
X128089648Y-127674036D01*
X128114058Y-127693996D01*
X128116246Y-127698447D01*
X128117888Y-127699954D01*
X128129631Y-127725668D01*
X128191481Y-127916023D01*
X128284415Y-128098413D01*
X128404728Y-128264013D01*
X128549486Y-128408771D01*
X128673316Y-128498737D01*
X128715090Y-128529087D01*
X128818753Y-128581906D01*
X128897476Y-128622018D01*
X128897478Y-128622018D01*
X128897481Y-128622020D01*
X128984527Y-128650303D01*
X129092165Y-128685277D01*
X129160233Y-128696058D01*
X129294348Y-128717300D01*
X129294349Y-128717300D01*
X129499051Y-128717300D01*
X129499052Y-128717300D01*
X129701234Y-128685277D01*
X129895919Y-128622020D01*
X130000905Y-128568526D01*
X130069573Y-128555630D01*
X130134314Y-128581906D01*
X130174571Y-128639012D01*
X130181200Y-128679011D01*
X130181200Y-129027197D01*
X130161515Y-129094236D01*
X130113500Y-129137679D01*
X130100089Y-129144512D01*
X129934486Y-129264828D01*
X129789728Y-129409586D01*
X129669415Y-129575186D01*
X129576481Y-129757576D01*
X129514631Y-129947931D01*
X129475193Y-130005606D01*
X129410834Y-130032804D01*
X129341988Y-130020889D01*
X129290512Y-129973645D01*
X129278769Y-129947931D01*
X129216918Y-129757576D01*
X129183203Y-129691407D01*
X129123987Y-129575190D01*
X129116256Y-129564549D01*
X129003671Y-129409586D01*
X128858913Y-129264828D01*
X128693313Y-129144515D01*
X128693312Y-129144514D01*
X128693310Y-129144513D01*
X128636353Y-129115491D01*
X128510923Y-129051581D01*
X128316234Y-128988322D01*
X128136049Y-128959784D01*
X128114052Y-128956300D01*
X127909348Y-128956300D01*
X127887351Y-128959784D01*
X127707165Y-128988322D01*
X127512476Y-129051581D01*
X127330086Y-129144515D01*
X127164486Y-129264828D01*
X127019728Y-129409586D01*
X126899415Y-129575186D01*
X126806481Y-129757576D01*
X126744631Y-129947931D01*
X126705193Y-130005606D01*
X126640834Y-130032804D01*
X126571988Y-130020889D01*
X126520512Y-129973645D01*
X126508769Y-129947931D01*
X126446918Y-129757576D01*
X126413203Y-129691407D01*
X126353987Y-129575190D01*
X126346256Y-129564549D01*
X126233671Y-129409586D01*
X126088913Y-129264828D01*
X125923313Y-129144515D01*
X125923312Y-129144514D01*
X125923310Y-129144513D01*
X125866353Y-129115491D01*
X125740923Y-129051581D01*
X125546234Y-128988322D01*
X125366049Y-128959784D01*
X125344052Y-128956300D01*
X125139348Y-128956300D01*
X125117351Y-128959784D01*
X124937165Y-128988322D01*
X124742476Y-129051581D01*
X124560086Y-129144515D01*
X124394486Y-129264828D01*
X124249728Y-129409586D01*
X124129415Y-129575186D01*
X124036481Y-129757576D01*
X123974631Y-129947931D01*
X123935193Y-130005606D01*
X123870834Y-130032804D01*
X123801988Y-130020889D01*
X123750512Y-129973645D01*
X123738769Y-129947931D01*
X123676918Y-129757576D01*
X123643203Y-129691407D01*
X123583987Y-129575190D01*
X123576256Y-129564549D01*
X123463671Y-129409586D01*
X123318913Y-129264828D01*
X123153310Y-129144512D01*
X123139900Y-129137679D01*
X123089106Y-129089703D01*
X123072200Y-129027197D01*
X123072200Y-128679011D01*
X123091885Y-128611972D01*
X123144689Y-128566217D01*
X123213847Y-128556273D01*
X123252493Y-128568526D01*
X123278753Y-128581906D01*
X123357474Y-128622017D01*
X123357477Y-128622017D01*
X123357481Y-128622020D01*
X123471688Y-128659128D01*
X123552165Y-128685277D01*
X123620233Y-128696058D01*
X123754348Y-128717300D01*
X123754349Y-128717300D01*
X123959051Y-128717300D01*
X123959052Y-128717300D01*
X124161234Y-128685277D01*
X124355919Y-128622020D01*
X124538310Y-128529087D01*
X124682595Y-128424259D01*
X124703913Y-128408771D01*
X124703915Y-128408768D01*
X124703919Y-128408766D01*
X124848666Y-128264019D01*
X124848668Y-128264015D01*
X124848671Y-128264013D01*
X124901432Y-128191390D01*
X124968987Y-128098410D01*
X125061920Y-127916019D01*
X125123769Y-127725668D01*
X125163207Y-127667993D01*
X125227566Y-127640795D01*
X125296412Y-127652710D01*
X125347888Y-127699954D01*
X125359631Y-127725668D01*
X125421481Y-127916023D01*
X125514415Y-128098413D01*
X125634728Y-128264013D01*
X125779486Y-128408771D01*
X125903316Y-128498737D01*
X125945090Y-128529087D01*
X126048753Y-128581906D01*
X126127476Y-128622018D01*
X126127478Y-128622018D01*
X126127481Y-128622020D01*
X126214527Y-128650303D01*
X126322165Y-128685277D01*
X126390233Y-128696058D01*
X126524348Y-128717300D01*
X126524349Y-128717300D01*
X126729051Y-128717300D01*
X126729052Y-128717300D01*
X126931234Y-128685277D01*
X127125919Y-128622020D01*
X127308310Y-128529087D01*
X127452595Y-128424259D01*
X127473913Y-128408771D01*
X127473915Y-128408768D01*
X127473919Y-128408766D01*
X127618666Y-128264019D01*
X127618668Y-128264015D01*
X127618671Y-128264013D01*
X127671432Y-128191390D01*
X127738987Y-128098410D01*
X127831920Y-127916019D01*
X127893769Y-127725668D01*
X127911570Y-127699635D01*
X127927854Y-127672631D01*
X127931140Y-127671015D01*
X127933207Y-127667993D01*
X127962252Y-127655718D01*
X127990555Y-127641803D01*
X127994193Y-127642220D01*
X127997566Y-127640795D01*
X128028634Y-127646171D01*
G37*
%TD.AperFunction*%
%TA.AperFunction,NonConductor*%
G36*
X121824314Y-128581906D02*
G01*
X121864571Y-128639012D01*
X121871200Y-128679011D01*
X121871200Y-129027197D01*
X121851515Y-129094236D01*
X121803500Y-129137679D01*
X121790089Y-129144512D01*
X121624486Y-129264828D01*
X121479728Y-129409586D01*
X121359415Y-129575186D01*
X121266481Y-129757576D01*
X121204631Y-129947931D01*
X121165193Y-130005606D01*
X121100834Y-130032804D01*
X121031988Y-130020889D01*
X120980512Y-129973645D01*
X120968769Y-129947931D01*
X120906918Y-129757576D01*
X120873203Y-129691407D01*
X120813987Y-129575190D01*
X120806256Y-129564549D01*
X120693671Y-129409586D01*
X120548915Y-129264830D01*
X120547516Y-129263814D01*
X120547112Y-129263290D01*
X120545206Y-129261662D01*
X120545547Y-129261261D01*
X120504849Y-129208485D01*
X120496400Y-129163495D01*
X120496400Y-128763097D01*
X120516085Y-128696058D01*
X120568889Y-128650303D01*
X120638047Y-128640359D01*
X120658712Y-128645164D01*
X120737552Y-128670781D01*
X120782165Y-128685277D01*
X120850233Y-128696058D01*
X120984348Y-128717300D01*
X120984349Y-128717300D01*
X121189051Y-128717300D01*
X121189052Y-128717300D01*
X121391234Y-128685277D01*
X121585919Y-128622020D01*
X121690905Y-128568526D01*
X121759573Y-128555630D01*
X121824314Y-128581906D01*
G37*
%TD.AperFunction*%
%TA.AperFunction,NonConductor*%
G36*
X119232375Y-128448631D02*
G01*
X119281070Y-128498737D01*
X119295400Y-128556603D01*
X119295400Y-128931297D01*
X119275715Y-128998336D01*
X119222911Y-129044091D01*
X119209726Y-129049225D01*
X119202482Y-129051579D01*
X119020086Y-129144515D01*
X118854486Y-129264828D01*
X118709728Y-129409586D01*
X118589415Y-129575186D01*
X118496481Y-129757576D01*
X118434631Y-129947931D01*
X118395193Y-130005606D01*
X118330834Y-130032804D01*
X118261988Y-130020889D01*
X118210512Y-129973645D01*
X118198769Y-129947931D01*
X118136918Y-129757576D01*
X118103203Y-129691407D01*
X118043987Y-129575190D01*
X118036256Y-129564549D01*
X117923671Y-129409586D01*
X117778913Y-129264828D01*
X117613310Y-129144512D01*
X117599900Y-129137679D01*
X117549106Y-129089703D01*
X117532200Y-129027197D01*
X117532200Y-128679011D01*
X117551885Y-128611972D01*
X117604689Y-128566217D01*
X117673847Y-128556273D01*
X117712493Y-128568526D01*
X117738753Y-128581906D01*
X117817474Y-128622017D01*
X117817477Y-128622017D01*
X117817481Y-128622020D01*
X117931688Y-128659128D01*
X118012165Y-128685277D01*
X118080233Y-128696058D01*
X118214348Y-128717300D01*
X118214349Y-128717300D01*
X118419051Y-128717300D01*
X118419052Y-128717300D01*
X118621234Y-128685277D01*
X118815919Y-128622020D01*
X118998310Y-128529087D01*
X119056182Y-128487040D01*
X119098515Y-128456285D01*
X119164321Y-128432805D01*
X119232375Y-128448631D01*
G37*
%TD.AperFunction*%
M02*
