%TF.GenerationSoftware,KiCad,Pcbnew,9.0.3-1.fc42*%
%TF.CreationDate,2025-08-02T14:35:42+08:00*%
%TF.ProjectId,art-coffee-coaster,6172742d-636f-4666-9665-652d636f6173,rev?*%
%TF.SameCoordinates,Original*%
%TF.FileFunction,Legend,Bot*%
%TF.FilePolarity,Positive*%
%FSLAX46Y46*%
G04 Gerber Fmt 4.6, Leading zero omitted, Abs format (unit mm)*
G04 Created by KiCad (PCBNEW 9.0.3-1.fc42) date 2025-08-02 14:35:42*
%MOMM*%
%LPD*%
G01*
G04 APERTURE LIST*
G04 Aperture macros list*
%AMRoundRect*
0 Rectangle with rounded corners*
0 $1 Rounding radius*
0 $2 $3 $4 $5 $6 $7 $8 $9 X,Y pos of 4 corners*
0 Add a 4 corners polygon primitive as box body*
4,1,4,$2,$3,$4,$5,$6,$7,$8,$9,$2,$3,0*
0 Add four circle primitives for the rounded corners*
1,1,$1+$1,$2,$3*
1,1,$1+$1,$4,$5*
1,1,$1+$1,$6,$7*
1,1,$1+$1,$8,$9*
0 Add four rect primitives between the rounded corners*
20,1,$1+$1,$2,$3,$4,$5,0*
20,1,$1+$1,$4,$5,$6,$7,0*
20,1,$1+$1,$6,$7,$8,$9,0*
20,1,$1+$1,$8,$9,$2,$3,0*%
G04 Aperture macros list end*
%ADD10C,0.000000*%
%ADD11C,0.052916*%
%ADD12C,0.005291*%
%ADD13C,0.100000*%
%ADD14RoundRect,0.250000X-0.550000X-0.550000X0.550000X-0.550000X0.550000X0.550000X-0.550000X0.550000X0*%
%ADD15C,1.600000*%
%ADD16R,1.800000X1.800000*%
%ADD17C,1.800000*%
%ADD18R,1.050000X1.500000*%
%ADD19O,1.050000X1.500000*%
%ADD20R,1.600000X1.600000*%
%ADD21RoundRect,0.250000X0.550000X0.550000X-0.550000X0.550000X-0.550000X-0.550000X0.550000X-0.550000X0*%
G04 APERTURE END LIST*
D10*
G36*
X91857649Y-132162755D02*
G01*
X91871836Y-132163834D01*
X91885817Y-132165610D01*
X91899575Y-132168067D01*
X91913091Y-132171186D01*
X91926348Y-132174951D01*
X91939328Y-132179343D01*
X91952015Y-132184345D01*
X91964389Y-132189940D01*
X91976435Y-132196109D01*
X91988134Y-132202836D01*
X91999469Y-132210102D01*
X92010422Y-132217891D01*
X92020975Y-132226185D01*
X92031112Y-132234965D01*
X92040814Y-132244216D01*
X92050064Y-132253918D01*
X92058845Y-132264054D01*
X92067138Y-132274608D01*
X92074927Y-132285561D01*
X92082194Y-132296896D01*
X92088921Y-132308595D01*
X92095090Y-132320640D01*
X92100685Y-132333015D01*
X92105687Y-132345702D01*
X92110079Y-132358682D01*
X92113843Y-132371939D01*
X92116963Y-132385455D01*
X92119420Y-132399212D01*
X92121196Y-132413193D01*
X92122275Y-132427381D01*
X92122639Y-132441757D01*
X92122275Y-132456133D01*
X92121196Y-132470320D01*
X92119420Y-132484301D01*
X92116963Y-132498059D01*
X92113843Y-132511575D01*
X92110079Y-132524832D01*
X92105687Y-132537812D01*
X92100685Y-132550499D01*
X92095090Y-132562873D01*
X92088921Y-132574919D01*
X92082194Y-132586618D01*
X92074927Y-132597953D01*
X92067138Y-132608906D01*
X92058845Y-132619459D01*
X92050064Y-132629596D01*
X92040814Y-132639298D01*
X92031112Y-132648548D01*
X92020975Y-132657329D01*
X92010422Y-132665622D01*
X91999469Y-132673411D01*
X91988134Y-132680678D01*
X91976435Y-132687405D01*
X91964389Y-132693574D01*
X91952015Y-132699169D01*
X91939328Y-132704171D01*
X91926348Y-132708563D01*
X91913091Y-132712327D01*
X91899575Y-132715447D01*
X91885817Y-132717904D01*
X91871836Y-132719680D01*
X91857649Y-132720759D01*
X91843273Y-132721123D01*
X91828897Y-132720759D01*
X91814709Y-132719680D01*
X91800728Y-132717904D01*
X91786971Y-132715447D01*
X91773455Y-132712327D01*
X91760198Y-132708563D01*
X91747218Y-132704171D01*
X91734531Y-132699169D01*
X91722156Y-132693574D01*
X91710111Y-132687405D01*
X91698412Y-132680678D01*
X91687077Y-132673411D01*
X91676124Y-132665622D01*
X91665570Y-132657329D01*
X91655434Y-132648548D01*
X91645731Y-132639298D01*
X91636481Y-132629596D01*
X91627701Y-132619459D01*
X91619407Y-132608906D01*
X91611618Y-132597953D01*
X91604352Y-132586618D01*
X91597625Y-132574919D01*
X91591456Y-132562873D01*
X91585861Y-132550499D01*
X91580859Y-132537812D01*
X91576467Y-132524832D01*
X91572702Y-132511575D01*
X91569583Y-132498059D01*
X91567126Y-132484301D01*
X91565350Y-132470320D01*
X91564271Y-132456133D01*
X91563907Y-132441757D01*
X91564271Y-132427381D01*
X91565350Y-132413193D01*
X91567126Y-132399212D01*
X91569583Y-132385455D01*
X91572702Y-132371939D01*
X91576467Y-132358682D01*
X91580859Y-132345702D01*
X91585861Y-132333015D01*
X91591456Y-132320640D01*
X91597625Y-132308595D01*
X91604352Y-132296896D01*
X91611618Y-132285561D01*
X91619407Y-132274608D01*
X91627701Y-132264054D01*
X91636481Y-132253918D01*
X91645731Y-132244216D01*
X91655434Y-132234965D01*
X91665570Y-132226185D01*
X91676124Y-132217891D01*
X91687077Y-132210102D01*
X91698412Y-132202836D01*
X91710111Y-132196109D01*
X91722156Y-132189940D01*
X91734531Y-132184345D01*
X91747218Y-132179343D01*
X91760198Y-132174951D01*
X91773455Y-132171186D01*
X91786971Y-132168067D01*
X91800728Y-132165610D01*
X91814709Y-132163834D01*
X91828897Y-132162755D01*
X91843273Y-132162391D01*
X91857649Y-132162755D01*
G37*
G36*
X92057996Y-134860829D02*
G01*
X92072183Y-134861908D01*
X92086164Y-134863685D01*
X92099922Y-134866141D01*
X92113438Y-134869261D01*
X92126695Y-134873025D01*
X92139675Y-134877418D01*
X92152362Y-134882420D01*
X92164736Y-134888014D01*
X92176782Y-134894184D01*
X92188481Y-134900910D01*
X92199816Y-134908177D01*
X92210769Y-134915966D01*
X92221322Y-134924259D01*
X92231459Y-134933040D01*
X92241161Y-134942290D01*
X92250411Y-134951992D01*
X92259192Y-134962129D01*
X92267485Y-134972682D01*
X92275274Y-134983635D01*
X92282541Y-134994970D01*
X92289268Y-135006669D01*
X92295437Y-135018715D01*
X92301032Y-135031090D01*
X92306034Y-135043776D01*
X92310426Y-135056757D01*
X92314190Y-135070014D01*
X92317310Y-135083530D01*
X92319767Y-135097287D01*
X92321543Y-135111268D01*
X92322622Y-135125455D01*
X92322986Y-135139832D01*
X92322622Y-135154208D01*
X92321543Y-135168395D01*
X92319767Y-135182376D01*
X92317310Y-135196133D01*
X92314190Y-135209649D01*
X92310426Y-135222906D01*
X92306034Y-135235887D01*
X92301032Y-135248573D01*
X92295437Y-135260948D01*
X92289268Y-135272994D01*
X92282541Y-135284693D01*
X92275274Y-135296027D01*
X92267485Y-135306980D01*
X92259192Y-135317534D01*
X92250411Y-135327671D01*
X92241161Y-135337373D01*
X92231459Y-135346623D01*
X92221322Y-135355404D01*
X92210769Y-135363697D01*
X92199816Y-135371486D01*
X92188481Y-135378752D01*
X92176782Y-135385479D01*
X92164736Y-135391649D01*
X92152362Y-135397243D01*
X92139675Y-135402245D01*
X92126695Y-135406637D01*
X92113438Y-135410402D01*
X92099922Y-135413521D01*
X92086164Y-135415978D01*
X92072183Y-135417755D01*
X92057996Y-135418834D01*
X92043620Y-135419197D01*
X92029244Y-135418834D01*
X92015056Y-135417755D01*
X92001075Y-135415978D01*
X91987318Y-135413521D01*
X91973802Y-135410402D01*
X91960545Y-135406637D01*
X91947564Y-135402245D01*
X91934878Y-135397243D01*
X91922503Y-135391649D01*
X91910458Y-135385479D01*
X91898759Y-135378752D01*
X91887424Y-135371486D01*
X91876471Y-135363697D01*
X91865917Y-135355404D01*
X91855781Y-135346623D01*
X91846078Y-135337373D01*
X91836828Y-135327671D01*
X91828048Y-135317534D01*
X91819754Y-135306980D01*
X91811965Y-135296027D01*
X91804699Y-135284693D01*
X91797972Y-135272994D01*
X91791803Y-135260948D01*
X91786208Y-135248573D01*
X91781206Y-135235887D01*
X91776814Y-135222906D01*
X91773049Y-135209649D01*
X91769930Y-135196133D01*
X91767473Y-135182376D01*
X91765697Y-135168395D01*
X91764618Y-135154208D01*
X91764254Y-135139832D01*
X91764618Y-135125455D01*
X91765697Y-135111268D01*
X91767473Y-135097287D01*
X91769930Y-135083530D01*
X91773049Y-135070014D01*
X91776814Y-135056757D01*
X91781206Y-135043776D01*
X91786208Y-135031090D01*
X91791803Y-135018715D01*
X91797972Y-135006669D01*
X91804699Y-134994970D01*
X91811965Y-134983635D01*
X91819754Y-134972682D01*
X91828048Y-134962129D01*
X91836828Y-134951992D01*
X91846078Y-134942290D01*
X91855781Y-134933040D01*
X91865917Y-134924259D01*
X91876471Y-134915966D01*
X91887424Y-134908177D01*
X91898759Y-134900910D01*
X91910458Y-134894184D01*
X91922503Y-134888014D01*
X91934878Y-134882420D01*
X91947564Y-134877418D01*
X91960545Y-134873025D01*
X91973802Y-134869261D01*
X91987318Y-134866141D01*
X92001075Y-134863685D01*
X92015056Y-134861908D01*
X92029244Y-134860829D01*
X92043620Y-134860466D01*
X92057996Y-134860829D01*
G37*
D11*
X91206683Y-131372183D02*
X91243725Y-131372183D01*
X91249016Y-131377475D01*
X91286058Y-131377475D01*
X91291350Y-131382767D01*
X91328391Y-131382767D01*
X91333683Y-131388058D01*
X91376017Y-131388058D01*
X91381308Y-131393350D01*
X91413058Y-131393350D01*
X91418350Y-131398642D01*
X91450100Y-131398642D01*
X91455392Y-131403933D01*
X91487141Y-131403933D01*
X91492433Y-131409225D01*
X91524183Y-131409225D01*
X91529475Y-131414517D01*
X91566516Y-131414517D01*
X91571808Y-131419808D01*
X91603558Y-131419808D01*
X91608850Y-131425100D01*
X91645891Y-131425100D01*
X91651183Y-131430392D01*
X91682933Y-131430392D01*
X91688225Y-131435683D01*
X91719975Y-131435683D01*
X91725266Y-131440975D01*
X91762308Y-131440975D01*
X91767600Y-131446267D01*
X91804641Y-131446267D01*
X91809933Y-131451558D01*
X91841683Y-131451558D01*
X91846975Y-131456850D01*
X91889308Y-131456850D01*
X91894600Y-131462142D01*
X91926350Y-131462142D01*
X91931642Y-131467433D01*
X91968683Y-131467433D01*
X91973975Y-131472725D01*
X92011017Y-131472725D01*
X92016308Y-131478017D01*
X92048058Y-131478017D01*
X92053350Y-131483308D01*
X92085100Y-131483308D01*
X92090392Y-131488600D01*
X92127433Y-131488600D01*
X92132725Y-131493892D01*
X92164475Y-131493892D01*
X92169767Y-131499183D01*
X92201516Y-131499183D01*
X92206808Y-131504475D01*
X92238558Y-131504475D01*
X92243850Y-131509767D01*
X92259725Y-131509767D01*
X92265016Y-131515058D01*
X92270308Y-131515058D01*
X92275600Y-131520350D01*
X92280891Y-131520350D01*
X92296766Y-131536225D01*
X92296766Y-131541517D01*
X92302058Y-131546808D01*
X92302058Y-131552100D01*
X92307350Y-131557392D01*
X92307350Y-131589142D01*
X92302058Y-131594433D01*
X92302058Y-131620892D01*
X92296766Y-131626183D01*
X92296766Y-131652642D01*
X92291475Y-131657933D01*
X92291475Y-131689683D01*
X92286183Y-131694975D01*
X92286183Y-131721433D01*
X92280891Y-131726725D01*
X92280891Y-131753183D01*
X92275600Y-131758475D01*
X92275600Y-131784933D01*
X92270308Y-131790225D01*
X92270308Y-131816683D01*
X92265016Y-131821975D01*
X92265016Y-131848433D01*
X92259725Y-131853725D01*
X92259725Y-131880183D01*
X92254433Y-131885475D01*
X92254433Y-131911933D01*
X92249142Y-131917225D01*
X92249142Y-131943683D01*
X92243850Y-131948975D01*
X92243850Y-131975433D01*
X92238558Y-131980725D01*
X92238558Y-132028350D01*
X92233267Y-132033642D01*
X92233267Y-132065392D01*
X92227975Y-132070683D01*
X92227975Y-132102433D01*
X92222683Y-132107725D01*
X92222683Y-132134183D01*
X92217391Y-132139475D01*
X92217391Y-132165933D01*
X92212100Y-132171225D01*
X92212100Y-132197683D01*
X92206808Y-132202975D01*
X92206808Y-132229433D01*
X92201516Y-132234725D01*
X92201516Y-132261183D01*
X92196225Y-132266475D01*
X92196225Y-132287642D01*
X92190933Y-132292933D01*
X92190933Y-132319392D01*
X92185641Y-132324683D01*
X92185641Y-132351142D01*
X92180350Y-132356433D01*
X92180350Y-132377600D01*
X92175058Y-132382892D01*
X92175058Y-132409350D01*
X92169767Y-132414642D01*
X92169767Y-132435808D01*
X92164475Y-132441100D01*
X92164475Y-132467558D01*
X92159183Y-132472850D01*
X92159183Y-132494017D01*
X92153892Y-132499308D01*
X92153892Y-132520475D01*
X92148600Y-132525767D01*
X92148600Y-132557517D01*
X92143308Y-132562808D01*
X92143308Y-132589267D01*
X92138016Y-132594558D01*
X92138016Y-132626308D01*
X92132725Y-132631600D01*
X92132725Y-132658058D01*
X92127433Y-132663350D01*
X92127433Y-132684517D01*
X92122141Y-132689808D01*
X92122141Y-132716267D01*
X92116850Y-132721558D01*
X92116850Y-132742725D01*
X92111558Y-132748017D01*
X92111558Y-132769183D01*
X92106266Y-132774475D01*
X92106266Y-132800933D01*
X92100975Y-132806225D01*
X92100975Y-132832683D01*
X92095683Y-132837975D01*
X92095683Y-132864433D01*
X92090392Y-132869725D01*
X92090392Y-132890892D01*
X92085100Y-132896183D01*
X92085100Y-132917350D01*
X92079808Y-132922642D01*
X92079808Y-132943808D01*
X92074517Y-132949100D01*
X92074517Y-132975558D01*
X92069225Y-132980850D01*
X92069225Y-133007308D01*
X92063933Y-133012600D01*
X92063933Y-133054933D01*
X92058641Y-133060225D01*
X92058641Y-133118433D01*
X92053350Y-133123725D01*
X92058641Y-133129017D01*
X92058641Y-133134308D01*
X92053350Y-133139600D01*
X92053350Y-133187225D01*
X92048058Y-133192517D01*
X92053350Y-133197808D01*
X92048058Y-133203100D01*
X92048058Y-133240142D01*
X92042766Y-133245433D01*
X92042766Y-133303641D01*
X92037475Y-133308933D01*
X92037475Y-133414767D01*
X92042766Y-133420058D01*
X92042766Y-133462391D01*
X92048058Y-133467683D01*
X92048058Y-133494142D01*
X92053350Y-133499433D01*
X92053350Y-133520600D01*
X92058641Y-133525892D01*
X92058641Y-133541766D01*
X92063933Y-133547058D01*
X92063933Y-133562933D01*
X92069225Y-133568225D01*
X92069225Y-133584100D01*
X92074517Y-133589392D01*
X92074517Y-133599975D01*
X92079808Y-133605266D01*
X92079808Y-133615850D01*
X92085100Y-133621142D01*
X92085100Y-133631725D01*
X92090392Y-133637017D01*
X92090392Y-133647600D01*
X92095683Y-133652892D01*
X92095683Y-133663475D01*
X92100975Y-133668766D01*
X92100975Y-133679350D01*
X92106266Y-133684641D01*
X92106266Y-133689933D01*
X92111558Y-133695225D01*
X92111558Y-133700517D01*
X92122141Y-133711100D01*
X92122141Y-133716392D01*
X92127433Y-133721683D01*
X92127433Y-133732267D01*
X92143308Y-133748141D01*
X92143308Y-133753433D01*
X92148600Y-133758725D01*
X92148600Y-133764016D01*
X92159183Y-133774600D01*
X92159183Y-133779892D01*
X92164475Y-133785183D01*
X92164475Y-133790475D01*
X92175058Y-133801058D01*
X92175058Y-133806350D01*
X92180350Y-133811642D01*
X92180350Y-133816933D01*
X92190933Y-133827516D01*
X92190933Y-133832808D01*
X92201516Y-133843391D01*
X92201516Y-133848683D01*
X92206808Y-133853975D01*
X92206808Y-133859267D01*
X92217391Y-133869850D01*
X92217391Y-133875142D01*
X92222683Y-133880433D01*
X92222683Y-133885725D01*
X92227975Y-133891017D01*
X92227975Y-133896308D01*
X92238558Y-133906891D01*
X92238558Y-133912183D01*
X92243850Y-133917475D01*
X92243850Y-133922766D01*
X92254433Y-133933350D01*
X92254433Y-133938642D01*
X92259725Y-133943933D01*
X92259725Y-133949225D01*
X92265016Y-133954517D01*
X92265016Y-133959808D01*
X92275600Y-133970392D01*
X92275600Y-133975683D01*
X92280891Y-133980975D01*
X92280891Y-133986266D01*
X92286183Y-133991558D01*
X92286183Y-133996850D01*
X92296766Y-134007433D01*
X92296766Y-134012725D01*
X92302058Y-134018017D01*
X92302058Y-134023308D01*
X92307350Y-134028600D01*
X92307350Y-134033892D01*
X92317933Y-134044475D01*
X92317933Y-134049767D01*
X92323225Y-134055058D01*
X92323225Y-134060350D01*
X92328517Y-134065641D01*
X92328517Y-134070933D01*
X92339100Y-134081516D01*
X92339100Y-134086808D01*
X92344391Y-134092100D01*
X92344391Y-134097392D01*
X92349683Y-134102683D01*
X92349683Y-134107975D01*
X92360266Y-134118558D01*
X92360266Y-134123850D01*
X92365558Y-134129142D01*
X92365558Y-134134433D01*
X92370850Y-134139725D01*
X92370850Y-134145016D01*
X92376141Y-134150308D01*
X92376141Y-134155600D01*
X92386725Y-134166183D01*
X92386725Y-134171475D01*
X92392017Y-134176767D01*
X92392017Y-134182058D01*
X92402600Y-134192642D01*
X92402600Y-134203225D01*
X92413183Y-134213808D01*
X92413183Y-134219100D01*
X92423766Y-134229683D01*
X92423766Y-134234975D01*
X92434350Y-134245558D01*
X92434350Y-134250850D01*
X92439641Y-134256142D01*
X92439641Y-134261433D01*
X92444933Y-134266725D01*
X92444933Y-134272017D01*
X92455517Y-134282600D01*
X92455517Y-134287892D01*
X92460808Y-134293183D01*
X92460808Y-134298475D01*
X92471391Y-134309058D01*
X92471391Y-134314350D01*
X92476683Y-134319641D01*
X92476683Y-134324933D01*
X92487266Y-134335517D01*
X92487266Y-134340808D01*
X92492558Y-134346100D01*
X92492558Y-134351392D01*
X92503141Y-134361975D01*
X92503141Y-134367267D01*
X92508433Y-134372558D01*
X92508433Y-134377850D01*
X92519016Y-134388433D01*
X92519016Y-134393725D01*
X92524308Y-134399016D01*
X92524308Y-134404308D01*
X92529600Y-134409600D01*
X92529600Y-134414892D01*
X92540183Y-134425475D01*
X92540183Y-134430767D01*
X92545475Y-134436058D01*
X92545475Y-134441350D01*
X92556058Y-134451933D01*
X92556058Y-134457225D01*
X92561350Y-134462516D01*
X92561350Y-134467808D01*
X92571933Y-134478391D01*
X92571933Y-134483683D01*
X92577225Y-134488975D01*
X92577225Y-134494267D01*
X92587808Y-134504850D01*
X92587808Y-134510142D01*
X92598391Y-134520725D01*
X92598391Y-134526017D01*
X92603683Y-134531308D01*
X92603683Y-134536600D01*
X92608975Y-134541891D01*
X92608975Y-134547183D01*
X92614267Y-134552475D01*
X92614267Y-134557766D01*
X92624850Y-134568350D01*
X92624850Y-134573642D01*
X92630141Y-134578933D01*
X92630141Y-134584225D01*
X92635433Y-134589517D01*
X92635433Y-134594808D01*
X92646016Y-134605392D01*
X92646016Y-134615975D01*
X92656600Y-134626558D01*
X92656600Y-134631850D01*
X92661891Y-134637141D01*
X92661891Y-134642433D01*
X92667183Y-134647725D01*
X92667183Y-134653017D01*
X92672475Y-134658308D01*
X92672475Y-134663600D01*
X92677766Y-134668892D01*
X92677766Y-134674183D01*
X92683058Y-134679475D01*
X92683058Y-134684767D01*
X92688350Y-134690058D01*
X92688350Y-134695350D01*
X92693642Y-134700641D01*
X92693642Y-134705933D01*
X92704225Y-134716516D01*
X92704225Y-134721808D01*
X92709516Y-134727100D01*
X92709516Y-134732391D01*
X92714808Y-134737683D01*
X92714808Y-134742975D01*
X92720100Y-134748267D01*
X92720100Y-134753558D01*
X92725391Y-134758850D01*
X92725391Y-134769433D01*
X92730683Y-134774725D01*
X92730683Y-134780016D01*
X92735975Y-134785308D01*
X92735975Y-134790600D01*
X92741266Y-134795891D01*
X92741266Y-134801183D01*
X92746558Y-134806475D01*
X92746558Y-134817058D01*
X92751850Y-134822350D01*
X92751850Y-134827642D01*
X92757141Y-134832933D01*
X92757141Y-134838225D01*
X92762433Y-134843517D01*
X92762433Y-134854100D01*
X92767725Y-134859391D01*
X92767725Y-134869975D01*
X92773016Y-134875266D01*
X92773016Y-134885850D01*
X92778308Y-134891141D01*
X92778308Y-134901725D01*
X92783600Y-134907017D01*
X92783600Y-134912308D01*
X92788891Y-134917600D01*
X92788891Y-134933475D01*
X92794183Y-134938766D01*
X92794183Y-134949350D01*
X92799475Y-134954641D01*
X92799475Y-134970516D01*
X92804766Y-134975808D01*
X92804766Y-134991683D01*
X92810058Y-134996975D01*
X92810058Y-135018141D01*
X92815350Y-135023433D01*
X92815350Y-135055183D01*
X92820641Y-135060475D01*
X92820641Y-135187475D01*
X92815350Y-135192766D01*
X92815350Y-135224517D01*
X92810058Y-135229808D01*
X92810058Y-135250975D01*
X92804766Y-135256266D01*
X92804766Y-135272141D01*
X92799475Y-135277433D01*
X92799475Y-135293308D01*
X92794183Y-135298600D01*
X92794183Y-135309183D01*
X92788891Y-135314475D01*
X92788891Y-135325058D01*
X92783600Y-135330350D01*
X92783600Y-135335641D01*
X92778308Y-135340933D01*
X92778308Y-135351516D01*
X92773016Y-135356808D01*
X92773016Y-135362100D01*
X92767725Y-135367391D01*
X92767725Y-135372683D01*
X92762433Y-135377975D01*
X92762433Y-135383267D01*
X92757141Y-135388558D01*
X92757141Y-135393850D01*
X92751850Y-135399142D01*
X92751850Y-135404433D01*
X92746558Y-135409725D01*
X92746558Y-135415016D01*
X92741266Y-135420308D01*
X92741266Y-135425600D01*
X92730683Y-135436183D01*
X92730683Y-135441475D01*
X92720100Y-135452058D01*
X92720100Y-135457350D01*
X92704225Y-135473225D01*
X92704225Y-135478517D01*
X92677766Y-135504975D01*
X92677766Y-135510266D01*
X92635433Y-135552600D01*
X92630141Y-135552600D01*
X92608975Y-135573766D01*
X92603683Y-135573766D01*
X92587808Y-135589641D01*
X92582516Y-135589641D01*
X92571933Y-135600225D01*
X92566641Y-135600225D01*
X92556058Y-135610808D01*
X92550766Y-135610808D01*
X92540183Y-135621392D01*
X92534892Y-135621392D01*
X92529600Y-135626683D01*
X92524308Y-135626683D01*
X92519016Y-135631975D01*
X92513725Y-135631975D01*
X92508433Y-135637267D01*
X92503141Y-135637267D01*
X92497850Y-135642558D01*
X92492558Y-135642558D01*
X92487266Y-135647850D01*
X92481975Y-135647850D01*
X92476683Y-135653141D01*
X92471391Y-135653141D01*
X92466100Y-135658433D01*
X92460808Y-135658433D01*
X92455517Y-135663725D01*
X92450225Y-135663725D01*
X92444933Y-135669016D01*
X92434350Y-135669016D01*
X92429058Y-135674308D01*
X92418475Y-135674308D01*
X92413183Y-135679600D01*
X92402600Y-135679600D01*
X92397308Y-135684891D01*
X92381433Y-135684891D01*
X92376141Y-135690183D01*
X92354975Y-135690183D01*
X92349683Y-135695475D01*
X92328517Y-135695475D01*
X92323225Y-135700767D01*
X92265016Y-135700767D01*
X92259725Y-135706058D01*
X92222683Y-135706058D01*
X92217391Y-135700767D01*
X92159183Y-135700767D01*
X92153892Y-135695475D01*
X92122141Y-135695475D01*
X92116850Y-135690183D01*
X92095683Y-135690183D01*
X92090392Y-135684891D01*
X92074517Y-135684891D01*
X92069225Y-135679600D01*
X92053350Y-135679600D01*
X92048058Y-135674308D01*
X92032183Y-135674308D01*
X92026891Y-135669016D01*
X92016308Y-135669016D01*
X92011017Y-135663725D01*
X92000433Y-135663725D01*
X91995142Y-135658433D01*
X91984558Y-135658433D01*
X91979266Y-135653141D01*
X91973975Y-135653141D01*
X91968683Y-135647850D01*
X91958100Y-135647850D01*
X91952808Y-135642558D01*
X91947516Y-135642558D01*
X91942225Y-135637267D01*
X91936933Y-135637267D01*
X91931642Y-135631975D01*
X91926350Y-135631975D01*
X91921058Y-135626683D01*
X91915767Y-135626683D01*
X91910475Y-135621392D01*
X91905183Y-135621392D01*
X91899891Y-135616100D01*
X91894600Y-135616100D01*
X91889308Y-135610808D01*
X91884016Y-135610808D01*
X91878725Y-135605516D01*
X91873433Y-135605516D01*
X91862850Y-135594933D01*
X91857558Y-135594933D01*
X91846975Y-135584350D01*
X91841683Y-135584350D01*
X91831100Y-135573766D01*
X91825808Y-135573766D01*
X91815225Y-135563183D01*
X91809933Y-135563183D01*
X91799350Y-135552600D01*
X91794058Y-135552600D01*
X91778183Y-135536725D01*
X91772892Y-135536725D01*
X91757017Y-135520850D01*
X91751725Y-135520850D01*
X91735850Y-135504975D01*
X91730558Y-135504975D01*
X91709391Y-135483808D01*
X91704100Y-135483808D01*
X91661766Y-135441475D01*
X91656475Y-135441475D01*
X91587683Y-135372683D01*
X91587683Y-135367391D01*
X91566516Y-135346225D01*
X91566516Y-135340933D01*
X91550641Y-135325058D01*
X91550641Y-135319767D01*
X91534767Y-135303892D01*
X91534767Y-135298600D01*
X91524183Y-135288016D01*
X91524183Y-135282725D01*
X91513600Y-135272141D01*
X91513600Y-135266850D01*
X91508308Y-135261558D01*
X91508308Y-135256266D01*
X91497725Y-135245683D01*
X91497725Y-135240392D01*
X91487141Y-135229808D01*
X91487141Y-135224517D01*
X91481850Y-135219225D01*
X91481850Y-135213933D01*
X91471266Y-135203350D01*
X91471266Y-135198058D01*
X91465975Y-135192766D01*
X91465975Y-135187475D01*
X91460683Y-135182183D01*
X91460683Y-135176891D01*
X91450100Y-135166308D01*
X91450100Y-135161017D01*
X91444808Y-135155725D01*
X91444808Y-135150433D01*
X91439517Y-135145142D01*
X91439517Y-135139850D01*
X91434225Y-135134558D01*
X91434225Y-135129266D01*
X91428933Y-135123975D01*
X91428933Y-135118683D01*
X91418350Y-135108100D01*
X91418350Y-135102808D01*
X91413058Y-135097516D01*
X91413058Y-135092225D01*
X91407766Y-135086933D01*
X91407766Y-135081642D01*
X91402475Y-135076350D01*
X91402475Y-135071058D01*
X91397183Y-135065767D01*
X91397183Y-135060475D01*
X91391891Y-135055183D01*
X91391891Y-135049891D01*
X91386600Y-135044600D01*
X91386600Y-135039308D01*
X91381308Y-135034016D01*
X91381308Y-135028725D01*
X91370725Y-135018141D01*
X91370725Y-135007558D01*
X91360142Y-134996975D01*
X91360142Y-134991683D01*
X91354850Y-134986392D01*
X91354850Y-134981100D01*
X91349558Y-134975808D01*
X91349558Y-134970516D01*
X91344266Y-134965225D01*
X91344266Y-134959933D01*
X91338975Y-134954641D01*
X91338975Y-134949350D01*
X91333683Y-134944058D01*
X91333683Y-134938766D01*
X91323100Y-134928183D01*
X91323100Y-134922892D01*
X91317808Y-134917600D01*
X91317808Y-134912308D01*
X91312516Y-134907017D01*
X91312516Y-134901725D01*
X91307225Y-134896433D01*
X91307225Y-134891141D01*
X91301933Y-134885850D01*
X91301933Y-134880558D01*
X91296642Y-134875266D01*
X91296642Y-134869975D01*
X91286058Y-134859391D01*
X91286058Y-134854100D01*
X91280767Y-134848808D01*
X91280767Y-134843517D01*
X91275475Y-134838225D01*
X91275475Y-134832933D01*
X91270183Y-134827642D01*
X91270183Y-134822350D01*
X91264892Y-134817058D01*
X91264892Y-134811766D01*
X91254308Y-134801183D01*
X91254308Y-134795891D01*
X91249016Y-134790600D01*
X91249016Y-134785308D01*
X91243725Y-134780016D01*
X91243725Y-134774725D01*
X91238433Y-134769433D01*
X91238433Y-134764142D01*
X91227850Y-134753558D01*
X91227850Y-134748267D01*
X91222558Y-134742975D01*
X91222558Y-134737683D01*
X91217267Y-134732391D01*
X91217267Y-134727100D01*
X91211975Y-134721808D01*
X91211975Y-134716516D01*
X91206683Y-134711225D01*
X91206683Y-134705933D01*
X91196100Y-134695350D01*
X91196100Y-134690058D01*
X91190808Y-134684767D01*
X91190808Y-134679475D01*
X91185517Y-134674183D01*
X91185517Y-134668892D01*
X91174933Y-134658308D01*
X91174933Y-134653017D01*
X91169641Y-134647725D01*
X91169641Y-134642433D01*
X91159058Y-134631850D01*
X91159058Y-134626558D01*
X91153766Y-134621266D01*
X91153766Y-134615975D01*
X91148475Y-134610683D01*
X91148475Y-134605392D01*
X91137892Y-134594808D01*
X91137892Y-134589517D01*
X91132600Y-134584225D01*
X91132600Y-134578933D01*
X91122017Y-134568350D01*
X91122017Y-134563058D01*
X91111433Y-134552475D01*
X91111433Y-134547183D01*
X91100850Y-134536600D01*
X91100850Y-134531308D01*
X91084975Y-134515433D01*
X91084975Y-134510142D01*
X91069100Y-134494267D01*
X91069100Y-134488975D01*
X91053225Y-134473100D01*
X91053225Y-134467808D01*
X91032058Y-134446642D01*
X91032058Y-134441350D01*
X91005600Y-134414892D01*
X91005600Y-134409600D01*
X90979142Y-134383141D01*
X90979142Y-134377850D01*
X90889183Y-134287892D01*
X90883892Y-134287892D01*
X90868017Y-134272017D01*
X90862725Y-134272017D01*
X90830975Y-134240266D01*
X90825683Y-134240266D01*
X90815100Y-134229683D01*
X90809808Y-134229683D01*
X90793933Y-134213808D01*
X90788642Y-134213808D01*
X90772766Y-134197933D01*
X90767475Y-134197933D01*
X90746308Y-134176767D01*
X90741017Y-134176767D01*
X90719850Y-134155600D01*
X90714558Y-134155600D01*
X90614016Y-134055058D01*
X90614016Y-134049767D01*
X90598141Y-134033892D01*
X90598141Y-134028600D01*
X90587558Y-134018017D01*
X90587558Y-134012725D01*
X90576975Y-134002141D01*
X90576975Y-133996850D01*
X90566392Y-133986266D01*
X90566392Y-133980975D01*
X90561100Y-133975683D01*
X90561100Y-133970392D01*
X90555808Y-133965100D01*
X90555808Y-133959808D01*
X90550517Y-133954517D01*
X90550517Y-133949225D01*
X90545225Y-133943933D01*
X90545225Y-133938642D01*
X90539933Y-133933350D01*
X90539933Y-133922766D01*
X90534641Y-133917475D01*
X90534641Y-133912183D01*
X90529350Y-133906891D01*
X90529350Y-133896308D01*
X90524058Y-133891017D01*
X90524058Y-133880433D01*
X90518766Y-133875142D01*
X90518766Y-133859267D01*
X90513475Y-133853975D01*
X90513475Y-133832808D01*
X90508183Y-133827516D01*
X90508183Y-133790475D01*
X90502892Y-133785183D01*
X90502892Y-133726975D01*
X90508183Y-133721683D01*
X90508183Y-133684641D01*
X90513475Y-133679350D01*
X90513475Y-133663475D01*
X90518766Y-133658183D01*
X90518766Y-133642308D01*
X90524058Y-133637017D01*
X90524058Y-133626433D01*
X90529350Y-133621142D01*
X90529350Y-133610558D01*
X90534641Y-133605266D01*
X90534641Y-133599975D01*
X90539933Y-133594683D01*
X90539933Y-133589392D01*
X90545225Y-133584100D01*
X90545225Y-133578808D01*
X90550517Y-133573517D01*
X90550517Y-133562933D01*
X90561100Y-133552350D01*
X90561100Y-133547058D01*
X90566392Y-133541766D01*
X90566392Y-133536475D01*
X90571683Y-133531183D01*
X90571683Y-133525892D01*
X90582267Y-133515308D01*
X90582267Y-133510017D01*
X90592850Y-133499433D01*
X90592850Y-133494142D01*
X90603433Y-133483558D01*
X90603433Y-133478267D01*
X90619308Y-133462391D01*
X90619308Y-133457100D01*
X90629892Y-133446517D01*
X90629892Y-133441225D01*
X90645767Y-133425350D01*
X90645767Y-133420058D01*
X90656350Y-133409475D01*
X90656350Y-133404183D01*
X90666933Y-133393600D01*
X90666933Y-133388308D01*
X90682808Y-133372433D01*
X90682808Y-133367142D01*
X90693391Y-133356558D01*
X90693391Y-133351267D01*
X90709267Y-133335392D01*
X90709267Y-133330100D01*
X90719850Y-133319517D01*
X90719850Y-133314225D01*
X90730433Y-133303641D01*
X90730433Y-133298350D01*
X90741017Y-133287767D01*
X90741017Y-133282475D01*
X90751600Y-133271892D01*
X90751600Y-133266600D01*
X90756891Y-133261308D01*
X90756891Y-133256017D01*
X90762183Y-133250725D01*
X90762183Y-133245433D01*
X90767475Y-133240142D01*
X90767475Y-133234850D01*
X90772766Y-133229558D01*
X90772766Y-133218975D01*
X90778058Y-133213683D01*
X90778058Y-133208392D01*
X90783350Y-133203100D01*
X90783350Y-133197808D01*
X90788642Y-133192517D01*
X90788642Y-133187225D01*
X90793933Y-133181933D01*
X90793933Y-133171350D01*
X90799225Y-133166058D01*
X90799225Y-133160767D01*
X90809808Y-133150183D01*
X90804517Y-133144892D01*
X90809808Y-133139600D01*
X90809808Y-133134308D01*
X90815100Y-133129017D01*
X90815100Y-133118433D01*
X90820392Y-133113142D01*
X90820392Y-133102558D01*
X90825683Y-133097267D01*
X90825683Y-133081392D01*
X90830975Y-133076100D01*
X90830975Y-133054933D01*
X90836266Y-133049642D01*
X90836266Y-133033767D01*
X90841558Y-133028475D01*
X90841558Y-133012600D01*
X90846850Y-133007308D01*
X90846850Y-132991433D01*
X90852141Y-132986142D01*
X90852141Y-132964975D01*
X90857433Y-132959683D01*
X90857433Y-132943808D01*
X90862725Y-132938517D01*
X90862725Y-132922642D01*
X90868017Y-132917350D01*
X90868017Y-132901475D01*
X90873308Y-132896183D01*
X90873308Y-132880308D01*
X90878600Y-132875017D01*
X90878600Y-132853850D01*
X90883892Y-132848558D01*
X90883892Y-132827392D01*
X90889183Y-132822100D01*
X90889183Y-132795642D01*
X90894475Y-132790350D01*
X90894475Y-132758600D01*
X90899767Y-132753308D01*
X90899767Y-132721558D01*
X90905058Y-132716267D01*
X90905058Y-132684517D01*
X90910350Y-132679225D01*
X90910350Y-132642183D01*
X90915641Y-132636892D01*
X90915641Y-132610433D01*
X90920933Y-132605142D01*
X90920933Y-132568100D01*
X90926225Y-132562808D01*
X90926225Y-132531058D01*
X90931516Y-132525767D01*
X90931516Y-132504600D01*
X90936808Y-132499308D01*
X90936808Y-132467558D01*
X90942100Y-132462267D01*
X90942100Y-132430517D01*
X90947392Y-132425225D01*
X90947392Y-132398767D01*
X90952683Y-132393475D01*
X90952683Y-132367017D01*
X90957975Y-132361725D01*
X90957975Y-132335267D01*
X90963267Y-132329975D01*
X90963267Y-132308808D01*
X90968558Y-132303517D01*
X90968558Y-132282350D01*
X90973850Y-132277058D01*
X90973850Y-132250600D01*
X90979142Y-132245308D01*
X90979142Y-132213558D01*
X90984433Y-132208267D01*
X90984433Y-132176517D01*
X90989725Y-132171225D01*
X90989725Y-132144767D01*
X90995016Y-132139475D01*
X90995016Y-132113017D01*
X91000308Y-132107725D01*
X91000308Y-132075975D01*
X91005600Y-132070683D01*
X91005600Y-132038933D01*
X91010891Y-132033642D01*
X91010891Y-131996600D01*
X91016183Y-131991308D01*
X91016183Y-131964850D01*
X91021475Y-131959558D01*
X91021475Y-131927808D01*
X91026767Y-131922517D01*
X91026767Y-131896058D01*
X91032058Y-131890767D01*
X91032058Y-131864308D01*
X91037350Y-131859017D01*
X91037350Y-131832558D01*
X91042642Y-131827267D01*
X91042642Y-131800808D01*
X91047933Y-131795517D01*
X91047933Y-131769058D01*
X91053225Y-131763767D01*
X91053225Y-131737308D01*
X91058517Y-131732017D01*
X91058517Y-131700267D01*
X91063808Y-131694975D01*
X91063808Y-131668517D01*
X91069100Y-131663225D01*
X91069100Y-131631475D01*
X91074391Y-131626183D01*
X91074391Y-131599725D01*
X91079683Y-131594433D01*
X91079683Y-131567975D01*
X91084975Y-131562683D01*
X91084975Y-131536225D01*
X91090266Y-131530933D01*
X91090266Y-131499183D01*
X91095558Y-131493892D01*
X91095558Y-131467433D01*
X91100850Y-131462142D01*
X91100850Y-131430392D01*
X91106142Y-131425100D01*
X91106142Y-131414517D01*
X91111433Y-131409225D01*
X91111433Y-131398642D01*
X91132600Y-131377475D01*
X91137892Y-131377475D01*
X91143183Y-131372183D01*
X91153766Y-131372183D01*
X91159058Y-131366892D01*
X91201392Y-131366892D01*
X91206683Y-131372183D01*
D10*
G36*
X91850152Y-133858772D02*
G01*
X91864340Y-133859851D01*
X91878321Y-133861627D01*
X91892078Y-133864084D01*
X91905594Y-133867204D01*
X91918851Y-133870968D01*
X91931831Y-133875360D01*
X91944518Y-133880362D01*
X91956893Y-133885957D01*
X91968938Y-133892126D01*
X91980637Y-133898853D01*
X91991972Y-133906120D01*
X92002925Y-133913909D01*
X92013479Y-133922202D01*
X92023615Y-133930983D01*
X92033318Y-133940233D01*
X92042568Y-133949935D01*
X92051348Y-133960072D01*
X92059642Y-133970625D01*
X92067431Y-133981578D01*
X92074697Y-133992913D01*
X92081424Y-134004612D01*
X92087593Y-134016658D01*
X92093188Y-134029032D01*
X92098190Y-134041719D01*
X92102582Y-134054699D01*
X92106347Y-134067956D01*
X92109466Y-134081472D01*
X92111923Y-134095229D01*
X92113700Y-134109211D01*
X92114778Y-134123398D01*
X92115142Y-134137774D01*
X92114778Y-134152150D01*
X92113700Y-134166338D01*
X92111923Y-134180319D01*
X92109466Y-134194076D01*
X92106347Y-134207592D01*
X92102582Y-134220849D01*
X92098190Y-134233829D01*
X92093188Y-134246516D01*
X92087593Y-134258891D01*
X92081424Y-134270936D01*
X92074697Y-134282635D01*
X92067431Y-134293970D01*
X92059642Y-134304923D01*
X92051348Y-134315477D01*
X92042568Y-134325613D01*
X92033318Y-134335315D01*
X92023615Y-134344566D01*
X92013479Y-134353346D01*
X92002925Y-134361640D01*
X91991972Y-134369428D01*
X91980637Y-134376695D01*
X91968938Y-134383422D01*
X91956893Y-134389591D01*
X91944518Y-134395186D01*
X91931831Y-134400188D01*
X91918851Y-134404580D01*
X91905594Y-134408345D01*
X91892078Y-134411464D01*
X91878321Y-134413921D01*
X91864340Y-134415698D01*
X91850152Y-134416776D01*
X91835776Y-134417140D01*
X91821400Y-134416776D01*
X91807213Y-134415698D01*
X91793231Y-134413921D01*
X91779474Y-134411464D01*
X91765958Y-134408345D01*
X91752701Y-134404580D01*
X91739721Y-134400188D01*
X91727034Y-134395186D01*
X91714660Y-134389591D01*
X91702614Y-134383422D01*
X91690915Y-134376695D01*
X91679580Y-134369428D01*
X91668627Y-134361640D01*
X91658074Y-134353346D01*
X91647937Y-134344566D01*
X91638235Y-134335315D01*
X91628985Y-134325613D01*
X91620204Y-134315477D01*
X91611911Y-134304923D01*
X91604122Y-134293970D01*
X91596855Y-134282635D01*
X91590128Y-134270936D01*
X91583959Y-134258891D01*
X91578364Y-134246516D01*
X91573362Y-134233829D01*
X91568970Y-134220849D01*
X91565206Y-134207592D01*
X91562086Y-134194076D01*
X91559629Y-134180319D01*
X91557853Y-134166338D01*
X91556774Y-134152150D01*
X91556411Y-134137774D01*
X91556774Y-134123398D01*
X91557853Y-134109211D01*
X91559629Y-134095229D01*
X91562086Y-134081472D01*
X91565206Y-134067956D01*
X91568970Y-134054699D01*
X91573362Y-134041719D01*
X91578364Y-134029032D01*
X91583959Y-134016658D01*
X91590128Y-134004612D01*
X91596855Y-133992913D01*
X91604122Y-133981578D01*
X91611911Y-133970625D01*
X91620204Y-133960072D01*
X91628985Y-133949935D01*
X91638235Y-133940233D01*
X91647937Y-133930983D01*
X91658074Y-133922202D01*
X91668627Y-133913909D01*
X91679580Y-133906120D01*
X91690915Y-133898853D01*
X91702614Y-133892126D01*
X91714660Y-133885957D01*
X91727034Y-133880362D01*
X91739721Y-133875360D01*
X91752701Y-133870968D01*
X91765958Y-133867204D01*
X91779474Y-133864084D01*
X91793231Y-133861627D01*
X91807213Y-133859851D01*
X91821400Y-133858772D01*
X91835776Y-133858408D01*
X91850152Y-133858772D01*
G37*
G36*
X91337654Y-132730854D02*
G01*
X91351841Y-132731933D01*
X91365823Y-132733709D01*
X91379580Y-132736166D01*
X91393096Y-132739285D01*
X91406353Y-132743050D01*
X91419333Y-132747442D01*
X91432020Y-132752444D01*
X91444394Y-132758039D01*
X91456440Y-132764208D01*
X91468139Y-132770935D01*
X91479474Y-132778202D01*
X91490427Y-132785990D01*
X91500980Y-132794284D01*
X91511117Y-132803064D01*
X91520819Y-132812315D01*
X91530069Y-132822017D01*
X91538850Y-132832153D01*
X91547143Y-132842707D01*
X91554932Y-132853660D01*
X91562199Y-132864995D01*
X91568926Y-132876694D01*
X91575095Y-132888739D01*
X91580690Y-132901114D01*
X91585692Y-132913801D01*
X91590084Y-132926781D01*
X91593848Y-132940038D01*
X91596968Y-132953554D01*
X91599425Y-132967311D01*
X91601201Y-132981292D01*
X91602280Y-132995480D01*
X91602643Y-133009856D01*
X91602280Y-133024232D01*
X91601201Y-133038419D01*
X91599425Y-133052401D01*
X91596968Y-133066158D01*
X91593848Y-133079674D01*
X91590084Y-133092931D01*
X91585692Y-133105911D01*
X91580690Y-133118598D01*
X91575095Y-133130972D01*
X91568926Y-133143018D01*
X91562199Y-133154717D01*
X91554932Y-133166052D01*
X91547143Y-133177005D01*
X91538850Y-133187558D01*
X91530069Y-133197695D01*
X91520819Y-133207397D01*
X91511117Y-133216647D01*
X91500980Y-133225428D01*
X91490427Y-133233721D01*
X91479474Y-133241510D01*
X91468139Y-133248777D01*
X91456440Y-133255504D01*
X91444394Y-133261673D01*
X91432020Y-133267268D01*
X91419333Y-133272270D01*
X91406353Y-133276662D01*
X91393096Y-133280426D01*
X91379580Y-133283546D01*
X91365823Y-133286003D01*
X91351841Y-133287779D01*
X91337654Y-133288858D01*
X91323278Y-133289222D01*
X91308902Y-133288858D01*
X91294714Y-133287779D01*
X91280733Y-133286003D01*
X91266976Y-133283546D01*
X91253460Y-133280426D01*
X91240203Y-133276662D01*
X91227223Y-133272270D01*
X91214536Y-133267268D01*
X91202161Y-133261673D01*
X91190116Y-133255504D01*
X91178417Y-133248777D01*
X91167082Y-133241510D01*
X91156129Y-133233721D01*
X91145575Y-133225428D01*
X91135439Y-133216647D01*
X91125736Y-133207397D01*
X91116486Y-133197695D01*
X91107706Y-133187558D01*
X91099412Y-133177005D01*
X91091623Y-133166052D01*
X91084357Y-133154717D01*
X91077630Y-133143018D01*
X91071461Y-133130972D01*
X91065866Y-133118598D01*
X91060864Y-133105911D01*
X91056472Y-133092931D01*
X91052707Y-133079674D01*
X91049588Y-133066158D01*
X91047131Y-133052401D01*
X91045354Y-133038419D01*
X91044276Y-133024232D01*
X91043912Y-133009856D01*
X91044276Y-132995480D01*
X91045354Y-132981292D01*
X91047131Y-132967311D01*
X91049588Y-132953554D01*
X91052707Y-132940038D01*
X91056472Y-132926781D01*
X91060864Y-132913801D01*
X91065866Y-132901114D01*
X91071461Y-132888739D01*
X91077630Y-132876694D01*
X91084357Y-132864995D01*
X91091623Y-132853660D01*
X91099412Y-132842707D01*
X91107706Y-132832153D01*
X91116486Y-132822017D01*
X91125736Y-132812315D01*
X91135439Y-132803064D01*
X91145575Y-132794284D01*
X91156129Y-132785990D01*
X91167082Y-132778202D01*
X91178417Y-132770935D01*
X91190116Y-132764208D01*
X91202161Y-132758039D01*
X91214536Y-132752444D01*
X91227223Y-132747442D01*
X91240203Y-132743050D01*
X91253460Y-132739285D01*
X91266976Y-132736166D01*
X91280733Y-132733709D01*
X91294714Y-132731933D01*
X91308902Y-132730854D01*
X91323278Y-132730490D01*
X91337654Y-132730854D01*
G37*
G36*
X91163545Y-133563057D02*
G01*
X91177732Y-133564136D01*
X91191713Y-133565913D01*
X91205470Y-133568370D01*
X91218986Y-133571489D01*
X91232243Y-133575254D01*
X91245224Y-133579646D01*
X91257910Y-133584648D01*
X91270285Y-133590242D01*
X91282331Y-133596412D01*
X91294030Y-133603139D01*
X91305364Y-133610405D01*
X91316317Y-133618194D01*
X91326871Y-133626487D01*
X91337007Y-133635268D01*
X91346710Y-133644518D01*
X91355960Y-133654220D01*
X91364740Y-133664357D01*
X91373034Y-133674911D01*
X91380823Y-133685864D01*
X91388089Y-133697198D01*
X91394816Y-133708897D01*
X91400985Y-133720943D01*
X91406580Y-133733318D01*
X91411582Y-133746004D01*
X91415974Y-133758985D01*
X91419739Y-133772242D01*
X91422858Y-133785758D01*
X91425315Y-133799515D01*
X91427092Y-133813496D01*
X91428170Y-133827683D01*
X91428534Y-133842060D01*
X91428170Y-133856436D01*
X91427092Y-133870623D01*
X91425315Y-133884604D01*
X91422858Y-133898361D01*
X91419739Y-133911877D01*
X91415974Y-133925134D01*
X91411582Y-133938115D01*
X91406580Y-133950801D01*
X91400985Y-133963176D01*
X91394816Y-133975222D01*
X91388089Y-133986921D01*
X91380823Y-133998255D01*
X91373034Y-134009208D01*
X91364740Y-134019762D01*
X91355960Y-134029899D01*
X91346710Y-134039601D01*
X91337007Y-134048851D01*
X91326871Y-134057632D01*
X91316317Y-134065925D01*
X91305364Y-134073714D01*
X91294030Y-134080980D01*
X91282331Y-134087707D01*
X91270285Y-134093877D01*
X91257910Y-134099471D01*
X91245224Y-134104473D01*
X91232243Y-134108865D01*
X91218986Y-134112630D01*
X91205470Y-134115749D01*
X91191713Y-134118206D01*
X91177732Y-134119983D01*
X91163545Y-134121062D01*
X91149168Y-134121425D01*
X91134792Y-134121062D01*
X91120605Y-134119983D01*
X91106624Y-134118206D01*
X91092866Y-134115749D01*
X91079351Y-134112630D01*
X91066094Y-134108865D01*
X91053113Y-134104473D01*
X91040427Y-134099471D01*
X91028052Y-134093877D01*
X91016006Y-134087707D01*
X91004307Y-134080980D01*
X90992972Y-134073714D01*
X90982019Y-134065925D01*
X90971466Y-134057632D01*
X90961329Y-134048851D01*
X90951627Y-134039601D01*
X90942377Y-134029899D01*
X90933596Y-134019762D01*
X90925303Y-134009208D01*
X90917514Y-133998255D01*
X90910247Y-133986921D01*
X90903521Y-133975222D01*
X90897351Y-133963176D01*
X90891757Y-133950801D01*
X90886754Y-133938115D01*
X90882362Y-133925134D01*
X90878598Y-133911877D01*
X90875478Y-133898361D01*
X90873021Y-133884604D01*
X90871245Y-133870623D01*
X90870166Y-133856436D01*
X90869803Y-133842060D01*
X90870166Y-133827683D01*
X90871245Y-133813496D01*
X90873021Y-133799515D01*
X90875478Y-133785758D01*
X90878598Y-133772242D01*
X90882362Y-133758985D01*
X90886754Y-133746004D01*
X90891757Y-133733318D01*
X90897351Y-133720943D01*
X90903521Y-133708897D01*
X90910247Y-133697198D01*
X90917514Y-133685864D01*
X90925303Y-133674911D01*
X90933596Y-133664357D01*
X90942377Y-133654220D01*
X90951627Y-133644518D01*
X90961329Y-133635268D01*
X90971466Y-133626487D01*
X90982019Y-133618194D01*
X90992972Y-133610405D01*
X91004307Y-133603139D01*
X91016006Y-133596412D01*
X91028052Y-133590242D01*
X91040427Y-133584648D01*
X91053113Y-133579646D01*
X91066094Y-133575254D01*
X91079351Y-133571489D01*
X91092866Y-133568370D01*
X91106624Y-133565913D01*
X91120605Y-133564136D01*
X91134792Y-133563057D01*
X91149168Y-133562694D01*
X91163545Y-133563057D01*
G37*
D12*
X93635558Y-131356308D02*
X93640850Y-131356308D01*
X93646141Y-131361600D01*
X93651433Y-131361600D01*
X93667308Y-131377475D01*
X93667308Y-131382767D01*
X93672600Y-131388058D01*
X93672600Y-131393350D01*
X93677891Y-131398642D01*
X93677891Y-131409225D01*
X93683183Y-131414517D01*
X93683183Y-131440975D01*
X93688475Y-131446267D01*
X93688475Y-131478017D01*
X93693766Y-131483308D01*
X93693766Y-131509767D01*
X93699058Y-131515058D01*
X93699058Y-131541517D01*
X93704350Y-131546808D01*
X93704350Y-131578558D01*
X93709641Y-131583850D01*
X93709641Y-131610308D01*
X93714933Y-131615600D01*
X93714933Y-131642058D01*
X93720225Y-131647350D01*
X93720225Y-131673808D01*
X93725516Y-131679100D01*
X93725516Y-131705558D01*
X93730808Y-131710850D01*
X93730808Y-131737308D01*
X93736100Y-131742600D01*
X93736100Y-131769058D01*
X93741391Y-131774350D01*
X93741391Y-131795517D01*
X93746683Y-131800808D01*
X93746683Y-131832558D01*
X93751975Y-131837850D01*
X93751975Y-131864308D01*
X93757266Y-131869600D01*
X93757266Y-131896058D01*
X93762558Y-131901350D01*
X93762558Y-131922517D01*
X93767850Y-131927808D01*
X93767850Y-131959558D01*
X93773141Y-131964850D01*
X93773141Y-131991308D01*
X93778433Y-131996600D01*
X93778433Y-132023058D01*
X93783725Y-132028350D01*
X93783725Y-132049517D01*
X93789016Y-132054808D01*
X93789016Y-132081267D01*
X93794308Y-132086558D01*
X93794308Y-132118308D01*
X93799600Y-132123600D01*
X93799600Y-132144767D01*
X93804891Y-132150058D01*
X93804891Y-132176517D01*
X93810183Y-132181808D01*
X93810183Y-132208267D01*
X93815475Y-132213558D01*
X93815475Y-132234725D01*
X93820766Y-132240017D01*
X93820766Y-132266475D01*
X93826058Y-132271767D01*
X93826058Y-132298225D01*
X93831350Y-132303517D01*
X93831350Y-132329975D01*
X93836641Y-132335267D01*
X93836641Y-132361725D01*
X93841933Y-132367017D01*
X93841933Y-132393475D01*
X93847225Y-132398767D01*
X93847225Y-132425225D01*
X93852516Y-132430517D01*
X93852516Y-132456975D01*
X93857808Y-132462267D01*
X93857808Y-132488725D01*
X93863100Y-132494017D01*
X93863100Y-132520475D01*
X93868391Y-132525767D01*
X93868391Y-132557517D01*
X93873683Y-132562808D01*
X93873683Y-132594558D01*
X93878975Y-132599850D01*
X93878975Y-132631600D01*
X93884266Y-132636892D01*
X93884266Y-132663350D01*
X93889558Y-132668642D01*
X93889558Y-132695100D01*
X93894850Y-132700392D01*
X93894850Y-132737433D01*
X93900141Y-132742725D01*
X93900141Y-132774475D01*
X93905433Y-132779767D01*
X93905433Y-132806225D01*
X93910725Y-132811517D01*
X93910725Y-132848558D01*
X93916016Y-132853850D01*
X93916016Y-132885600D01*
X93921308Y-132890892D01*
X93921308Y-132927933D01*
X93926600Y-132933225D01*
X93926600Y-132980850D01*
X93931891Y-132986142D01*
X93931891Y-133017892D01*
X93937183Y-133023183D01*
X93937183Y-133044350D01*
X93942475Y-133049642D01*
X93942475Y-133076100D01*
X93947766Y-133081392D01*
X93947766Y-133097267D01*
X93953058Y-133102558D01*
X93953058Y-133118433D01*
X93958350Y-133123725D01*
X93958350Y-133134308D01*
X93963641Y-133139600D01*
X93963641Y-133150183D01*
X93968933Y-133155475D01*
X93968933Y-133166058D01*
X93974225Y-133171350D01*
X93974225Y-133176642D01*
X93979516Y-133181933D01*
X93979516Y-133192517D01*
X93984808Y-133197808D01*
X93984808Y-133203100D01*
X93990100Y-133208392D01*
X93990100Y-133218975D01*
X93995391Y-133224267D01*
X93995391Y-133234850D01*
X94000683Y-133240142D01*
X94000683Y-133245433D01*
X94005975Y-133250725D01*
X94005975Y-133256017D01*
X94011266Y-133261308D01*
X94011266Y-133266600D01*
X94016558Y-133271892D01*
X94016558Y-133277183D01*
X94021850Y-133282475D01*
X94021850Y-133293058D01*
X94027141Y-133298350D01*
X94027141Y-133303641D01*
X94032433Y-133308933D01*
X94032433Y-133314225D01*
X94037725Y-133319517D01*
X94037725Y-133324808D01*
X94048308Y-133335392D01*
X94048308Y-133340683D01*
X94053600Y-133345975D01*
X94053600Y-133351267D01*
X94058891Y-133356558D01*
X94058891Y-133361850D01*
X94064183Y-133367142D01*
X94064183Y-133372433D01*
X94069475Y-133377725D01*
X94069475Y-133383016D01*
X94080058Y-133393600D01*
X94080058Y-133398892D01*
X94090641Y-133409475D01*
X94090641Y-133414767D01*
X94095933Y-133420058D01*
X94095933Y-133425350D01*
X94106516Y-133435933D01*
X94106516Y-133441225D01*
X94117100Y-133451808D01*
X94117100Y-133457100D01*
X94127683Y-133467683D01*
X94127683Y-133472975D01*
X94138266Y-133483558D01*
X94138266Y-133488850D01*
X94148850Y-133499433D01*
X94148850Y-133504725D01*
X94159433Y-133515308D01*
X94159433Y-133520600D01*
X94175308Y-133536475D01*
X94175308Y-133541766D01*
X94185891Y-133552350D01*
X94185891Y-133557642D01*
X94201766Y-133573517D01*
X94201766Y-133578808D01*
X94217641Y-133594683D01*
X94217641Y-133599975D01*
X94228225Y-133610558D01*
X94228225Y-133615850D01*
X94244100Y-133631725D01*
X94244100Y-133637017D01*
X94254683Y-133647600D01*
X94254683Y-133652892D01*
X94270558Y-133668766D01*
X94270558Y-133674058D01*
X94281141Y-133684641D01*
X94281141Y-133689933D01*
X94286433Y-133695225D01*
X94286433Y-133700517D01*
X94302308Y-133716392D01*
X94302308Y-133721683D01*
X94318183Y-133737558D01*
X94318183Y-133742850D01*
X94334058Y-133758725D01*
X94334058Y-133764016D01*
X94349933Y-133779892D01*
X94349933Y-133785183D01*
X94365808Y-133801058D01*
X94365808Y-133806350D01*
X94381683Y-133822225D01*
X94381683Y-133827516D01*
X94397558Y-133843391D01*
X94397558Y-133848683D01*
X94413433Y-133864558D01*
X94413433Y-133869850D01*
X94424016Y-133880433D01*
X94424016Y-133885725D01*
X94439891Y-133901600D01*
X94439891Y-133906891D01*
X94455766Y-133922766D01*
X94455766Y-133928058D01*
X94471641Y-133943933D01*
X94471641Y-133949225D01*
X94487516Y-133965100D01*
X94487516Y-133970392D01*
X94503391Y-133986266D01*
X94503391Y-133991558D01*
X94519266Y-134007433D01*
X94519266Y-134012725D01*
X94529850Y-134023308D01*
X94529850Y-134028600D01*
X94545725Y-134044475D01*
X94545725Y-134049767D01*
X94561600Y-134065641D01*
X94561600Y-134070933D01*
X94572183Y-134081516D01*
X94572183Y-134086808D01*
X94588058Y-134102683D01*
X94588058Y-134107975D01*
X94598641Y-134118558D01*
X94598641Y-134123850D01*
X94614516Y-134139725D01*
X94614516Y-134145016D01*
X94619808Y-134150308D01*
X94619808Y-134155600D01*
X94635683Y-134171475D01*
X94635683Y-134176767D01*
X94646266Y-134187350D01*
X94646266Y-134192642D01*
X94656850Y-134203225D01*
X94656850Y-134208517D01*
X94672725Y-134224391D01*
X94672725Y-134229683D01*
X94683308Y-134240266D01*
X94683308Y-134245558D01*
X94693891Y-134256142D01*
X94693891Y-134261433D01*
X94704475Y-134272017D01*
X94704475Y-134277308D01*
X94715058Y-134287892D01*
X94715058Y-134293183D01*
X94725641Y-134303766D01*
X94725641Y-134309058D01*
X94736225Y-134319641D01*
X94736225Y-134324933D01*
X94746808Y-134335517D01*
X94746808Y-134340808D01*
X94757391Y-134351392D01*
X94757391Y-134356683D01*
X94767975Y-134367267D01*
X94767975Y-134372558D01*
X94778558Y-134383141D01*
X94778558Y-134388433D01*
X94783850Y-134393725D01*
X94783850Y-134399016D01*
X94794433Y-134409600D01*
X94794433Y-134414892D01*
X94805016Y-134425475D01*
X94805016Y-134430767D01*
X94810308Y-134436058D01*
X94810308Y-134441350D01*
X94820891Y-134451933D01*
X94820891Y-134457225D01*
X94826183Y-134462516D01*
X94826183Y-134467808D01*
X94831475Y-134473100D01*
X94831475Y-134478391D01*
X94836766Y-134483683D01*
X94836766Y-134488975D01*
X94842058Y-134494267D01*
X94842058Y-134499558D01*
X94847350Y-134504850D01*
X94847350Y-134510142D01*
X94852641Y-134515433D01*
X94852641Y-134520725D01*
X94857933Y-134526017D01*
X94857933Y-134531308D01*
X94863225Y-134536600D01*
X94863225Y-134547183D01*
X94868516Y-134552475D01*
X94868516Y-134557766D01*
X94873808Y-134563058D01*
X94873808Y-134568350D01*
X94879100Y-134573642D01*
X94879100Y-134584225D01*
X94884391Y-134589517D01*
X94884391Y-134594808D01*
X94889683Y-134600100D01*
X94889683Y-134610683D01*
X94894975Y-134615975D01*
X94894975Y-134621266D01*
X94900266Y-134626558D01*
X94900266Y-134637141D01*
X94905558Y-134642433D01*
X94905558Y-134647725D01*
X94910850Y-134653017D01*
X94910850Y-134663600D01*
X94916141Y-134668892D01*
X94916141Y-134679475D01*
X94921433Y-134684767D01*
X94921433Y-134700641D01*
X94926725Y-134705933D01*
X94926725Y-134721808D01*
X94932016Y-134727100D01*
X94932016Y-134742975D01*
X94937308Y-134748267D01*
X94937308Y-134764142D01*
X94942600Y-134769433D01*
X94942600Y-134795891D01*
X94947891Y-134801183D01*
X94947891Y-134843517D01*
X94953183Y-134848808D01*
X94953183Y-134928183D01*
X94947891Y-134933475D01*
X94947891Y-134981100D01*
X94942600Y-134986392D01*
X94942600Y-135007558D01*
X94937308Y-135012850D01*
X94937308Y-135034016D01*
X94932016Y-135039308D01*
X94932016Y-135055183D01*
X94926725Y-135060475D01*
X94926725Y-135071058D01*
X94921433Y-135076350D01*
X94921433Y-135086933D01*
X94916141Y-135092225D01*
X94916141Y-135102808D01*
X94910850Y-135108100D01*
X94910850Y-135118683D01*
X94905558Y-135123975D01*
X94905558Y-135129266D01*
X94900266Y-135134558D01*
X94900266Y-135139850D01*
X94894975Y-135145142D01*
X94894975Y-135155725D01*
X94889683Y-135161017D01*
X94889683Y-135166308D01*
X94884391Y-135171600D01*
X94884391Y-135176891D01*
X94879100Y-135182183D01*
X94879100Y-135187475D01*
X94868516Y-135198058D01*
X94868516Y-135203350D01*
X94863225Y-135208641D01*
X94863225Y-135213933D01*
X94852641Y-135224517D01*
X94852641Y-135229808D01*
X94842058Y-135240392D01*
X94842058Y-135245683D01*
X94831475Y-135256266D01*
X94831475Y-135261558D01*
X94815600Y-135277433D01*
X94815600Y-135282725D01*
X94741516Y-135356808D01*
X94736225Y-135356808D01*
X94720350Y-135372683D01*
X94715058Y-135372683D01*
X94704475Y-135383267D01*
X94699183Y-135383267D01*
X94688600Y-135393850D01*
X94683308Y-135393850D01*
X94672725Y-135404433D01*
X94667433Y-135404433D01*
X94662141Y-135409725D01*
X94656850Y-135409725D01*
X94651558Y-135415016D01*
X94646266Y-135415016D01*
X94640975Y-135420308D01*
X94635683Y-135420308D01*
X94630391Y-135425600D01*
X94625100Y-135425600D01*
X94619808Y-135430891D01*
X94614516Y-135430891D01*
X94609225Y-135436183D01*
X94603933Y-135436183D01*
X94598641Y-135441475D01*
X94593350Y-135441475D01*
X94588058Y-135446766D01*
X94577475Y-135446766D01*
X94572183Y-135452058D01*
X94566891Y-135452058D01*
X94561600Y-135457350D01*
X94545725Y-135457350D01*
X94540433Y-135462642D01*
X94529850Y-135462642D01*
X94524558Y-135467933D01*
X94513975Y-135467933D01*
X94508683Y-135473225D01*
X94492808Y-135473225D01*
X94487516Y-135478517D01*
X94466350Y-135478517D01*
X94461058Y-135483808D01*
X94434600Y-135483808D01*
X94429308Y-135489100D01*
X94291725Y-135489100D01*
X94286433Y-135483808D01*
X94254683Y-135483808D01*
X94249391Y-135478517D01*
X94228225Y-135478517D01*
X94222933Y-135473225D01*
X94201766Y-135473225D01*
X94196475Y-135467933D01*
X94180600Y-135467933D01*
X94175308Y-135462642D01*
X94164725Y-135462642D01*
X94159433Y-135457350D01*
X94143558Y-135457350D01*
X94138266Y-135452058D01*
X94127683Y-135452058D01*
X94122391Y-135446766D01*
X94111808Y-135446766D01*
X94106516Y-135441475D01*
X94095933Y-135441475D01*
X94090641Y-135436183D01*
X94080058Y-135436183D01*
X94074766Y-135430891D01*
X94069475Y-135430891D01*
X94064183Y-135425600D01*
X94058891Y-135425600D01*
X94053600Y-135420308D01*
X94043016Y-135420308D01*
X94037725Y-135415016D01*
X94032433Y-135415016D01*
X94027141Y-135409725D01*
X94021850Y-135409725D01*
X94016558Y-135404433D01*
X94011266Y-135404433D01*
X94005975Y-135399142D01*
X94000683Y-135399142D01*
X93995391Y-135393850D01*
X93990100Y-135393850D01*
X93984808Y-135388558D01*
X93979516Y-135388558D01*
X93974225Y-135383267D01*
X93968933Y-135383267D01*
X93963641Y-135377975D01*
X93958350Y-135377975D01*
X93953058Y-135372683D01*
X93947766Y-135372683D01*
X93937183Y-135362100D01*
X93931891Y-135362100D01*
X93921308Y-135351516D01*
X93916016Y-135351516D01*
X93905433Y-135340933D01*
X93900141Y-135340933D01*
X93889558Y-135330350D01*
X93884266Y-135330350D01*
X93873683Y-135319767D01*
X93868391Y-135319767D01*
X93857808Y-135309183D01*
X93852516Y-135309183D01*
X93841933Y-135298600D01*
X93836641Y-135298600D01*
X93820766Y-135282725D01*
X93815475Y-135282725D01*
X93799600Y-135266850D01*
X93794308Y-135266850D01*
X93704350Y-135176891D01*
X93704350Y-135171600D01*
X93656725Y-135123975D01*
X93656725Y-135118683D01*
X93619683Y-135081642D01*
X93619683Y-135076350D01*
X93593225Y-135049891D01*
X93593225Y-135044600D01*
X93566766Y-135018141D01*
X93566766Y-135012850D01*
X93550891Y-134996975D01*
X93550891Y-134991683D01*
X93535016Y-134975808D01*
X93535016Y-134970516D01*
X93519141Y-134954641D01*
X93519141Y-134949350D01*
X93503266Y-134933475D01*
X93503266Y-134928183D01*
X93492683Y-134917600D01*
X93492683Y-134912308D01*
X93476808Y-134896433D01*
X93476808Y-134891141D01*
X93466225Y-134880558D01*
X93466225Y-134875266D01*
X93455641Y-134864683D01*
X93455641Y-134859391D01*
X93445058Y-134848808D01*
X93445058Y-134843517D01*
X93434475Y-134832933D01*
X93434475Y-134827642D01*
X93413308Y-134806475D01*
X93413308Y-134801183D01*
X93397433Y-134785308D01*
X93397433Y-134780016D01*
X93386850Y-134769433D01*
X93386850Y-134764142D01*
X93381558Y-134758850D01*
X93381558Y-134753558D01*
X93370975Y-134742975D01*
X93370975Y-134737683D01*
X93360391Y-134727100D01*
X93360391Y-134721808D01*
X93349808Y-134711225D01*
X93349808Y-134705933D01*
X93339225Y-134695350D01*
X93339225Y-134690058D01*
X93328641Y-134679475D01*
X93328641Y-134674183D01*
X93318058Y-134663600D01*
X93318058Y-134658308D01*
X93302183Y-134642433D01*
X93302183Y-134637141D01*
X93291600Y-134626558D01*
X93291600Y-134621266D01*
X93281016Y-134610683D01*
X93281016Y-134605392D01*
X93270433Y-134594808D01*
X93270433Y-134589517D01*
X93265141Y-134584225D01*
X93265141Y-134578933D01*
X93249266Y-134563058D01*
X93249266Y-134557766D01*
X93222808Y-134531308D01*
X93222808Y-134526017D01*
X93138141Y-134441350D01*
X93132850Y-134441350D01*
X93111683Y-134420183D01*
X93106391Y-134420183D01*
X93090516Y-134404308D01*
X93085225Y-134404308D01*
X93069350Y-134388433D01*
X93064058Y-134388433D01*
X93048183Y-134372558D01*
X93042891Y-134372558D01*
X93032308Y-134361975D01*
X93027016Y-134361975D01*
X93021725Y-134356683D01*
X93016433Y-134356683D01*
X93005850Y-134346100D01*
X93000558Y-134346100D01*
X92995266Y-134340808D01*
X92989975Y-134340808D01*
X92979391Y-134330225D01*
X92974100Y-134330225D01*
X92963516Y-134319641D01*
X92958225Y-134319641D01*
X92942350Y-134303766D01*
X92937058Y-134303766D01*
X92926475Y-134293183D01*
X92921183Y-134293183D01*
X92910600Y-134282600D01*
X92905308Y-134282600D01*
X92889433Y-134266725D01*
X92884141Y-134266725D01*
X92873558Y-134256142D01*
X92868266Y-134256142D01*
X92852391Y-134240266D01*
X92847100Y-134240266D01*
X92825933Y-134219100D01*
X92820641Y-134219100D01*
X92788891Y-134187350D01*
X92783600Y-134187350D01*
X92720100Y-134123850D01*
X92714808Y-134123850D01*
X92714808Y-134118558D01*
X92688350Y-134092100D01*
X92688350Y-134086808D01*
X92677766Y-134076225D01*
X92677766Y-134070933D01*
X92672475Y-134065641D01*
X92672475Y-134060350D01*
X92667183Y-134055058D01*
X92667183Y-134049767D01*
X92656600Y-134039183D01*
X92656600Y-134033892D01*
X92651308Y-134028600D01*
X92651308Y-134023308D01*
X92646016Y-134018017D01*
X92646016Y-134007433D01*
X92640725Y-134002141D01*
X92640725Y-133996850D01*
X92635433Y-133991558D01*
X92635433Y-133980975D01*
X92630141Y-133975683D01*
X92630141Y-133965100D01*
X92624850Y-133959808D01*
X92624850Y-133949225D01*
X92619558Y-133943933D01*
X92619558Y-133928058D01*
X92614267Y-133922766D01*
X92614267Y-133901600D01*
X92608975Y-133896308D01*
X92608975Y-133779892D01*
X92614267Y-133774600D01*
X92614267Y-133748141D01*
X92619558Y-133742850D01*
X92619558Y-133716392D01*
X92624850Y-133711100D01*
X92624850Y-133689933D01*
X92630141Y-133684641D01*
X92630141Y-133663475D01*
X92635433Y-133658183D01*
X92635433Y-133642308D01*
X92640725Y-133637017D01*
X92640725Y-133621142D01*
X92646016Y-133615850D01*
X92646016Y-133599975D01*
X92651308Y-133594683D01*
X92651308Y-133578808D01*
X92656600Y-133573517D01*
X92656600Y-133557642D01*
X92661891Y-133552350D01*
X92661891Y-133536475D01*
X92667183Y-133531183D01*
X92667183Y-133515308D01*
X92672475Y-133510017D01*
X92672475Y-133494142D01*
X92677766Y-133488850D01*
X92677766Y-133472975D01*
X92683058Y-133467683D01*
X92683058Y-133441225D01*
X92688350Y-133435933D01*
X92688350Y-133409475D01*
X92693642Y-133404183D01*
X92693642Y-133367142D01*
X92698933Y-133361850D01*
X92698933Y-133314225D01*
X92704225Y-133308933D01*
X92704225Y-133166058D01*
X92698933Y-133160767D01*
X92698933Y-133113142D01*
X92693642Y-133107850D01*
X92693642Y-133102558D01*
X92698933Y-133097267D01*
X92693642Y-133091975D01*
X92693642Y-133076100D01*
X92688350Y-133070808D01*
X92688350Y-133033767D01*
X92683058Y-133028475D01*
X92683058Y-132996725D01*
X92677766Y-132991433D01*
X92677766Y-132964975D01*
X92672475Y-132959683D01*
X92672475Y-132912058D01*
X92667183Y-132906767D01*
X92667183Y-132875017D01*
X92661891Y-132869725D01*
X92661891Y-132837975D01*
X92656600Y-132832683D01*
X92656600Y-132790350D01*
X92651308Y-132785058D01*
X92651308Y-132748017D01*
X92646016Y-132742725D01*
X92646016Y-132716267D01*
X92640725Y-132710975D01*
X92640725Y-132679225D01*
X92635433Y-132673933D01*
X92635433Y-132636892D01*
X92630141Y-132631600D01*
X92630141Y-132594558D01*
X92624850Y-132589267D01*
X92624850Y-132552225D01*
X92619558Y-132546933D01*
X92619558Y-132509892D01*
X92614267Y-132504600D01*
X92614267Y-132472850D01*
X92608975Y-132467558D01*
X92608975Y-132430517D01*
X92603683Y-132425225D01*
X92603683Y-132388183D01*
X92598391Y-132382892D01*
X92598391Y-132340558D01*
X92593100Y-132335267D01*
X92593100Y-132303517D01*
X92587808Y-132298225D01*
X92587808Y-132255892D01*
X92582516Y-132250600D01*
X92582516Y-132208267D01*
X92577225Y-132202975D01*
X92577225Y-132160642D01*
X92571933Y-132155350D01*
X92571933Y-132118308D01*
X92566641Y-132113017D01*
X92566641Y-132081267D01*
X92561350Y-132075975D01*
X92561350Y-132044225D01*
X92556058Y-132038933D01*
X92556058Y-132007183D01*
X92550766Y-132001892D01*
X92550766Y-131964850D01*
X92545475Y-131959558D01*
X92545475Y-131938392D01*
X92540183Y-131933100D01*
X92540183Y-131901350D01*
X92534892Y-131896058D01*
X92534892Y-131869600D01*
X92529600Y-131864308D01*
X92529600Y-131832558D01*
X92524308Y-131827267D01*
X92524308Y-131795517D01*
X92519016Y-131790225D01*
X92519016Y-131758475D01*
X92513725Y-131753183D01*
X92513725Y-131721433D01*
X92508433Y-131716142D01*
X92508433Y-131684392D01*
X92503141Y-131679100D01*
X92503141Y-131647350D01*
X92497850Y-131642058D01*
X92497850Y-131610308D01*
X92492558Y-131605017D01*
X92492558Y-131573267D01*
X92487266Y-131567975D01*
X92487266Y-131509767D01*
X92492558Y-131504475D01*
X92492558Y-131499183D01*
X92497850Y-131493892D01*
X92497850Y-131488600D01*
X92519016Y-131467433D01*
X92524308Y-131467433D01*
X92529600Y-131462142D01*
X92540183Y-131462142D01*
X92545475Y-131456850D01*
X92582516Y-131456850D01*
X92587808Y-131451558D01*
X92630141Y-131451558D01*
X92635433Y-131446267D01*
X92683058Y-131446267D01*
X92688350Y-131440975D01*
X92735975Y-131440975D01*
X92741266Y-131435683D01*
X92783600Y-131435683D01*
X92788891Y-131430392D01*
X92836516Y-131430392D01*
X92841808Y-131425100D01*
X92884141Y-131425100D01*
X92889433Y-131419808D01*
X92937058Y-131419808D01*
X92942350Y-131414517D01*
X92984683Y-131414517D01*
X92989975Y-131409225D01*
X93042891Y-131409225D01*
X93048183Y-131403933D01*
X93090516Y-131403933D01*
X93095808Y-131398642D01*
X93138141Y-131398642D01*
X93143433Y-131393350D01*
X93191058Y-131393350D01*
X93196350Y-131388058D01*
X93243975Y-131388058D01*
X93249266Y-131382767D01*
X93296891Y-131382767D01*
X93302183Y-131377475D01*
X93349808Y-131377475D01*
X93355100Y-131372183D01*
X93397433Y-131372183D01*
X93402725Y-131366892D01*
X93450350Y-131366892D01*
X93455641Y-131361600D01*
X93508558Y-131361600D01*
X93513850Y-131356308D01*
X93556183Y-131356308D01*
X93561475Y-131351017D01*
X93630266Y-131351017D01*
X93635558Y-131356308D01*
G36*
X93635558Y-131356308D02*
G01*
X93640850Y-131356308D01*
X93646141Y-131361600D01*
X93651433Y-131361600D01*
X93667308Y-131377475D01*
X93667308Y-131382767D01*
X93672600Y-131388058D01*
X93672600Y-131393350D01*
X93677891Y-131398642D01*
X93677891Y-131409225D01*
X93683183Y-131414517D01*
X93683183Y-131440975D01*
X93688475Y-131446267D01*
X93688475Y-131478017D01*
X93693766Y-131483308D01*
X93693766Y-131509767D01*
X93699058Y-131515058D01*
X93699058Y-131541517D01*
X93704350Y-131546808D01*
X93704350Y-131578558D01*
X93709641Y-131583850D01*
X93709641Y-131610308D01*
X93714933Y-131615600D01*
X93714933Y-131642058D01*
X93720225Y-131647350D01*
X93720225Y-131673808D01*
X93725516Y-131679100D01*
X93725516Y-131705558D01*
X93730808Y-131710850D01*
X93730808Y-131737308D01*
X93736100Y-131742600D01*
X93736100Y-131769058D01*
X93741391Y-131774350D01*
X93741391Y-131795517D01*
X93746683Y-131800808D01*
X93746683Y-131832558D01*
X93751975Y-131837850D01*
X93751975Y-131864308D01*
X93757266Y-131869600D01*
X93757266Y-131896058D01*
X93762558Y-131901350D01*
X93762558Y-131922517D01*
X93767850Y-131927808D01*
X93767850Y-131959558D01*
X93773141Y-131964850D01*
X93773141Y-131991308D01*
X93778433Y-131996600D01*
X93778433Y-132023058D01*
X93783725Y-132028350D01*
X93783725Y-132049517D01*
X93789016Y-132054808D01*
X93789016Y-132081267D01*
X93794308Y-132086558D01*
X93794308Y-132118308D01*
X93799600Y-132123600D01*
X93799600Y-132144767D01*
X93804891Y-132150058D01*
X93804891Y-132176517D01*
X93810183Y-132181808D01*
X93810183Y-132208267D01*
X93815475Y-132213558D01*
X93815475Y-132234725D01*
X93820766Y-132240017D01*
X93820766Y-132266475D01*
X93826058Y-132271767D01*
X93826058Y-132298225D01*
X93831350Y-132303517D01*
X93831350Y-132329975D01*
X93836641Y-132335267D01*
X93836641Y-132361725D01*
X93841933Y-132367017D01*
X93841933Y-132393475D01*
X93847225Y-132398767D01*
X93847225Y-132425225D01*
X93852516Y-132430517D01*
X93852516Y-132456975D01*
X93857808Y-132462267D01*
X93857808Y-132488725D01*
X93863100Y-132494017D01*
X93863100Y-132520475D01*
X93868391Y-132525767D01*
X93868391Y-132557517D01*
X93873683Y-132562808D01*
X93873683Y-132594558D01*
X93878975Y-132599850D01*
X93878975Y-132631600D01*
X93884266Y-132636892D01*
X93884266Y-132663350D01*
X93889558Y-132668642D01*
X93889558Y-132695100D01*
X93894850Y-132700392D01*
X93894850Y-132737433D01*
X93900141Y-132742725D01*
X93900141Y-132774475D01*
X93905433Y-132779767D01*
X93905433Y-132806225D01*
X93910725Y-132811517D01*
X93910725Y-132848558D01*
X93916016Y-132853850D01*
X93916016Y-132885600D01*
X93921308Y-132890892D01*
X93921308Y-132927933D01*
X93926600Y-132933225D01*
X93926600Y-132980850D01*
X93931891Y-132986142D01*
X93931891Y-133017892D01*
X93937183Y-133023183D01*
X93937183Y-133044350D01*
X93942475Y-133049642D01*
X93942475Y-133076100D01*
X93947766Y-133081392D01*
X93947766Y-133097267D01*
X93953058Y-133102558D01*
X93953058Y-133118433D01*
X93958350Y-133123725D01*
X93958350Y-133134308D01*
X93963641Y-133139600D01*
X93963641Y-133150183D01*
X93968933Y-133155475D01*
X93968933Y-133166058D01*
X93974225Y-133171350D01*
X93974225Y-133176642D01*
X93979516Y-133181933D01*
X93979516Y-133192517D01*
X93984808Y-133197808D01*
X93984808Y-133203100D01*
X93990100Y-133208392D01*
X93990100Y-133218975D01*
X93995391Y-133224267D01*
X93995391Y-133234850D01*
X94000683Y-133240142D01*
X94000683Y-133245433D01*
X94005975Y-133250725D01*
X94005975Y-133256017D01*
X94011266Y-133261308D01*
X94011266Y-133266600D01*
X94016558Y-133271892D01*
X94016558Y-133277183D01*
X94021850Y-133282475D01*
X94021850Y-133293058D01*
X94027141Y-133298350D01*
X94027141Y-133303641D01*
X94032433Y-133308933D01*
X94032433Y-133314225D01*
X94037725Y-133319517D01*
X94037725Y-133324808D01*
X94048308Y-133335392D01*
X94048308Y-133340683D01*
X94053600Y-133345975D01*
X94053600Y-133351267D01*
X94058891Y-133356558D01*
X94058891Y-133361850D01*
X94064183Y-133367142D01*
X94064183Y-133372433D01*
X94069475Y-133377725D01*
X94069475Y-133383016D01*
X94080058Y-133393600D01*
X94080058Y-133398892D01*
X94090641Y-133409475D01*
X94090641Y-133414767D01*
X94095933Y-133420058D01*
X94095933Y-133425350D01*
X94106516Y-133435933D01*
X94106516Y-133441225D01*
X94117100Y-133451808D01*
X94117100Y-133457100D01*
X94127683Y-133467683D01*
X94127683Y-133472975D01*
X94138266Y-133483558D01*
X94138266Y-133488850D01*
X94148850Y-133499433D01*
X94148850Y-133504725D01*
X94159433Y-133515308D01*
X94159433Y-133520600D01*
X94175308Y-133536475D01*
X94175308Y-133541766D01*
X94185891Y-133552350D01*
X94185891Y-133557642D01*
X94201766Y-133573517D01*
X94201766Y-133578808D01*
X94217641Y-133594683D01*
X94217641Y-133599975D01*
X94228225Y-133610558D01*
X94228225Y-133615850D01*
X94244100Y-133631725D01*
X94244100Y-133637017D01*
X94254683Y-133647600D01*
X94254683Y-133652892D01*
X94270558Y-133668766D01*
X94270558Y-133674058D01*
X94281141Y-133684641D01*
X94281141Y-133689933D01*
X94286433Y-133695225D01*
X94286433Y-133700517D01*
X94302308Y-133716392D01*
X94302308Y-133721683D01*
X94318183Y-133737558D01*
X94318183Y-133742850D01*
X94334058Y-133758725D01*
X94334058Y-133764016D01*
X94349933Y-133779892D01*
X94349933Y-133785183D01*
X94365808Y-133801058D01*
X94365808Y-133806350D01*
X94381683Y-133822225D01*
X94381683Y-133827516D01*
X94397558Y-133843391D01*
X94397558Y-133848683D01*
X94413433Y-133864558D01*
X94413433Y-133869850D01*
X94424016Y-133880433D01*
X94424016Y-133885725D01*
X94439891Y-133901600D01*
X94439891Y-133906891D01*
X94455766Y-133922766D01*
X94455766Y-133928058D01*
X94471641Y-133943933D01*
X94471641Y-133949225D01*
X94487516Y-133965100D01*
X94487516Y-133970392D01*
X94503391Y-133986266D01*
X94503391Y-133991558D01*
X94519266Y-134007433D01*
X94519266Y-134012725D01*
X94529850Y-134023308D01*
X94529850Y-134028600D01*
X94545725Y-134044475D01*
X94545725Y-134049767D01*
X94561600Y-134065641D01*
X94561600Y-134070933D01*
X94572183Y-134081516D01*
X94572183Y-134086808D01*
X94588058Y-134102683D01*
X94588058Y-134107975D01*
X94598641Y-134118558D01*
X94598641Y-134123850D01*
X94614516Y-134139725D01*
X94614516Y-134145016D01*
X94619808Y-134150308D01*
X94619808Y-134155600D01*
X94635683Y-134171475D01*
X94635683Y-134176767D01*
X94646266Y-134187350D01*
X94646266Y-134192642D01*
X94656850Y-134203225D01*
X94656850Y-134208517D01*
X94672725Y-134224391D01*
X94672725Y-134229683D01*
X94683308Y-134240266D01*
X94683308Y-134245558D01*
X94693891Y-134256142D01*
X94693891Y-134261433D01*
X94704475Y-134272017D01*
X94704475Y-134277308D01*
X94715058Y-134287892D01*
X94715058Y-134293183D01*
X94725641Y-134303766D01*
X94725641Y-134309058D01*
X94736225Y-134319641D01*
X94736225Y-134324933D01*
X94746808Y-134335517D01*
X94746808Y-134340808D01*
X94757391Y-134351392D01*
X94757391Y-134356683D01*
X94767975Y-134367267D01*
X94767975Y-134372558D01*
X94778558Y-134383141D01*
X94778558Y-134388433D01*
X94783850Y-134393725D01*
X94783850Y-134399016D01*
X94794433Y-134409600D01*
X94794433Y-134414892D01*
X94805016Y-134425475D01*
X94805016Y-134430767D01*
X94810308Y-134436058D01*
X94810308Y-134441350D01*
X94820891Y-134451933D01*
X94820891Y-134457225D01*
X94826183Y-134462516D01*
X94826183Y-134467808D01*
X94831475Y-134473100D01*
X94831475Y-134478391D01*
X94836766Y-134483683D01*
X94836766Y-134488975D01*
X94842058Y-134494267D01*
X94842058Y-134499558D01*
X94847350Y-134504850D01*
X94847350Y-134510142D01*
X94852641Y-134515433D01*
X94852641Y-134520725D01*
X94857933Y-134526017D01*
X94857933Y-134531308D01*
X94863225Y-134536600D01*
X94863225Y-134547183D01*
X94868516Y-134552475D01*
X94868516Y-134557766D01*
X94873808Y-134563058D01*
X94873808Y-134568350D01*
X94879100Y-134573642D01*
X94879100Y-134584225D01*
X94884391Y-134589517D01*
X94884391Y-134594808D01*
X94889683Y-134600100D01*
X94889683Y-134610683D01*
X94894975Y-134615975D01*
X94894975Y-134621266D01*
X94900266Y-134626558D01*
X94900266Y-134637141D01*
X94905558Y-134642433D01*
X94905558Y-134647725D01*
X94910850Y-134653017D01*
X94910850Y-134663600D01*
X94916141Y-134668892D01*
X94916141Y-134679475D01*
X94921433Y-134684767D01*
X94921433Y-134700641D01*
X94926725Y-134705933D01*
X94926725Y-134721808D01*
X94932016Y-134727100D01*
X94932016Y-134742975D01*
X94937308Y-134748267D01*
X94937308Y-134764142D01*
X94942600Y-134769433D01*
X94942600Y-134795891D01*
X94947891Y-134801183D01*
X94947891Y-134843517D01*
X94953183Y-134848808D01*
X94953183Y-134928183D01*
X94947891Y-134933475D01*
X94947891Y-134981100D01*
X94942600Y-134986392D01*
X94942600Y-135007558D01*
X94937308Y-135012850D01*
X94937308Y-135034016D01*
X94932016Y-135039308D01*
X94932016Y-135055183D01*
X94926725Y-135060475D01*
X94926725Y-135071058D01*
X94921433Y-135076350D01*
X94921433Y-135086933D01*
X94916141Y-135092225D01*
X94916141Y-135102808D01*
X94910850Y-135108100D01*
X94910850Y-135118683D01*
X94905558Y-135123975D01*
X94905558Y-135129266D01*
X94900266Y-135134558D01*
X94900266Y-135139850D01*
X94894975Y-135145142D01*
X94894975Y-135155725D01*
X94889683Y-135161017D01*
X94889683Y-135166308D01*
X94884391Y-135171600D01*
X94884391Y-135176891D01*
X94879100Y-135182183D01*
X94879100Y-135187475D01*
X94868516Y-135198058D01*
X94868516Y-135203350D01*
X94863225Y-135208641D01*
X94863225Y-135213933D01*
X94852641Y-135224517D01*
X94852641Y-135229808D01*
X94842058Y-135240392D01*
X94842058Y-135245683D01*
X94831475Y-135256266D01*
X94831475Y-135261558D01*
X94815600Y-135277433D01*
X94815600Y-135282725D01*
X94741516Y-135356808D01*
X94736225Y-135356808D01*
X94720350Y-135372683D01*
X94715058Y-135372683D01*
X94704475Y-135383267D01*
X94699183Y-135383267D01*
X94688600Y-135393850D01*
X94683308Y-135393850D01*
X94672725Y-135404433D01*
X94667433Y-135404433D01*
X94662141Y-135409725D01*
X94656850Y-135409725D01*
X94651558Y-135415016D01*
X94646266Y-135415016D01*
X94640975Y-135420308D01*
X94635683Y-135420308D01*
X94630391Y-135425600D01*
X94625100Y-135425600D01*
X94619808Y-135430891D01*
X94614516Y-135430891D01*
X94609225Y-135436183D01*
X94603933Y-135436183D01*
X94598641Y-135441475D01*
X94593350Y-135441475D01*
X94588058Y-135446766D01*
X94577475Y-135446766D01*
X94572183Y-135452058D01*
X94566891Y-135452058D01*
X94561600Y-135457350D01*
X94545725Y-135457350D01*
X94540433Y-135462642D01*
X94529850Y-135462642D01*
X94524558Y-135467933D01*
X94513975Y-135467933D01*
X94508683Y-135473225D01*
X94492808Y-135473225D01*
X94487516Y-135478517D01*
X94466350Y-135478517D01*
X94461058Y-135483808D01*
X94434600Y-135483808D01*
X94429308Y-135489100D01*
X94291725Y-135489100D01*
X94286433Y-135483808D01*
X94254683Y-135483808D01*
X94249391Y-135478517D01*
X94228225Y-135478517D01*
X94222933Y-135473225D01*
X94201766Y-135473225D01*
X94196475Y-135467933D01*
X94180600Y-135467933D01*
X94175308Y-135462642D01*
X94164725Y-135462642D01*
X94159433Y-135457350D01*
X94143558Y-135457350D01*
X94138266Y-135452058D01*
X94127683Y-135452058D01*
X94122391Y-135446766D01*
X94111808Y-135446766D01*
X94106516Y-135441475D01*
X94095933Y-135441475D01*
X94090641Y-135436183D01*
X94080058Y-135436183D01*
X94074766Y-135430891D01*
X94069475Y-135430891D01*
X94064183Y-135425600D01*
X94058891Y-135425600D01*
X94053600Y-135420308D01*
X94043016Y-135420308D01*
X94037725Y-135415016D01*
X94032433Y-135415016D01*
X94027141Y-135409725D01*
X94021850Y-135409725D01*
X94016558Y-135404433D01*
X94011266Y-135404433D01*
X94005975Y-135399142D01*
X94000683Y-135399142D01*
X93995391Y-135393850D01*
X93990100Y-135393850D01*
X93984808Y-135388558D01*
X93979516Y-135388558D01*
X93974225Y-135383267D01*
X93968933Y-135383267D01*
X93963641Y-135377975D01*
X93958350Y-135377975D01*
X93953058Y-135372683D01*
X93947766Y-135372683D01*
X93937183Y-135362100D01*
X93931891Y-135362100D01*
X93921308Y-135351516D01*
X93916016Y-135351516D01*
X93905433Y-135340933D01*
X93900141Y-135340933D01*
X93889558Y-135330350D01*
X93884266Y-135330350D01*
X93873683Y-135319767D01*
X93868391Y-135319767D01*
X93857808Y-135309183D01*
X93852516Y-135309183D01*
X93841933Y-135298600D01*
X93836641Y-135298600D01*
X93820766Y-135282725D01*
X93815475Y-135282725D01*
X93799600Y-135266850D01*
X93794308Y-135266850D01*
X93704350Y-135176891D01*
X93704350Y-135171600D01*
X93656725Y-135123975D01*
X93656725Y-135118683D01*
X93619683Y-135081642D01*
X93619683Y-135076350D01*
X93593225Y-135049891D01*
X93593225Y-135044600D01*
X93566766Y-135018141D01*
X93566766Y-135012850D01*
X93550891Y-134996975D01*
X93550891Y-134991683D01*
X93535016Y-134975808D01*
X93535016Y-134970516D01*
X93519141Y-134954641D01*
X93519141Y-134949350D01*
X93503266Y-134933475D01*
X93503266Y-134928183D01*
X93492683Y-134917600D01*
X93492683Y-134912308D01*
X93476808Y-134896433D01*
X93476808Y-134891141D01*
X93466225Y-134880558D01*
X93466225Y-134875266D01*
X93455641Y-134864683D01*
X93455641Y-134859391D01*
X93445058Y-134848808D01*
X93445058Y-134843517D01*
X93434475Y-134832933D01*
X93434475Y-134827642D01*
X93413308Y-134806475D01*
X93413308Y-134801183D01*
X93397433Y-134785308D01*
X93397433Y-134780016D01*
X93386850Y-134769433D01*
X93386850Y-134764142D01*
X93381558Y-134758850D01*
X93381558Y-134753558D01*
X93370975Y-134742975D01*
X93370975Y-134737683D01*
X93360391Y-134727100D01*
X93360391Y-134721808D01*
X93349808Y-134711225D01*
X93349808Y-134705933D01*
X93339225Y-134695350D01*
X93339225Y-134690058D01*
X93328641Y-134679475D01*
X93328641Y-134674183D01*
X93318058Y-134663600D01*
X93318058Y-134658308D01*
X93302183Y-134642433D01*
X93302183Y-134637141D01*
X93291600Y-134626558D01*
X93291600Y-134621266D01*
X93281016Y-134610683D01*
X93281016Y-134605392D01*
X93270433Y-134594808D01*
X93270433Y-134589517D01*
X93265141Y-134584225D01*
X93265141Y-134578933D01*
X93249266Y-134563058D01*
X93249266Y-134557766D01*
X93222808Y-134531308D01*
X93222808Y-134526017D01*
X93138141Y-134441350D01*
X93132850Y-134441350D01*
X93111683Y-134420183D01*
X93106391Y-134420183D01*
X93090516Y-134404308D01*
X93085225Y-134404308D01*
X93069350Y-134388433D01*
X93064058Y-134388433D01*
X93048183Y-134372558D01*
X93042891Y-134372558D01*
X93032308Y-134361975D01*
X93027016Y-134361975D01*
X93021725Y-134356683D01*
X93016433Y-134356683D01*
X93005850Y-134346100D01*
X93000558Y-134346100D01*
X92995266Y-134340808D01*
X92989975Y-134340808D01*
X92979391Y-134330225D01*
X92974100Y-134330225D01*
X92963516Y-134319641D01*
X92958225Y-134319641D01*
X92942350Y-134303766D01*
X92937058Y-134303766D01*
X92926475Y-134293183D01*
X92921183Y-134293183D01*
X92910600Y-134282600D01*
X92905308Y-134282600D01*
X92889433Y-134266725D01*
X92884141Y-134266725D01*
X92873558Y-134256142D01*
X92868266Y-134256142D01*
X92852391Y-134240266D01*
X92847100Y-134240266D01*
X92825933Y-134219100D01*
X92820641Y-134219100D01*
X92788891Y-134187350D01*
X92783600Y-134187350D01*
X92720100Y-134123850D01*
X92714808Y-134123850D01*
X92714808Y-134118558D01*
X92688350Y-134092100D01*
X92688350Y-134086808D01*
X92677766Y-134076225D01*
X92677766Y-134070933D01*
X92672475Y-134065641D01*
X92672475Y-134060350D01*
X92667183Y-134055058D01*
X92667183Y-134049767D01*
X92656600Y-134039183D01*
X92656600Y-134033892D01*
X92651308Y-134028600D01*
X92651308Y-134023308D01*
X92646016Y-134018017D01*
X92646016Y-134007433D01*
X92640725Y-134002141D01*
X92640725Y-133996850D01*
X92635433Y-133991558D01*
X92635433Y-133980975D01*
X92630141Y-133975683D01*
X92630141Y-133965100D01*
X92624850Y-133959808D01*
X92624850Y-133949225D01*
X92619558Y-133943933D01*
X92619558Y-133928058D01*
X92614267Y-133922766D01*
X92614267Y-133901600D01*
X92608975Y-133896308D01*
X92608975Y-133779892D01*
X92614267Y-133774600D01*
X92614267Y-133748141D01*
X92619558Y-133742850D01*
X92619558Y-133716392D01*
X92624850Y-133711100D01*
X92624850Y-133689933D01*
X92630141Y-133684641D01*
X92630141Y-133663475D01*
X92635433Y-133658183D01*
X92635433Y-133642308D01*
X92640725Y-133637017D01*
X92640725Y-133621142D01*
X92646016Y-133615850D01*
X92646016Y-133599975D01*
X92651308Y-133594683D01*
X92651308Y-133578808D01*
X92656600Y-133573517D01*
X92656600Y-133557642D01*
X92661891Y-133552350D01*
X92661891Y-133536475D01*
X92667183Y-133531183D01*
X92667183Y-133515308D01*
X92672475Y-133510017D01*
X92672475Y-133494142D01*
X92677766Y-133488850D01*
X92677766Y-133472975D01*
X92683058Y-133467683D01*
X92683058Y-133441225D01*
X92688350Y-133435933D01*
X92688350Y-133409475D01*
X92693642Y-133404183D01*
X92693642Y-133367142D01*
X92698933Y-133361850D01*
X92698933Y-133314225D01*
X92704225Y-133308933D01*
X92704225Y-133166058D01*
X92698933Y-133160767D01*
X92698933Y-133113142D01*
X92693642Y-133107850D01*
X92693642Y-133102558D01*
X92698933Y-133097267D01*
X92693642Y-133091975D01*
X92693642Y-133076100D01*
X92688350Y-133070808D01*
X92688350Y-133033767D01*
X92683058Y-133028475D01*
X92683058Y-132996725D01*
X92677766Y-132991433D01*
X92677766Y-132964975D01*
X92672475Y-132959683D01*
X92672475Y-132912058D01*
X92667183Y-132906767D01*
X92667183Y-132875017D01*
X92661891Y-132869725D01*
X92661891Y-132837975D01*
X92656600Y-132832683D01*
X92656600Y-132790350D01*
X92651308Y-132785058D01*
X92651308Y-132748017D01*
X92646016Y-132742725D01*
X92646016Y-132716267D01*
X92640725Y-132710975D01*
X92640725Y-132679225D01*
X92635433Y-132673933D01*
X92635433Y-132636892D01*
X92630141Y-132631600D01*
X92630141Y-132594558D01*
X92624850Y-132589267D01*
X92624850Y-132552225D01*
X92619558Y-132546933D01*
X92619558Y-132509892D01*
X92614267Y-132504600D01*
X92614267Y-132472850D01*
X92608975Y-132467558D01*
X92608975Y-132430517D01*
X92603683Y-132425225D01*
X92603683Y-132388183D01*
X92598391Y-132382892D01*
X92598391Y-132340558D01*
X92593100Y-132335267D01*
X92593100Y-132303517D01*
X92587808Y-132298225D01*
X92587808Y-132255892D01*
X92582516Y-132250600D01*
X92582516Y-132208267D01*
X92577225Y-132202975D01*
X92577225Y-132160642D01*
X92571933Y-132155350D01*
X92571933Y-132118308D01*
X92566641Y-132113017D01*
X92566641Y-132081267D01*
X92561350Y-132075975D01*
X92561350Y-132044225D01*
X92556058Y-132038933D01*
X92556058Y-132007183D01*
X92550766Y-132001892D01*
X92550766Y-131964850D01*
X92545475Y-131959558D01*
X92545475Y-131938392D01*
X92540183Y-131933100D01*
X92540183Y-131901350D01*
X92534892Y-131896058D01*
X92534892Y-131869600D01*
X92529600Y-131864308D01*
X92529600Y-131832558D01*
X92524308Y-131827267D01*
X92524308Y-131795517D01*
X92519016Y-131790225D01*
X92519016Y-131758475D01*
X92513725Y-131753183D01*
X92513725Y-131721433D01*
X92508433Y-131716142D01*
X92508433Y-131684392D01*
X92503141Y-131679100D01*
X92503141Y-131647350D01*
X92497850Y-131642058D01*
X92497850Y-131610308D01*
X92492558Y-131605017D01*
X92492558Y-131573267D01*
X92487266Y-131567975D01*
X92487266Y-131509767D01*
X92492558Y-131504475D01*
X92492558Y-131499183D01*
X92497850Y-131493892D01*
X92497850Y-131488600D01*
X92519016Y-131467433D01*
X92524308Y-131467433D01*
X92529600Y-131462142D01*
X92540183Y-131462142D01*
X92545475Y-131456850D01*
X92582516Y-131456850D01*
X92587808Y-131451558D01*
X92630141Y-131451558D01*
X92635433Y-131446267D01*
X92683058Y-131446267D01*
X92688350Y-131440975D01*
X92735975Y-131440975D01*
X92741266Y-131435683D01*
X92783600Y-131435683D01*
X92788891Y-131430392D01*
X92836516Y-131430392D01*
X92841808Y-131425100D01*
X92884141Y-131425100D01*
X92889433Y-131419808D01*
X92937058Y-131419808D01*
X92942350Y-131414517D01*
X92984683Y-131414517D01*
X92989975Y-131409225D01*
X93042891Y-131409225D01*
X93048183Y-131403933D01*
X93090516Y-131403933D01*
X93095808Y-131398642D01*
X93138141Y-131398642D01*
X93143433Y-131393350D01*
X93191058Y-131393350D01*
X93196350Y-131388058D01*
X93243975Y-131388058D01*
X93249266Y-131382767D01*
X93296891Y-131382767D01*
X93302183Y-131377475D01*
X93349808Y-131377475D01*
X93355100Y-131372183D01*
X93397433Y-131372183D01*
X93402725Y-131366892D01*
X93450350Y-131366892D01*
X93455641Y-131361600D01*
X93508558Y-131361600D01*
X93513850Y-131356308D01*
X93556183Y-131356308D01*
X93561475Y-131351017D01*
X93630266Y-131351017D01*
X93635558Y-131356308D01*
G37*
D10*
G36*
X91463758Y-131515182D02*
G01*
X91477945Y-131516261D01*
X91491926Y-131518038D01*
X91505683Y-131520495D01*
X91519199Y-131523614D01*
X91532456Y-131527379D01*
X91545437Y-131531771D01*
X91558123Y-131536773D01*
X91570498Y-131542367D01*
X91582544Y-131548537D01*
X91594243Y-131555264D01*
X91605578Y-131562530D01*
X91616530Y-131570319D01*
X91627084Y-131578612D01*
X91637221Y-131587393D01*
X91646923Y-131596643D01*
X91656173Y-131606345D01*
X91664954Y-131616482D01*
X91673247Y-131627036D01*
X91681036Y-131637989D01*
X91688303Y-131649323D01*
X91695029Y-131661022D01*
X91701199Y-131673068D01*
X91706793Y-131685443D01*
X91711795Y-131698129D01*
X91716188Y-131711110D01*
X91719952Y-131724367D01*
X91723072Y-131737883D01*
X91725528Y-131751640D01*
X91727305Y-131765621D01*
X91728384Y-131779808D01*
X91728747Y-131794185D01*
X91728384Y-131808561D01*
X91727305Y-131822748D01*
X91725528Y-131836729D01*
X91723072Y-131850487D01*
X91719952Y-131864002D01*
X91716188Y-131877259D01*
X91711795Y-131890240D01*
X91706793Y-131902926D01*
X91701199Y-131915301D01*
X91695029Y-131927347D01*
X91688303Y-131939046D01*
X91681036Y-131950381D01*
X91673247Y-131961334D01*
X91664954Y-131971887D01*
X91656173Y-131982024D01*
X91646923Y-131991726D01*
X91637221Y-132000976D01*
X91627084Y-132009757D01*
X91616530Y-132018050D01*
X91605578Y-132025839D01*
X91594243Y-132033106D01*
X91582544Y-132039832D01*
X91570498Y-132046002D01*
X91558123Y-132051596D01*
X91545437Y-132056598D01*
X91532456Y-132060991D01*
X91519199Y-132064755D01*
X91505683Y-132067875D01*
X91491926Y-132070331D01*
X91477945Y-132072108D01*
X91463758Y-132073187D01*
X91449381Y-132073550D01*
X91435005Y-132073187D01*
X91420818Y-132072108D01*
X91406837Y-132070331D01*
X91393080Y-132067875D01*
X91379564Y-132064755D01*
X91366307Y-132060991D01*
X91353326Y-132056598D01*
X91340640Y-132051596D01*
X91328265Y-132046002D01*
X91316219Y-132039832D01*
X91304520Y-132033106D01*
X91293186Y-132025839D01*
X91282233Y-132018050D01*
X91271679Y-132009757D01*
X91261542Y-132000976D01*
X91251840Y-131991726D01*
X91242590Y-131982024D01*
X91233809Y-131971887D01*
X91225516Y-131961334D01*
X91217727Y-131950381D01*
X91210461Y-131939046D01*
X91203734Y-131927347D01*
X91197564Y-131915301D01*
X91191970Y-131902926D01*
X91186968Y-131890240D01*
X91182576Y-131877259D01*
X91178811Y-131864002D01*
X91175692Y-131850487D01*
X91173235Y-131836729D01*
X91171458Y-131822748D01*
X91170379Y-131808561D01*
X91170016Y-131794185D01*
X91170379Y-131779808D01*
X91171458Y-131765621D01*
X91173235Y-131751640D01*
X91175692Y-131737883D01*
X91178811Y-131724367D01*
X91182576Y-131711110D01*
X91186968Y-131698129D01*
X91191970Y-131685443D01*
X91197564Y-131673068D01*
X91203734Y-131661022D01*
X91210461Y-131649323D01*
X91217727Y-131637989D01*
X91225516Y-131627036D01*
X91233809Y-131616482D01*
X91242590Y-131606345D01*
X91251840Y-131596643D01*
X91261542Y-131587393D01*
X91271679Y-131578612D01*
X91282233Y-131570319D01*
X91293186Y-131562530D01*
X91304520Y-131555264D01*
X91316219Y-131548537D01*
X91328265Y-131542367D01*
X91340640Y-131536773D01*
X91353326Y-131531771D01*
X91366307Y-131527379D01*
X91379564Y-131523614D01*
X91393080Y-131520495D01*
X91406837Y-131518038D01*
X91420818Y-131516261D01*
X91435005Y-131515182D01*
X91449381Y-131514819D01*
X91463758Y-131515182D01*
G37*
D13*
X95844152Y-137511008D02*
X95920343Y-137472913D01*
X95920343Y-137472913D02*
X96072724Y-137472913D01*
X96072724Y-137472913D02*
X96148914Y-137511008D01*
X96148914Y-137511008D02*
X96225105Y-137587198D01*
X96225105Y-137587198D02*
X96263200Y-137663389D01*
X96263200Y-137663389D02*
X96263200Y-137815770D01*
X96263200Y-137815770D02*
X96225105Y-137891960D01*
X96225105Y-137891960D02*
X96148914Y-137968151D01*
X96148914Y-137968151D02*
X96072724Y-138006246D01*
X96072724Y-138006246D02*
X95920343Y-138006246D01*
X95920343Y-138006246D02*
X95844152Y-137968151D01*
X95996533Y-137206246D02*
X96187009Y-137244341D01*
X96187009Y-137244341D02*
X96377486Y-137358627D01*
X96377486Y-137358627D02*
X96491771Y-137549103D01*
X96491771Y-137549103D02*
X96529867Y-137739579D01*
X96529867Y-137739579D02*
X96491771Y-137930056D01*
X96491771Y-137930056D02*
X96377486Y-138120532D01*
X96377486Y-138120532D02*
X96187009Y-138234817D01*
X96187009Y-138234817D02*
X95996533Y-138272913D01*
X95996533Y-138272913D02*
X95806057Y-138234817D01*
X95806057Y-138234817D02*
X95615581Y-138120532D01*
X95615581Y-138120532D02*
X95501295Y-137930056D01*
X95501295Y-137930056D02*
X95463200Y-137739579D01*
X95463200Y-137739579D02*
X95501295Y-137549103D01*
X95501295Y-137549103D02*
X95615581Y-137358627D01*
X95615581Y-137358627D02*
X95806057Y-137244341D01*
X95806057Y-137244341D02*
X95996533Y-137206246D01*
X95158438Y-137396722D02*
X95120342Y-137358627D01*
X95120342Y-137358627D02*
X95044152Y-137320532D01*
X95044152Y-137320532D02*
X94853676Y-137320532D01*
X94853676Y-137320532D02*
X94777485Y-137358627D01*
X94777485Y-137358627D02*
X94739390Y-137396722D01*
X94739390Y-137396722D02*
X94701295Y-137472913D01*
X94701295Y-137472913D02*
X94701295Y-137549103D01*
X94701295Y-137549103D02*
X94739390Y-137663389D01*
X94739390Y-137663389D02*
X95196533Y-138120532D01*
X95196533Y-138120532D02*
X94701295Y-138120532D01*
X94206056Y-137320532D02*
X94129866Y-137320532D01*
X94129866Y-137320532D02*
X94053675Y-137358627D01*
X94053675Y-137358627D02*
X94015580Y-137396722D01*
X94015580Y-137396722D02*
X93977485Y-137472913D01*
X93977485Y-137472913D02*
X93939390Y-137625294D01*
X93939390Y-137625294D02*
X93939390Y-137815770D01*
X93939390Y-137815770D02*
X93977485Y-137968151D01*
X93977485Y-137968151D02*
X94015580Y-138044341D01*
X94015580Y-138044341D02*
X94053675Y-138082437D01*
X94053675Y-138082437D02*
X94129866Y-138120532D01*
X94129866Y-138120532D02*
X94206056Y-138120532D01*
X94206056Y-138120532D02*
X94282247Y-138082437D01*
X94282247Y-138082437D02*
X94320342Y-138044341D01*
X94320342Y-138044341D02*
X94358437Y-137968151D01*
X94358437Y-137968151D02*
X94396533Y-137815770D01*
X94396533Y-137815770D02*
X94396533Y-137625294D01*
X94396533Y-137625294D02*
X94358437Y-137472913D01*
X94358437Y-137472913D02*
X94320342Y-137396722D01*
X94320342Y-137396722D02*
X94282247Y-137358627D01*
X94282247Y-137358627D02*
X94206056Y-137320532D01*
X93634628Y-137396722D02*
X93596532Y-137358627D01*
X93596532Y-137358627D02*
X93520342Y-137320532D01*
X93520342Y-137320532D02*
X93329866Y-137320532D01*
X93329866Y-137320532D02*
X93253675Y-137358627D01*
X93253675Y-137358627D02*
X93215580Y-137396722D01*
X93215580Y-137396722D02*
X93177485Y-137472913D01*
X93177485Y-137472913D02*
X93177485Y-137549103D01*
X93177485Y-137549103D02*
X93215580Y-137663389D01*
X93215580Y-137663389D02*
X93672723Y-138120532D01*
X93672723Y-138120532D02*
X93177485Y-138120532D01*
X92453675Y-137320532D02*
X92834627Y-137320532D01*
X92834627Y-137320532D02*
X92872723Y-137701484D01*
X92872723Y-137701484D02*
X92834627Y-137663389D01*
X92834627Y-137663389D02*
X92758437Y-137625294D01*
X92758437Y-137625294D02*
X92567961Y-137625294D01*
X92567961Y-137625294D02*
X92491770Y-137663389D01*
X92491770Y-137663389D02*
X92453675Y-137701484D01*
X92453675Y-137701484D02*
X92415580Y-137777675D01*
X92415580Y-137777675D02*
X92415580Y-137968151D01*
X92415580Y-137968151D02*
X92453675Y-138044341D01*
X92453675Y-138044341D02*
X92491770Y-138082437D01*
X92491770Y-138082437D02*
X92567961Y-138120532D01*
X92567961Y-138120532D02*
X92758437Y-138120532D01*
X92758437Y-138120532D02*
X92834627Y-138082437D01*
X92834627Y-138082437D02*
X92872723Y-138044341D01*
X91463198Y-138120532D02*
X91463198Y-137320532D01*
X91463198Y-137625294D02*
X91387008Y-137587198D01*
X91387008Y-137587198D02*
X91234627Y-137587198D01*
X91234627Y-137587198D02*
X91158436Y-137625294D01*
X91158436Y-137625294D02*
X91120341Y-137663389D01*
X91120341Y-137663389D02*
X91082246Y-137739579D01*
X91082246Y-137739579D02*
X91082246Y-137968151D01*
X91082246Y-137968151D02*
X91120341Y-138044341D01*
X91120341Y-138044341D02*
X91158436Y-138082437D01*
X91158436Y-138082437D02*
X91234627Y-138120532D01*
X91234627Y-138120532D02*
X91387008Y-138120532D01*
X91387008Y-138120532D02*
X91463198Y-138082437D01*
X90358436Y-137320532D02*
X90739388Y-137320532D01*
X90739388Y-137320532D02*
X90777484Y-137701484D01*
X90777484Y-137701484D02*
X90739388Y-137663389D01*
X90739388Y-137663389D02*
X90663198Y-137625294D01*
X90663198Y-137625294D02*
X90472722Y-137625294D01*
X90472722Y-137625294D02*
X90396531Y-137663389D01*
X90396531Y-137663389D02*
X90358436Y-137701484D01*
X90358436Y-137701484D02*
X90320341Y-137777675D01*
X90320341Y-137777675D02*
X90320341Y-137968151D01*
X90320341Y-137968151D02*
X90358436Y-138044341D01*
X90358436Y-138044341D02*
X90396531Y-138082437D01*
X90396531Y-138082437D02*
X90472722Y-138120532D01*
X90472722Y-138120532D02*
X90663198Y-138120532D01*
X90663198Y-138120532D02*
X90739388Y-138082437D01*
X90739388Y-138082437D02*
X90777484Y-138044341D01*
X90015579Y-138082437D02*
X89939388Y-138120532D01*
X89939388Y-138120532D02*
X89787007Y-138120532D01*
X89787007Y-138120532D02*
X89710817Y-138082437D01*
X89710817Y-138082437D02*
X89672721Y-138006246D01*
X89672721Y-138006246D02*
X89672721Y-137968151D01*
X89672721Y-137968151D02*
X89710817Y-137891960D01*
X89710817Y-137891960D02*
X89787007Y-137853865D01*
X89787007Y-137853865D02*
X89901293Y-137853865D01*
X89901293Y-137853865D02*
X89977483Y-137815770D01*
X89977483Y-137815770D02*
X90015579Y-137739579D01*
X90015579Y-137739579D02*
X90015579Y-137701484D01*
X90015579Y-137701484D02*
X89977483Y-137625294D01*
X89977483Y-137625294D02*
X89901293Y-137587198D01*
X89901293Y-137587198D02*
X89787007Y-137587198D01*
X89787007Y-137587198D02*
X89710817Y-137625294D01*
X88987007Y-137587198D02*
X88987007Y-138120532D01*
X89177483Y-137282437D02*
X89367960Y-137853865D01*
X89367960Y-137853865D02*
X88872721Y-137853865D01*
X95196532Y-136080353D02*
X95044151Y-136080353D01*
X95044151Y-136080353D02*
X94967961Y-136118448D01*
X94967961Y-136118448D02*
X94891770Y-136194638D01*
X94891770Y-136194638D02*
X94853675Y-136347019D01*
X94853675Y-136347019D02*
X94853675Y-136613686D01*
X94853675Y-136613686D02*
X94891770Y-136766067D01*
X94891770Y-136766067D02*
X94967961Y-136842258D01*
X94967961Y-136842258D02*
X95044151Y-136880353D01*
X95044151Y-136880353D02*
X95196532Y-136880353D01*
X95196532Y-136880353D02*
X95272723Y-136842258D01*
X95272723Y-136842258D02*
X95348913Y-136766067D01*
X95348913Y-136766067D02*
X95387009Y-136613686D01*
X95387009Y-136613686D02*
X95387009Y-136347019D01*
X95387009Y-136347019D02*
X95348913Y-136194638D01*
X95348913Y-136194638D02*
X95272723Y-136118448D01*
X95272723Y-136118448D02*
X95196532Y-136080353D01*
X94167961Y-136880353D02*
X94167961Y-136080353D01*
X94167961Y-136842258D02*
X94244152Y-136880353D01*
X94244152Y-136880353D02*
X94396533Y-136880353D01*
X94396533Y-136880353D02*
X94472723Y-136842258D01*
X94472723Y-136842258D02*
X94510818Y-136804162D01*
X94510818Y-136804162D02*
X94548914Y-136727972D01*
X94548914Y-136727972D02*
X94548914Y-136499400D01*
X94548914Y-136499400D02*
X94510818Y-136423210D01*
X94510818Y-136423210D02*
X94472723Y-136385115D01*
X94472723Y-136385115D02*
X94396533Y-136347019D01*
X94396533Y-136347019D02*
X94244152Y-136347019D01*
X94244152Y-136347019D02*
X94167961Y-136385115D01*
X93444151Y-136880353D02*
X93444151Y-136080353D01*
X93444151Y-136842258D02*
X93520342Y-136880353D01*
X93520342Y-136880353D02*
X93672723Y-136880353D01*
X93672723Y-136880353D02*
X93748913Y-136842258D01*
X93748913Y-136842258D02*
X93787008Y-136804162D01*
X93787008Y-136804162D02*
X93825104Y-136727972D01*
X93825104Y-136727972D02*
X93825104Y-136499400D01*
X93825104Y-136499400D02*
X93787008Y-136423210D01*
X93787008Y-136423210D02*
X93748913Y-136385115D01*
X93748913Y-136385115D02*
X93672723Y-136347019D01*
X93672723Y-136347019D02*
X93520342Y-136347019D01*
X93520342Y-136347019D02*
X93444151Y-136385115D01*
X93101294Y-136842258D02*
X93025103Y-136880353D01*
X93025103Y-136880353D02*
X92872722Y-136880353D01*
X92872722Y-136880353D02*
X92796532Y-136842258D01*
X92796532Y-136842258D02*
X92758436Y-136766067D01*
X92758436Y-136766067D02*
X92758436Y-136727972D01*
X92758436Y-136727972D02*
X92796532Y-136651781D01*
X92796532Y-136651781D02*
X92872722Y-136613686D01*
X92872722Y-136613686D02*
X92987008Y-136613686D01*
X92987008Y-136613686D02*
X93063198Y-136575591D01*
X93063198Y-136575591D02*
X93101294Y-136499400D01*
X93101294Y-136499400D02*
X93101294Y-136461305D01*
X93101294Y-136461305D02*
X93063198Y-136385115D01*
X93063198Y-136385115D02*
X92987008Y-136347019D01*
X92987008Y-136347019D02*
X92872722Y-136347019D01*
X92872722Y-136347019D02*
X92796532Y-136385115D01*
X92301294Y-136880353D02*
X92377484Y-136842258D01*
X92377484Y-136842258D02*
X92415579Y-136804162D01*
X92415579Y-136804162D02*
X92453675Y-136727972D01*
X92453675Y-136727972D02*
X92453675Y-136499400D01*
X92453675Y-136499400D02*
X92415579Y-136423210D01*
X92415579Y-136423210D02*
X92377484Y-136385115D01*
X92377484Y-136385115D02*
X92301294Y-136347019D01*
X92301294Y-136347019D02*
X92187008Y-136347019D01*
X92187008Y-136347019D02*
X92110817Y-136385115D01*
X92110817Y-136385115D02*
X92072722Y-136423210D01*
X92072722Y-136423210D02*
X92034627Y-136499400D01*
X92034627Y-136499400D02*
X92034627Y-136727972D01*
X92034627Y-136727972D02*
X92072722Y-136804162D01*
X92072722Y-136804162D02*
X92110817Y-136842258D01*
X92110817Y-136842258D02*
X92187008Y-136880353D01*
X92187008Y-136880353D02*
X92301294Y-136880353D01*
X91348912Y-136842258D02*
X91425103Y-136880353D01*
X91425103Y-136880353D02*
X91577484Y-136880353D01*
X91577484Y-136880353D02*
X91653674Y-136842258D01*
X91653674Y-136842258D02*
X91691769Y-136804162D01*
X91691769Y-136804162D02*
X91729865Y-136727972D01*
X91729865Y-136727972D02*
X91729865Y-136499400D01*
X91729865Y-136499400D02*
X91691769Y-136423210D01*
X91691769Y-136423210D02*
X91653674Y-136385115D01*
X91653674Y-136385115D02*
X91577484Y-136347019D01*
X91577484Y-136347019D02*
X91425103Y-136347019D01*
X91425103Y-136347019D02*
X91348912Y-136385115D01*
X91006055Y-136880353D02*
X91006055Y-136080353D01*
X90929865Y-136575591D02*
X90701293Y-136880353D01*
X90701293Y-136347019D02*
X91006055Y-136651781D01*
X90396532Y-136842258D02*
X90320341Y-136880353D01*
X90320341Y-136880353D02*
X90167960Y-136880353D01*
X90167960Y-136880353D02*
X90091770Y-136842258D01*
X90091770Y-136842258D02*
X90053674Y-136766067D01*
X90053674Y-136766067D02*
X90053674Y-136727972D01*
X90053674Y-136727972D02*
X90091770Y-136651781D01*
X90091770Y-136651781D02*
X90167960Y-136613686D01*
X90167960Y-136613686D02*
X90282246Y-136613686D01*
X90282246Y-136613686D02*
X90358436Y-136575591D01*
X90358436Y-136575591D02*
X90396532Y-136499400D01*
X90396532Y-136499400D02*
X90396532Y-136461305D01*
X90396532Y-136461305D02*
X90358436Y-136385115D01*
X90358436Y-136385115D02*
X90282246Y-136347019D01*
X90282246Y-136347019D02*
X90167960Y-136347019D01*
X90167960Y-136347019D02*
X90091770Y-136385115D01*
X94377484Y-139409346D02*
X94644151Y-139028393D01*
X94834627Y-139409346D02*
X94834627Y-138609346D01*
X94834627Y-138609346D02*
X94529865Y-138609346D01*
X94529865Y-138609346D02*
X94453675Y-138647441D01*
X94453675Y-138647441D02*
X94415580Y-138685536D01*
X94415580Y-138685536D02*
X94377484Y-138761727D01*
X94377484Y-138761727D02*
X94377484Y-138876012D01*
X94377484Y-138876012D02*
X94415580Y-138952203D01*
X94415580Y-138952203D02*
X94453675Y-138990298D01*
X94453675Y-138990298D02*
X94529865Y-139028393D01*
X94529865Y-139028393D02*
X94834627Y-139028393D01*
X93729865Y-139371251D02*
X93806056Y-139409346D01*
X93806056Y-139409346D02*
X93958437Y-139409346D01*
X93958437Y-139409346D02*
X94034627Y-139371251D01*
X94034627Y-139371251D02*
X94072723Y-139295060D01*
X94072723Y-139295060D02*
X94072723Y-138990298D01*
X94072723Y-138990298D02*
X94034627Y-138914108D01*
X94034627Y-138914108D02*
X93958437Y-138876012D01*
X93958437Y-138876012D02*
X93806056Y-138876012D01*
X93806056Y-138876012D02*
X93729865Y-138914108D01*
X93729865Y-138914108D02*
X93691770Y-138990298D01*
X93691770Y-138990298D02*
X93691770Y-139066489D01*
X93691770Y-139066489D02*
X94072723Y-139142679D01*
X93425104Y-138876012D02*
X93234628Y-139409346D01*
X93234628Y-139409346D02*
X93044151Y-138876012D01*
X91710818Y-139409346D02*
X92167961Y-139409346D01*
X91939389Y-139409346D02*
X91939389Y-138609346D01*
X91939389Y-138609346D02*
X92015580Y-138723631D01*
X92015580Y-138723631D02*
X92091770Y-138799822D01*
X92091770Y-138799822D02*
X92167961Y-138837917D01*
X91367960Y-139333155D02*
X91329865Y-139371251D01*
X91329865Y-139371251D02*
X91367960Y-139409346D01*
X91367960Y-139409346D02*
X91406056Y-139371251D01*
X91406056Y-139371251D02*
X91367960Y-139333155D01*
X91367960Y-139333155D02*
X91367960Y-139409346D01*
X90834627Y-138609346D02*
X90758437Y-138609346D01*
X90758437Y-138609346D02*
X90682246Y-138647441D01*
X90682246Y-138647441D02*
X90644151Y-138685536D01*
X90644151Y-138685536D02*
X90606056Y-138761727D01*
X90606056Y-138761727D02*
X90567961Y-138914108D01*
X90567961Y-138914108D02*
X90567961Y-139104584D01*
X90567961Y-139104584D02*
X90606056Y-139256965D01*
X90606056Y-139256965D02*
X90644151Y-139333155D01*
X90644151Y-139333155D02*
X90682246Y-139371251D01*
X90682246Y-139371251D02*
X90758437Y-139409346D01*
X90758437Y-139409346D02*
X90834627Y-139409346D01*
X90834627Y-139409346D02*
X90910818Y-139371251D01*
X90910818Y-139371251D02*
X90948913Y-139333155D01*
X90948913Y-139333155D02*
X90987008Y-139256965D01*
X90987008Y-139256965D02*
X91025104Y-139104584D01*
X91025104Y-139104584D02*
X91025104Y-138914108D01*
X91025104Y-138914108D02*
X90987008Y-138761727D01*
X90987008Y-138761727D02*
X90948913Y-138685536D01*
X90948913Y-138685536D02*
X90910818Y-138647441D01*
X90910818Y-138647441D02*
X90834627Y-138609346D01*
%LPC*%
D14*
X124460000Y-73660000D03*
D15*
X124460000Y-76200000D03*
X124460000Y-78740000D03*
X124460000Y-81280000D03*
X124460000Y-83820000D03*
X124460000Y-86360000D03*
X124460000Y-88900000D03*
X124460000Y-91440000D03*
X124460000Y-93980000D03*
X124460000Y-96520000D03*
X124460000Y-99060000D03*
X124460000Y-101600000D03*
X124460000Y-104140000D03*
X124460000Y-106680000D03*
X124460000Y-109220000D03*
X124460000Y-111760000D03*
X139700000Y-111760000D03*
X139700000Y-109220000D03*
X139700000Y-106680000D03*
X139700000Y-104140000D03*
X139700000Y-101600000D03*
X139700000Y-99060000D03*
X139700000Y-96520000D03*
X139700000Y-93980000D03*
X139700000Y-91440000D03*
X139700000Y-88900000D03*
X139700000Y-86360000D03*
X139700000Y-83820000D03*
X139700000Y-81280000D03*
X139700000Y-78740000D03*
X139700000Y-76200000D03*
X139700000Y-73660000D03*
D14*
X149860000Y-93980000D03*
D15*
X157480000Y-93980000D03*
X95310000Y-91440000D03*
X102810000Y-91440000D03*
D16*
X147320000Y-58420000D03*
D17*
X149860000Y-58420000D03*
D18*
X167640000Y-86360000D03*
D19*
X168910000Y-86360000D03*
X170180000Y-86360000D03*
D18*
X167640000Y-71120000D03*
D19*
X168910000Y-71120000D03*
X170180000Y-71120000D03*
D15*
X95250000Y-127000000D03*
X95250000Y-119380000D03*
D16*
X167640000Y-58420000D03*
D17*
X170180000Y-58420000D03*
D14*
X149860000Y-85859000D03*
D15*
X157480000Y-85859000D03*
X95310000Y-63500000D03*
X102810000Y-63500000D03*
X95190700Y-101600000D03*
X102690700Y-101600000D03*
D14*
X149860000Y-78740000D03*
D15*
X157480000Y-78740000D03*
D20*
X148786700Y-127416800D03*
D15*
X146016700Y-127416800D03*
X143246700Y-127416800D03*
X140476700Y-127416800D03*
X137706700Y-127416800D03*
X134936700Y-127416800D03*
X132166700Y-127416800D03*
X129396700Y-127416800D03*
X126626700Y-127416800D03*
X123856700Y-127416800D03*
X121086700Y-127416800D03*
X118316700Y-127416800D03*
X115546700Y-127416800D03*
X147401700Y-130256800D03*
X144631700Y-130256800D03*
X141861700Y-130256800D03*
X139091700Y-130256800D03*
X136321700Y-130256800D03*
X133551700Y-130256800D03*
X130781700Y-130256800D03*
X128011700Y-130256800D03*
X125241700Y-130256800D03*
X122471700Y-130256800D03*
X119701700Y-130256800D03*
X116931700Y-130256800D03*
X104140000Y-127000000D03*
X104140000Y-119380000D03*
D16*
X157480000Y-58420000D03*
D17*
X160020000Y-58420000D03*
D21*
X101970000Y-76200000D03*
D15*
X94350000Y-76200000D03*
%LPD*%
M02*
