M48
; DRILL file {KiCad 9.0.3-1.fc42} date 2025-08-02T14:35:45+0800
; FORMAT={-:-/ absolute / metric / decimal}
; #@! TF.CreationDate,2025-08-02T14:35:45+08:00
; #@! TF.GenerationSoftware,Kicad,Pcbnew,9.0.3-1.fc42
; #@! TF.FileFunction,Plated,1,2,PTH
FMAT,2
METRIC
; #@! TA.AperFunction,Plated,PTH,ViaDrill
T1C0.300
; #@! TA.AperFunction,Plated,PTH,ComponentDrill
T2C0.750
; #@! TA.AperFunction,Plated,PTH,ComponentDrill
T3C0.800
; #@! TA.AperFunction,Plated,PTH,ComponentDrill
T4C0.900
; #@! TA.AperFunction,Plated,PTH,ComponentDrill
T5C1.000
%
G90
G05
T1
X101.164Y-85.971
X103.614Y-105.249
X105.891Y-90.7
X117.532Y-113.978
X119.294Y-99.455
X126.488Y-111.528
X128.804Y-59.397
X129.171Y-125.389
X131.303Y-59.459
X132.167Y-108.158
X132.241Y-105.046
X134.989Y-58.695
X135.006Y-123.873
X137.9Y-58.694
X140.318Y-122.707
X140.715Y-95.63
X141.381Y-106.67
X141.382Y-86.184
X141.873Y-111.514
X146.629Y-70.978
X146.629Y-113.978
X149.009Y-111.034
X150.514Y-130.128
X152.448Y-131.436
X160.592Y-106.981
X160.829Y-125.965
X161.177Y-67.423
X162.996Y-129.48
X164.477Y-111.239
X165.222Y-93.61
X168.631Y-102.339
T2
X167.64Y-71.12
X167.64Y-86.36
X168.91Y-71.12
X168.91Y-86.36
X170.18Y-71.12
X170.18Y-86.36
T3
X94.35Y-76.2
X95.191Y-101.6
X95.25Y-119.38
X95.25Y-127.0
X95.31Y-63.5
X95.31Y-91.44
X101.97Y-76.2
X102.691Y-101.6
X102.81Y-63.5
X102.81Y-91.44
X104.14Y-119.38
X104.14Y-127.0
X124.46Y-73.66
X124.46Y-76.2
X124.46Y-78.74
X124.46Y-81.28
X124.46Y-83.82
X124.46Y-86.36
X124.46Y-88.9
X124.46Y-91.44
X124.46Y-93.98
X124.46Y-96.52
X124.46Y-99.06
X124.46Y-101.6
X124.46Y-104.14
X124.46Y-106.68
X124.46Y-109.22
X124.46Y-111.76
X139.7Y-73.66
X139.7Y-76.2
X139.7Y-78.74
X139.7Y-81.28
X139.7Y-83.82
X139.7Y-86.36
X139.7Y-88.9
X139.7Y-91.44
X139.7Y-93.98
X139.7Y-96.52
X139.7Y-99.06
X139.7Y-101.6
X139.7Y-104.14
X139.7Y-106.68
X139.7Y-109.22
X139.7Y-111.76
X149.86Y-78.74
X149.86Y-85.859
X149.86Y-93.98
X157.48Y-78.74
X157.48Y-85.859
X157.48Y-93.98
T4
X147.32Y-58.42
X149.86Y-58.42
X157.48Y-58.42
X160.02Y-58.42
X167.64Y-58.42
X170.18Y-58.42
T5
X115.547Y-127.417
X116.932Y-130.257
X118.317Y-127.417
X119.702Y-130.257
X121.087Y-127.417
X122.472Y-130.257
X123.857Y-127.417
X125.242Y-130.257
X126.627Y-127.417
X128.012Y-130.257
X129.397Y-127.417
X130.782Y-130.257
X132.167Y-127.417
X133.552Y-130.257
X134.937Y-127.417
X136.322Y-130.257
X137.707Y-127.417
X139.092Y-130.257
X140.477Y-127.417
X141.862Y-130.257
X143.247Y-127.417
X144.632Y-130.257
X146.017Y-127.417
X147.402Y-130.257
X148.787Y-127.417
M30
